<svg xmlns="http://www.w3.org/2000/svg" xmlns:xlink="http://www.w3.org/1999/xlink" viewBox="0 0 908.27 664.81"><defs><style>.cls-1{isolation:isolate;}.cls-2{fill:#fff;}.cls-3{fill:url(#linear-gradient);}.cls-4{fill:#150f31;}.cls-104,.cls-111,.cls-23,.cls-24,.cls-30,.cls-31,.cls-34,.cls-35,.cls-5,.cls-72,.cls-75,.cls-76,.cls-80,.cls-81,.cls-82,.cls-86,.cls-97{mix-blend-mode:color-dodge;}.cls-105,.cls-24,.cls-5,.cls-75{opacity:0.5;}.cls-5{fill:url(#radial-gradient);}.cls-106,.cls-6,.cls-7,.cls-84,.cls-85,.cls-98{opacity:0.2;}.cls-6{fill:url(#linear-gradient-2);}.cls-8{opacity:0;}.cls-9{opacity:0.09;}.cls-10{opacity:0.18;}.cls-11{opacity:0.27;}.cls-12{opacity:0.36;}.cls-13{opacity:0.45;}.cls-14{opacity:0.55;}.cls-15{opacity:0.64;}.cls-16{opacity:0.73;}.cls-17{opacity:0.82;}.cls-18{opacity:0.91;}.cls-19{fill:url(#linear-gradient-3);}.cls-20{fill:url(#linear-gradient-4);}.cls-101,.cls-21,.cls-27,.cls-66,.cls-68,.cls-87,.cls-98,.cls-99{mix-blend-mode:multiply;}.cls-21{opacity:0.82;fill:url(#linear-gradient-5);}.cls-100,.cls-103,.cls-105,.cls-106,.cls-107,.cls-112,.cls-22,.cls-29,.cls-32,.cls-33,.cls-36,.cls-41,.cls-45,.cls-49,.cls-53,.cls-57,.cls-61{mix-blend-mode:screen;}.cls-22,.cls-29{opacity:0.6;}.cls-22{fill:url(#radial-gradient-2);}.cls-23{fill:url(#radial-gradient-3);}.cls-24{fill:url(#radial-gradient-4);}.cls-25{fill:url(#linear-gradient-6);}.cls-26{fill:url(#linear-gradient-7);}.cls-27{fill:#bcbec0;}.cls-28{fill:url(#linear-gradient-8);}.cls-29{fill:url(#radial-gradient-5);}.cls-30{fill:url(#radial-gradient-6);}.cls-31{fill:url(#radial-gradient-7);}.cls-32{fill:url(#radial-gradient-8);}.cls-33{fill:url(#radial-gradient-9);}.cls-34{fill:url(#radial-gradient-10);}.cls-35{fill:url(#radial-gradient-11);}.cls-36{fill:url(#linear-gradient-9);}.cls-37{opacity:0.9;}.cls-38{fill:url(#linear-gradient-10);}.cls-39{fill:url(#linear-gradient-11);}.cls-40{fill:url(#linear-gradient-12);}.cls-41{fill:url(#linear-gradient-13);}.cls-42{fill:url(#linear-gradient-14);}.cls-43{fill:url(#linear-gradient-15);}.cls-44{fill:url(#linear-gradient-16);}.cls-45{fill:url(#linear-gradient-17);}.cls-46{fill:url(#linear-gradient-18);}.cls-47{fill:url(#linear-gradient-19);}.cls-48{fill:url(#linear-gradient-20);}.cls-49{fill:url(#linear-gradient-21);}.cls-50{fill:url(#linear-gradient-22);}.cls-51{fill:url(#linear-gradient-23);}.cls-52{fill:url(#linear-gradient-24);}.cls-53{fill:url(#linear-gradient-25);}.cls-54{fill:url(#linear-gradient-26);}.cls-55{fill:url(#linear-gradient-27);}.cls-56{fill:url(#linear-gradient-28);}.cls-57{fill:url(#linear-gradient-29);}.cls-58{fill:url(#linear-gradient-30);}.cls-59{fill:url(#linear-gradient-31);}.cls-60{fill:url(#linear-gradient-32);}.cls-61{fill:url(#linear-gradient-33);}.cls-62{fill:url(#linear-gradient-34);}.cls-63{fill:url(#linear-gradient-35);}.cls-64{fill:url(#linear-gradient-36);}.cls-65{fill:url(#linear-gradient-37);}.cls-66{fill:url(#linear-gradient-38);}.cls-67{fill:url(#linear-gradient-39);}.cls-68{fill:url(#linear-gradient-40);}.cls-69{fill:url(#linear-gradient-41);}.cls-70{fill:url(#linear-gradient-42);}.cls-71{fill:url(#linear-gradient-43);}.cls-72{fill:url(#radial-gradient-12);}.cls-73{fill:#1f0d3d;}.cls-74{fill:url(#linear-gradient-44);}.cls-75{fill:url(#radial-gradient-13);}.cls-76{fill:url(#radial-gradient-14);}.cls-77{fill:#25054d;}.cls-78{fill:url(#linear-gradient-45);}.cls-79{fill:url(#linear-gradient-46);}.cls-80{fill:url(#radial-gradient-15);}.cls-81{fill:url(#radial-gradient-16);}.cls-82{fill:url(#radial-gradient-17);}.cls-83{fill:url(#linear-gradient-47);}.cls-84{fill:url(#linear-gradient-48);}.cls-85{fill:url(#linear-gradient-49);}.cls-86{fill:url(#radial-gradient-18);}.cls-87{fill:#e6e7e8;}.cls-88{fill:url(#linear-gradient-50);}.cls-89{fill:url(#linear-gradient-51);}.cls-90{fill:url(#linear-gradient-52);}.cls-91{fill:url(#radial-gradient-19);}.cls-92{fill:url(#linear-gradient-53);}.cls-93{fill:url(#linear-gradient-54);}.cls-94{fill:url(#linear-gradient-55);}.cls-95{fill:url(#linear-gradient-56);}.cls-96{fill:url(#linear-gradient-57);}.cls-97{fill:url(#radial-gradient-20);}.cls-98{fill:url(#radial-gradient-21);}.cls-99{opacity:0.3;fill:url(#radial-gradient-22);}.cls-100{fill:url(#radial-gradient-23);}.cls-101{fill:#939598;}.cls-102{fill:url(#linear-gradient-58);}.cls-103{fill:#58595b;}.cls-104{fill:url(#radial-gradient-24);}.cls-105{fill:url(#radial-gradient-25);}.cls-106{fill:url(#radial-gradient-26);}.cls-107{fill:url(#linear-gradient-59);}.cls-108{fill:url(#linear-gradient-60);}.cls-109{fill:url(#linear-gradient-61);}.cls-110{fill:url(#linear-gradient-62);}.cls-111{fill:url(#radial-gradient-27);}.cls-112{fill:url(#radial-gradient-28);}</style><linearGradient id="linear-gradient" x1="917.1" y1="328.32" x2="252.29" y2="635.77" gradientUnits="userSpaceOnUse"><stop offset="0" stop-color="#0e0033"/><stop offset="0.29" stop-color="#1c0b56"/><stop offset="0.37" stop-color="#240c55"/><stop offset="0.48" stop-color="#391152"/><stop offset="0.62" stop-color="#5d174e"/><stop offset="0.78" stop-color="#8d2048"/><stop offset="0.96" stop-color="#cb2c40"/><stop offset="1" stop-color="#db2f3e"/></linearGradient><radialGradient id="radial-gradient" cx="594.53" cy="267.97" r="315.03" gradientTransform="translate(2.08 48.5) scale(0.96 0.98)" gradientUnits="userSpaceOnUse"><stop offset="0" stop-color="#fa45c1"/><stop offset="0.21" stop-color="#cb389d"/><stop offset="0.67" stop-color="#571843"/><stop offset="1"/></radialGradient><linearGradient id="linear-gradient-2" x1="500.79" y1="525.07" x2="738.63" y2="525.07" gradientUnits="userSpaceOnUse"><stop offset="0.06" stop-color="#200041"/><stop offset="0.26" stop-color="#210243"/><stop offset="0.36" stop-color="#25084b"/><stop offset="0.43" stop-color="#2c1358"/><stop offset="0.47" stop-color="#311b61"/><stop offset="0.48" stop-color="#351f65"/><stop offset="0.5" stop-color="#422c73"/><stop offset="0.51" stop-color="#584188"/><stop offset="0.52" stop-color="#765fa7"/><stop offset="0.53" stop-color="#8770b8"/><stop offset="0.54" stop-color="#7e67ae"/><stop offset="0.56" stop-color="#5c468d"/><stop offset="0.59" stop-color="#442e75"/><stop offset="0.61" stop-color="#362066"/><stop offset="0.63" stop-color="#311b61"/><stop offset="0.67" stop-color="#2a1155"/><stop offset="0.75" stop-color="#230446"/><stop offset="0.81" stop-color="#200041"/><stop offset="1" stop-color="#200041"/></linearGradient><linearGradient id="linear-gradient-3" x1="500.79" y1="488.8" x2="738.63" y2="488.8" xlink:href="#linear-gradient-2"/><linearGradient id="linear-gradient-4" x1="564.44" y1="504.09" x2="672.25" y2="444.45" gradientUnits="userSpaceOnUse"><stop offset="0" stop-color="#311b61"/><stop offset="0.2" stop-color="#290f52"/><stop offset="0.49" stop-color="#200041"/><stop offset="1" stop-color="#0f001f"/></linearGradient><linearGradient id="linear-gradient-5" x1="621.61" y1="475.9" x2="642.78" y2="440.42" gradientUnits="userSpaceOnUse"><stop offset="0" stop-color="#fff"/><stop offset="1"/></linearGradient><radialGradient id="radial-gradient-2" cx="622.32" cy="524.12" r="84.62" gradientUnits="userSpaceOnUse"><stop offset="0" stop-color="#af8afc"/><stop offset="1" stop-color="#10054d"/></radialGradient><radialGradient id="radial-gradient-3" cx="1607.32" cy="1716.45" r="59.45" gradientTransform="matrix(0.57, 0, 0, 0.66, -278.86, -588.92)" gradientUnits="userSpaceOnUse"><stop offset="0" stop-color="#972a74"/><stop offset="0.04" stop-color="#8a266a"/><stop offset="0.19" stop-color="#601b4a"/><stop offset="0.35" stop-color="#3d112f"/><stop offset="0.51" stop-color="#230a1b"/><stop offset="0.67" stop-color="#0f040c"/><stop offset="0.83" stop-color="#040103"/><stop offset="1"/></radialGradient><radialGradient id="radial-gradient-4" cx="-691.95" cy="-4121.78" r="135.05" gradientTransform="matrix(0, 1.08, -0.44, 0, -1201.29, 1284.3)" gradientUnits="userSpaceOnUse"><stop offset="0" stop-color="#4f18ad"/><stop offset="0.29" stop-color="#3a127f"/><stop offset="0.94" stop-color="#05010a"/><stop offset="1"/></radialGradient><linearGradient id="linear-gradient-6" x1="793.62" y1="545.73" x2="429.67" y2="42.11" xlink:href="#linear-gradient-4"/><linearGradient id="linear-gradient-7" x1="478.88" y1="92.27" x2="788.54" y2="557.89" gradientUnits="userSpaceOnUse"><stop offset="0.02" stop-color="#0e0033"/><stop offset="0.07" stop-color="#150645"/><stop offset="0.12" stop-color="#1a0a52"/><stop offset="0.17" stop-color="#1c0b56"/><stop offset="0.24" stop-color="#2e0e54"/><stop offset="0.51" stop-color="#771c4b"/><stop offset="0.74" stop-color="#ad2644"/><stop offset="0.91" stop-color="#ce2d40"/><stop offset="1" stop-color="#db2f3e"/></linearGradient><linearGradient id="linear-gradient-8" x1="870.95" y1="556.68" x2="584.47" y2="98.93" xlink:href="#linear-gradient-2"/><radialGradient id="radial-gradient-5" cx="789.68" cy="296" r="48.76" xlink:href="#radial-gradient-2"/><radialGradient id="radial-gradient-6" cx="2091.97" cy="1414.18" r="59.45" gradientTransform="matrix(0.52, 0, 0, 0.66, -292.57, -670.78)" xlink:href="#radial-gradient-3"/><radialGradient id="radial-gradient-7" cx="941.13" cy="1113.46" r="166.12" gradientTransform="matrix(0.64, 0, 0, 0.66, -106.64, -564.73)" xlink:href="#radial-gradient-3"/><radialGradient id="radial-gradient-8" cx="749.97" cy="191.52" r="24.31" gradientTransform="translate(740.21 -582.45) rotate(74.95)" gradientUnits="userSpaceOnUse"><stop offset="0.09" stop-color="#c211a1"/><stop offset="0.09" stop-color="#b9109b"/><stop offset="0.13" stop-color="#5b0663"/><stop offset="0.15" stop-color="#510558"/><stop offset="0.21" stop-color="#38043d"/><stop offset="0.29" stop-color="#230226"/><stop offset="0.37" stop-color="#130115"/><stop offset="0.48" stop-color="#080109"/><stop offset="0.62" stop-color="#020002"/><stop offset="1"/></radialGradient><radialGradient id="radial-gradient-9" cx="630.06" cy="582.57" r="24.31" gradientTransform="translate(1051.17 -165.11) rotate(76.63)" xlink:href="#radial-gradient-8"/><radialGradient id="radial-gradient-10" cx="707.57" cy="244.81" r="195.07" gradientTransform="matrix(1, 0, 0, 1, 0, 0)" xlink:href="#radial-gradient"/><radialGradient id="radial-gradient-11" cx="626.97" cy="542.18" r="80.27" gradientTransform="matrix(1, 0, 0, 1, 0, 0)" xlink:href="#radial-gradient"/><linearGradient id="linear-gradient-9" x1="453.37" y1="362.13" x2="501.66" y2="329.54" gradientUnits="userSpaceOnUse"><stop offset="0" stop-color="#fdd65b"/><stop offset="0.01" stop-color="#f7d159"/><stop offset="0.13" stop-color="#bea144"/><stop offset="0.25" stop-color="#8b7632"/><stop offset="0.37" stop-color="#605223"/><stop offset="0.49" stop-color="#3e3416"/><stop offset="0.62" stop-color="#231d0c"/><stop offset="0.74" stop-color="#0f0d05"/><stop offset="0.87" stop-color="#040301"/><stop offset="1"/></linearGradient><linearGradient id="linear-gradient-10" x1="471.12" y1="368.07" x2="521.22" y2="353.06" gradientUnits="userSpaceOnUse"><stop offset="0.04" stop-color="#c7c0f0"/><stop offset="0.15" stop-color="#b8b2e2"/><stop offset="0.38" stop-color="#8f8fbe"/><stop offset="0.69" stop-color="#4e5684"/><stop offset="1" stop-color="#071844"/></linearGradient><linearGradient id="linear-gradient-11" x1="394.81" y1="374.31" x2="509.58" y2="348.58" xlink:href="#linear-gradient-10"/><linearGradient id="linear-gradient-12" x1="475.12" y1="307.45" x2="457.16" y2="341.69" xlink:href="#linear-gradient-10"/><linearGradient id="linear-gradient-13" x1="453.37" y1="315.02" x2="501.66" y2="282.43" xlink:href="#linear-gradient-10"/><linearGradient id="linear-gradient-14" x1="471.12" y1="320.95" x2="521.22" y2="305.95" xlink:href="#linear-gradient-10"/><linearGradient id="linear-gradient-15" x1="394.81" y1="327.2" x2="509.58" y2="301.47" xlink:href="#linear-gradient-10"/><linearGradient id="linear-gradient-16" x1="475.12" y1="260.34" x2="457.16" y2="294.58" xlink:href="#linear-gradient-10"/><linearGradient id="linear-gradient-17" x1="453.37" y1="267.47" x2="501.66" y2="234.88" xlink:href="#linear-gradient-10"/><linearGradient id="linear-gradient-18" x1="471.12" y1="273.4" x2="521.22" y2="258.4" xlink:href="#linear-gradient-10"/><linearGradient id="linear-gradient-19" x1="394.81" y1="279.64" x2="509.58" y2="253.92" xlink:href="#linear-gradient-10"/><linearGradient id="linear-gradient-20" x1="475.12" y1="212.79" x2="457.16" y2="247.03" xlink:href="#linear-gradient-10"/><linearGradient id="linear-gradient-21" x1="711.1" y1="448.76" x2="780.69" y2="448.76" xlink:href="#linear-gradient-10"/><linearGradient id="linear-gradient-22" x1="750.47" y1="463.53" x2="764.96" y2="474.83" gradientUnits="userSpaceOnUse"><stop offset="0.04" stop-color="#c7c0f0"/><stop offset="0.13" stop-color="#b8b2e2"/><stop offset="0.32" stop-color="#8f8fbe"/><stop offset="0.58" stop-color="#4e5684"/><stop offset="0.84" stop-color="#071844"/></linearGradient><linearGradient id="linear-gradient-23" x1="711.1" y1="459.16" x2="744.1" y2="459.16" xlink:href="#linear-gradient-10"/><linearGradient id="linear-gradient-24" x1="711.1" y1="436.72" x2="759.04" y2="436.72" xlink:href="#linear-gradient-10"/><linearGradient id="linear-gradient-25" x1="730" y1="394.66" x2="778.29" y2="362.07" xlink:href="#linear-gradient-10"/><linearGradient id="linear-gradient-26" x1="747.75" y1="400.59" x2="797.85" y2="385.59" xlink:href="#linear-gradient-10"/><linearGradient id="linear-gradient-27" x1="671.43" y1="406.83" x2="786.21" y2="381.11" xlink:href="#linear-gradient-10"/><linearGradient id="linear-gradient-28" x1="751.75" y1="339.98" x2="733.78" y2="374.22" xlink:href="#linear-gradient-10"/><linearGradient id="linear-gradient-29" x1="730" y1="346.32" x2="778.29" y2="313.73" xlink:href="#linear-gradient-10"/><linearGradient id="linear-gradient-30" x1="747.75" y1="352.25" x2="797.85" y2="337.25" xlink:href="#linear-gradient-10"/><linearGradient id="linear-gradient-31" x1="671.43" y1="358.5" x2="786.21" y2="332.77" xlink:href="#linear-gradient-10"/><linearGradient id="linear-gradient-32" x1="751.75" y1="291.64" x2="733.78" y2="325.88" xlink:href="#linear-gradient-10"/><linearGradient id="linear-gradient-33" x1="730" y1="296.83" x2="778.29" y2="264.24" gradientUnits="userSpaceOnUse"><stop offset="0" stop-color="#c211a1"/><stop offset="0.01" stop-color="#bd119d"/><stop offset="0.15" stop-color="#8b0c73"/><stop offset="0.29" stop-color="#600850"/><stop offset="0.42" stop-color="#3e0533"/><stop offset="0.56" stop-color="#23031d"/><stop offset="0.7" stop-color="#0f010d"/><stop offset="0.85" stop-color="#040003"/><stop offset="1"/></linearGradient><linearGradient id="linear-gradient-34" x1="747.75" y1="302.76" x2="797.85" y2="287.76" gradientUnits="userSpaceOnUse"><stop offset="0.04" stop-color="#ca1d43"/><stop offset="0.15" stop-color="#bb1b42"/><stop offset="0.38" stop-color="#92143e"/><stop offset="0.7" stop-color="#510a39"/><stop offset="1" stop-color="#0e0033"/></linearGradient><linearGradient id="linear-gradient-35" x1="671.43" y1="309" x2="786.21" y2="283.27" gradientUnits="userSpaceOnUse"><stop offset="0.29" stop-color="#ca1d43"/><stop offset="0.33" stop-color="#b81a41"/><stop offset="0.58" stop-color="#3f0737"/><stop offset="0.69" stop-color="#0e0033"/></linearGradient><linearGradient id="linear-gradient-36" x1="742.12" y1="246.61" x2="732.46" y2="284.05" gradientUnits="userSpaceOnUse"><stop offset="0.28" stop-color="#ca1d43"/><stop offset="0.37" stop-color="#bb1b42"/><stop offset="0.54" stop-color="#92143e"/><stop offset="0.78" stop-color="#510a39"/><stop offset="1" stop-color="#0e0033"/></linearGradient><linearGradient id="linear-gradient-37" x1="-3045.02" y1="1288.49" x2="-3039.88" y2="1245.98" gradientTransform="matrix(0.87, 0.5, -1, 0.58, 4363.21, 1347.56)" gradientUnits="userSpaceOnUse"><stop offset="0.03" stop-color="#d4d1d8"/><stop offset="1" stop-color="#eeebf2"/></linearGradient><linearGradient id="linear-gradient-38" x1="-3045.13" y1="1288.69" x2="-3040.56" y2="1250.91" xlink:href="#linear-gradient-37"/><linearGradient id="linear-gradient-39" x1="-3056.28" y1="1302.99" x2="-3045.51" y2="1264.45" xlink:href="#linear-gradient-37"/><linearGradient id="linear-gradient-40" x1="-3057.05" y1="1302.79" x2="-3047.03" y2="1266.89" xlink:href="#linear-gradient-37"/><linearGradient id="linear-gradient-41" x1="-3074.03" y1="1319.29" x2="-3045.27" y2="1270.35" xlink:href="#linear-gradient-37"/><linearGradient id="linear-gradient-42" x1="1571.19" y1="505.67" x2="1840.56" y2="505.67" gradientTransform="translate(-1274.21)" xlink:href="#linear-gradient-2"/><linearGradient id="linear-gradient-43" x1="362.01" y1="532.44" x2="542.6" y2="401.25" xlink:href="#linear-gradient-4"/><radialGradient id="radial-gradient-12" cx="-1132.37" cy="533.63" r="101.67" gradientTransform="matrix(-1, 0, 0, 1, -707.75, 0)" xlink:href="#linear-gradient-5"/><linearGradient id="linear-gradient-44" x1="280.36" y1="494.61" x2="513.96" y2="494.61" gradientUnits="userSpaceOnUse"><stop offset="0.02" stop-color="#0e0033"/><stop offset="0.29" stop-color="#1c0b56"/><stop offset="1" stop-color="#db2f3e"/></linearGradient><radialGradient id="radial-gradient-13" cx="-901.28" cy="-3946.06" r="109.02" gradientTransform="matrix(0, 1.08, -0.44, 0, -1363.29, 1511.65)" xlink:href="#radial-gradient-4"/><radialGradient id="radial-gradient-14" cx="1274.46" cy="1642.74" r="41.83" gradientTransform="matrix(0.53, -0.22, 0.25, 0.61, -643.44, -156.37)" xlink:href="#radial-gradient-3"/><linearGradient id="linear-gradient-45" x1="467.29" y1="526.6" x2="507.31" y2="575.24" xlink:href="#linear-gradient-4"/><linearGradient id="linear-gradient-46" x1="471.14" y1="531.28" x2="531.62" y2="589.91" xlink:href="#linear-gradient-4"/><radialGradient id="radial-gradient-15" cx="827.94" cy="544.34" r="13.01" gradientTransform="matrix(-1, 0, 0, 1, 1307.09, 0)" xlink:href="#linear-gradient-5"/><radialGradient id="radial-gradient-16" cx="805.24" cy="527.28" r="6.01" gradientTransform="matrix(-1, 0, 0, 1, 1307.09, 0)" xlink:href="#linear-gradient-5"/><radialGradient id="radial-gradient-17" cx="850.82" cy="553.74" r="6.01" gradientTransform="matrix(-1, 0, 0, 1, 1307.09, 0)" xlink:href="#linear-gradient-5"/><linearGradient id="linear-gradient-47" x1="831.23" y1="549.01" x2="824.82" y2="528.51" gradientTransform="matrix(-1, 0, 0, 1, 1307.09, 0)" xlink:href="#linear-gradient-4"/><linearGradient id="linear-gradient-48" x1="272.14" y1="543.63" x2="550.42" y2="543.63" xlink:href="#linear-gradient-2"/><linearGradient id="linear-gradient-49" x1="272.14" y1="526.69" x2="550.42" y2="526.69" xlink:href="#linear-gradient-2"/><radialGradient id="radial-gradient-18" cx="587.07" cy="1396.17" r="130.44" gradientTransform="matrix(0.64, 0, 0, 0.66, -18.33, -492.73)" xlink:href="#radial-gradient-3"/><linearGradient id="linear-gradient-50" x1="592.51" y1="302.66" x2="573.9" y2="236.91" gradientTransform="translate(218.54 -257.49) rotate(30.31)" gradientUnits="userSpaceOnUse"><stop offset="0.04" stop-color="#fff"/><stop offset="0.33" stop-color="#f1f0fb"/><stop offset="0.9" stop-color="#cec7f2"/><stop offset="1" stop-color="#c7c0f0"/></linearGradient><linearGradient id="linear-gradient-51" x1="624.92" y1="420.62" x2="577.78" y2="278.79" gradientUnits="userSpaceOnUse"><stop offset="0.04" stop-color="#c7c0f0"/><stop offset="0.33" stop-color="#d5cff4"/><stop offset="0.9" stop-color="#f8f8fd"/><stop offset="1" stop-color="#fff"/></linearGradient><linearGradient id="linear-gradient-52" x1="613.69" y1="289.98" x2="686.48" y2="289.98" gradientUnits="userSpaceOnUse"><stop offset="0" stop-color="#9f79c8"/><stop offset="0.14" stop-color="#a580cb"/><stop offset="0.33" stop-color="#b492d3"/><stop offset="0.55" stop-color="#cdb0e1"/><stop offset="0.58" stop-color="#d1b4e3"/><stop offset="0.76" stop-color="#dbc4e9"/><stop offset="1" stop-color="#ebdef3"/></linearGradient><radialGradient id="radial-gradient-19" cx="501.09" cy="2090.32" r="5.29" gradientTransform="translate(2005.3 -963.42) rotate(61.68)" gradientUnits="userSpaceOnUse"><stop offset="0.1" stop-color="#8493ba"/><stop offset="0.21" stop-color="#606c90"/><stop offset="0.33" stop-color="#444d6e"/><stop offset="0.43" stop-color="#303756"/><stop offset="0.53" stop-color="#232a47"/><stop offset="0.62" stop-color="#1f2542"/><stop offset="0.71" stop-color="#242a49"/><stop offset="0.83" stop-color="#34395b"/><stop offset="0.98" stop-color="#4d5179"/><stop offset="0.98" stop-color="#4d517a"/></radialGradient><linearGradient id="linear-gradient-53" x1="492.07" y1="2076.34" x2="511.37" y2="2076.34" gradientTransform="translate(2005.3 -963.42) rotate(61.68)" gradientUnits="userSpaceOnUse"><stop offset="0" stop-color="#7d62b8"/><stop offset="0.13" stop-color="#9039b1"/><stop offset="0.25" stop-color="#9f19ab"/><stop offset="0.29" stop-color="#89169c"/><stop offset="0.36" stop-color="#5e1080"/><stop offset="0.43" stop-color="#3c0b6a"/><stop offset="0.5" stop-color="#24085a"/><stop offset="0.56" stop-color="#150650"/><stop offset="0.62" stop-color="#10054d"/><stop offset="0.67" stop-color="#150754"/><stop offset="0.75" stop-color="#230e66"/><stop offset="0.84" stop-color="#391985"/><stop offset="0.93" stop-color="#5526ab"/><stop offset="0.96" stop-color="#4d1ba4"/><stop offset="1" stop-color="#4916a1"/></linearGradient><linearGradient id="linear-gradient-54" x1="491.31" y1="2041.24" x2="511.51" y2="2041.24" xlink:href="#linear-gradient-53"/><linearGradient id="linear-gradient-55" x1="449.17" y1="222.73" x2="485.33" y2="225.19" gradientTransform="translate(698.71 -37.84) rotate(90)" gradientUnits="userSpaceOnUse"><stop offset="0" stop-color="#d6dae6"/><stop offset="0.01" stop-color="#d4d8e6"/><stop offset="0.28" stop-color="#b4b8e3"/><stop offset="0.4" stop-color="#9a9fc8"/><stop offset="0.53" stop-color="#838ab0"/><stop offset="0.65" stop-color="#757da1"/><stop offset="0.76" stop-color="#70789c"/><stop offset="0.85" stop-color="#777ea2"/><stop offset="0.99" stop-color="#898eb3"/><stop offset="1" stop-color="#8b90b5"/></linearGradient><linearGradient id="linear-gradient-56" x1="491.39" y1="1969.77" x2="510.91" y2="1969.77" gradientTransform="translate(2005.3 -963.42) rotate(61.68)" gradientUnits="userSpaceOnUse"><stop offset="0.01" stop-color="#c1a1d5"/><stop offset="0.05" stop-color="#c8abda"/><stop offset="0.11" stop-color="#dac6e6"/><stop offset="0.2" stop-color="#f7f2f9"/><stop offset="0.22" stop-color="#fff"/><stop offset="0.25" stop-color="#f9f5fb"/><stop offset="0.3" stop-color="#e9dbf2"/><stop offset="0.36" stop-color="#d1b4e3"/><stop offset="0.43" stop-color="#b395d6"/><stop offset="0.49" stop-color="#9c7dcb"/><stop offset="0.56" stop-color="#8e6ec5"/><stop offset="0.61" stop-color="#8969c3"/><stop offset="0.76" stop-color="#9471c6"/><stop offset="1" stop-color="#b086cc"/></linearGradient><linearGradient id="linear-gradient-57" x1="413.16" y1="148.86" x2="442.45" y2="150.85" gradientTransform="translate(698.71 -37.84) rotate(90)" xlink:href="#linear-gradient-56"/><radialGradient id="radial-gradient-20" cx="544.32" cy="389.6" r="6.15" gradientUnits="userSpaceOnUse"><stop offset="0" stop-color="#b4299a"/><stop offset="0.12" stop-color="#8a2076"/><stop offset="0.26" stop-color="#601652"/><stop offset="0.4" stop-color="#3e0e35"/><stop offset="0.55" stop-color="#23081e"/><stop offset="0.69" stop-color="#0f030d"/><stop offset="0.84" stop-color="#040103"/><stop offset="1"/></radialGradient><radialGradient id="radial-gradient-21" cx="412.09" cy="295.04" r="34.87" gradientTransform="matrix(0.74, 0.68, -0.26, 0.28, 176.51, 107.77)" gradientUnits="userSpaceOnUse"><stop offset="0"/><stop offset="1" stop-color="#fff"/></radialGradient><radialGradient id="radial-gradient-22" cx="412.42" cy="301.47" r="15.54" xlink:href="#radial-gradient-21"/><radialGradient id="radial-gradient-23" cx="115.63" cy="6258.95" r="21.23" gradientTransform="matrix(1.44, -0.76, 0.1, 0.18, -256.2, -645.11)" gradientUnits="userSpaceOnUse"><stop offset="0" stop-color="#fff"/><stop offset="0.13" stop-color="#ff63ce"/><stop offset="1"/></radialGradient><linearGradient id="linear-gradient-58" x1="434.26" y1="441.25" x2="443.93" y2="458.23" gradientTransform="translate(266.22 -154.59) rotate(28.56)" xlink:href="#linear-gradient-53"/><radialGradient id="radial-gradient-24" cx="440.35" cy="477.89" r="50.21" xlink:href="#radial-gradient-20"/><radialGradient id="radial-gradient-25" cx="926.69" cy="2095.68" r="12.71" gradientTransform="matrix(0.15, 0.19, -0.78, 0.62, 1918.74, -1017.69)" gradientUnits="userSpaceOnUse"><stop offset="0" stop-color="#742a97"/><stop offset="0.04" stop-color="#6a268a"/><stop offset="0.19" stop-color="#4a1b60"/><stop offset="0.35" stop-color="#2f113d"/><stop offset="0.51" stop-color="#1b0a23"/><stop offset="0.67" stop-color="#0c040f"/><stop offset="0.83" stop-color="#030104"/><stop offset="1"/></radialGradient><radialGradient id="radial-gradient-26" cx="984" cy="2029.23" r="12.71" gradientTransform="matrix(0.04, 0.14, -0.82, 0.25, 2042.98, -170.21)" xlink:href="#radial-gradient-25"/><linearGradient id="linear-gradient-59" x1="505.72" y1="188.52" x2="555.73" y2="130.18" gradientUnits="userSpaceOnUse"><stop offset="0" stop-color="#b086cc"/><stop offset="0.04" stop-color="#a37cbd"/><stop offset="0.17" stop-color="#785b8b"/><stop offset="0.3" stop-color="#533f60"/><stop offset="0.44" stop-color="#35283e"/><stop offset="0.57" stop-color="#1e1723"/><stop offset="0.71" stop-color="#0d0a0f"/><stop offset="0.85" stop-color="#030204"/><stop offset="1"/></linearGradient><linearGradient id="linear-gradient-60" x1="572.27" y1="215.86" x2="625.75" y2="189.95" xlink:href="#linear-gradient-52"/><linearGradient id="linear-gradient-61" x1="432.29" y1="223.89" x2="568.96" y2="132" xlink:href="#linear-gradient-52"/><linearGradient id="linear-gradient-62" x1="543.03" y1="101.3" x2="509.5" y2="150.26" xlink:href="#linear-gradient-52"/><radialGradient id="radial-gradient-27" cx="338.22" cy="421.24" r="78.75" gradientTransform="matrix(1, 0, 0, 1, 0, 0)" xlink:href="#radial-gradient"/><radialGradient id="radial-gradient-28" cx="348.61" cy="408.74" r="24.31" gradientTransform="translate(653.96 -33.25) rotate(75.1)" xlink:href="#radial-gradient-8"/></defs><g class="cls-1"><g id="back1"><rect class="cls-2" width="908.27" height="664.47"/><polygon class="cls-3" points="0 664.81 908.27 664.81 908.27 0 221.68 502.55 0 664.81"/><polygon class="cls-4" points="0 518.3 0 664.81 908.27 664.81 0 518.3"/></g><g id="Layer_1" data-name="Layer 1"><ellipse class="cls-5" cx="572.41" cy="310.68" rx="302.2" ry="308.23"/><path class="cls-6" d="M717.23,484.62c0,3.19-2.32,6.55-6.87,9.18l-65.83,62.83c-8.33,4.81-20.93,5.33-28.14,1.17L496.63,488.24c-3.49-2-5.06-4.75-4.83-7.59a2.41,2.41,0,0,0,0,.5v9.05c.05,2.59,1.65,5.07,4.87,6.92l119.76,69.56c7.21,4.16,19.81,3.64,28.14-1.17l65.83-62.83c4.62-2.66,6.95-6.09,6.88-9.33C717.23,492.81,717.33,486.85,717.23,484.62Z"/><g class="cls-7"><path class="cls-8" d="M628.61,565.53a34.57,34.57,0,0,1-17.25-4.16L491.6,491.82c-6.29-3.63-9.9-9.38-9.9-15.76,0-7,4.35-13.53,11.92-17.9l105.1-40.43a42.53,42.53,0,0,1,20.95-5.32,34.53,34.53,0,0,1,17.24,4.15l80.49,47.16c6.29,3.63,9.9,9.38,9.9,15.76,0,7-4.34,13.53-11.92,17.9l-65.83,62.83A42.49,42.49,0,0,1,628.61,565.53Z"/><path class="cls-9" d="M494.08,459l105.1-40.43A41.59,41.59,0,0,1,620,413.34a39.24,39.24,0,0,1,9.09,1.17,33.74,33.74,0,0,1,8,3.22l77.69,45.52c.07,0,2.3,1.35,2.35,1.4,6.15,3.69,9,9.45,8.62,15.67s-5.14,13.43-12,17.4l-64.65,61.7a41.56,41.56,0,0,1-20.43,5.2,33.79,33.79,0,0,1-16.84-4L492.06,491c-6.05-3.49-9.47-9-9.44-15C482.65,469.35,486.81,463.15,494.08,459Z"/><path class="cls-10" d="M494.53,459.74l105.11-40.43a40.67,40.67,0,0,1,20.75-5,39.3,39.3,0,0,1,9,1.3,38.14,38.14,0,0,1,7.88,3.32l77.27,45.27c.14.08,2.22,1.31,2.33,1.41,6,3.74,8,9.46,7.34,15.57-.63,5.7-5.93,13.34-12.13,16.91l-63.45,60.56a40.55,40.55,0,0,1-19.94,5.08,32.85,32.85,0,0,1-16.43-3.91L492.51,490.24c-5.79-3.35-9-8.56-9-14.32C483.6,469.65,487.57,463.76,494.53,459.74Z"/><path class="cls-11" d="M495,460.54l105.1-40.43a39.86,39.86,0,0,1,20.66-4.9,38.6,38.6,0,0,1,8.92,1.45,45.37,45.37,0,0,1,7.79,3.4l76.85,45c.22.13,2.14,1.28,2.3,1.43,5.88,3.8,7.09,9.42,6.07,15.48-.85,5-6.73,13.24-12.23,16.42l-62.27,59.42a39.76,39.76,0,0,1-19.43,5,32,32,0,0,1-16-3.79L493,489.44c-5.55-3.2-8.6-8.15-8.51-13.58C484.55,470,488.34,464.38,495,460.54Z"/><path class="cls-12" d="M495.45,461.33l105.1-40.43a38.89,38.89,0,0,1,20.57-4.75,37.22,37.22,0,0,1,8.83,1.59,51.84,51.84,0,0,1,7.69,3.49L714.06,466c.3.17,2.07,1.24,2.29,1.44,5.74,3.86,7.48,9.77,4.79,15.39,0,4.45-7.52,13.14-12.34,15.92L647.72,557a38.85,38.85,0,0,1-18.92,4.83,31.15,31.15,0,0,1-15.61-3.66L493.43,488.65c-5.3-3.06-8.17-7.74-8.06-12.86C485.49,470.25,489.1,465,495.45,461.33Z"/><path class="cls-13" d="M495.9,462.12,601,421.69a38,38,0,0,1,20.47-4.6,36.69,36.69,0,0,1,8.75,1.72,64.61,64.61,0,0,1,7.59,3.58l76,44.53c.37.21,2,1.2,2.27,1.45,5.6,3.91,6.87,9.87,3.51,15.29,0,3.82-8.32,13-12.45,15.43l-59.88,57.16A38,38,0,0,1,628.84,561a30.36,30.36,0,0,1-15.19-3.54L493.88,487.86c-5.05-2.92-7.73-7.33-7.59-12.14C486.44,470.56,489.86,465.61,495.9,462.12Z"/><path class="cls-14" d="M496.36,462.91l105.11-40.43A37.18,37.18,0,0,1,621.84,418a36.05,36.05,0,0,1,8.66,1.87,80.45,80.45,0,0,1,7.51,3.67l75.57,44.28a23.39,23.39,0,0,1,2.24,1.46c5.47,4,6.27,10,2.24,15.2,0,3.18-9.11,12.95-12.55,14.94l-58.7,56a37.11,37.11,0,0,1-17.92,4.59,29.51,29.51,0,0,1-14.79-3.42L494.34,487.07c-4.8-2.77-7.31-6.92-7.13-11.41C487.39,470.86,490.62,466.22,496.36,462.91Z"/><path class="cls-15" d="M496.82,463.7l105.1-40.43A36.42,36.42,0,0,1,622.2,419a35.6,35.6,0,0,1,8.58,2c1.05.34,6.54,3.25,7.41,3.75l75.15,44a20.8,20.8,0,0,1,2.22,1.46c5.33,4,5.66,10.07,1,15.11,0,2.55-9.9,12.86-12.66,14.45l-57.51,54.89a36.09,36.09,0,0,1-17.41,4.46,28.53,28.53,0,0,1-14.38-3.3L494.8,486.28c-4.56-2.63-6.88-6.52-6.67-10.69C488.34,471.16,491.39,466.84,496.82,463.7Z"/><path class="cls-16" d="M497.28,464.49l105.1-40.43a32.95,32.95,0,0,1,28.68-2c.78.27,6.66,3.47,7.31,3.85l74.73,43.78a18.58,18.58,0,0,1,2.19,1.48c5.2,4.09,5.06,10.17-.31,15,0,1.91-10.7,12.76-12.76,13.95L645.9,553.88A35.31,35.31,0,0,1,629,558.22,27.73,27.73,0,0,1,615,555L495.25,485.49c-4.31-2.49-6.44-6.11-6.21-10C489.28,471.46,492.15,467.45,497.28,464.49Z"/><path class="cls-17" d="M497.73,465.28l105.11-40.43a31.91,31.91,0,0,1,28.49-1.73c.52.19,6.79,3.68,7.22,3.94l74.31,43.53a16.51,16.51,0,0,1,2.17,1.49c5.06,4.14,4.46,10.27-1.59,14.92,0,1.27-11.49,12.67-12.87,13.47l-55.13,52.61A34.27,34.27,0,0,1,629,557.3a26.91,26.91,0,0,1-13.56-3L495.71,484.7c-4.06-2.35-6-5.7-5.75-9.24C490.23,471.76,492.91,468.07,497.73,465.28Z"/><path class="cls-18" d="M498.19,466.08l105.1-40.43a34.11,34.11,0,0,1,20-3.88,33.75,33.75,0,0,1,8.32,2.42c.26.1,6.9,3.91,7.12,4l73.89,43.29a13.81,13.81,0,0,1,2.15,1.5c4.92,4.2,3.85,10.37-2.87,14.83,0,.63-12.29,12.57-13,13L645,552.29a33.38,33.38,0,0,1-15.9,4.1c-4.93.06-9.64-.9-13.15-2.93L496.17,483.9c-3.82-2.2-5.58-5.29-5.29-8.51S493.67,468.68,498.19,466.08Z"/><path d="M616.39,552.67,496.63,483.11c-7.22-4.16-6.31-11.43,2-16.24l105.1-40.43c8.33-4.81,20.93-5.33,28.14-1.17l80.49,47.16c7.21,4.16,6.31,11.43-2,16.24L644.53,551.5C636.2,556.31,623.6,556.83,616.39,552.67Z"/></g><path class="cls-19" d="M616.39,552.5,496.63,483c-3.22-1.86-4.82-4.33-4.87-6.93v-9c.06-3.16,2.39,2.33,6.89-.27l105.1-40.43c8.33-4.81,20.93-5.33,28.14-1.17l80.49,47.16c2.41,1.39,4.15-4.51,4.78-2.63.2.62.07,8.9.08,9.55.07,3.23-2.26,6.66-6.88,9.33l-65.83,62.82C636.2,556.14,623.6,556.66,616.39,552.5Z"/><path class="cls-20" d="M616.39,543.62,496.63,474.07c-7.22-4.17-6.31-11.44,2-16.25l105.1-40.43c8.33-4.81,20.93-5.33,28.14-1.17l80.49,47.16c7.21,4.16,6.31,11.44-2,16.25l-65.83,62.82C636.2,547.26,623.6,547.78,616.39,543.62Z"/><path class="cls-21" d="M712.38,463.38l-80.49-47.16c-7.21-4.16-19.81-3.64-28.14,1.17l-53,20.37a13.1,13.1,0,0,0,1.64,1.13L672.2,508.45a20.3,20.3,0,0,0,5.73,2.12l32.43-30.94C718.69,474.82,719.59,467.54,712.38,463.38Z"/><path class="cls-22" d="M710.36,478.12,644.53,541c-8.33,4.8-20.93,5.33-28.14,1.16L496.63,472.56c-3-1.73-4.57-4-4.82-6.39-.37,2.94,1.2,5.81,4.82,7.9l119.76,69.55c7.21,4.16,19.81,3.64,28.14-1.17l65.83-62.82c4.87-2.82,7.18-6.47,6.83-9.86C716.82,472.71,714.51,475.72,710.36,478.12Z"/><ellipse class="cls-23" cx="634.11" cy="550.51" rx="33.77" ry="39.46" transform="matrix(0.92, -0.38, 0.38, 0.92, -161.66, 282.35)"/><ellipse class="cls-24" cx="603.96" cy="536.39" rx="59.14" ry="145.96" transform="translate(-96.49 938.69) rotate(-71.48)"/><path class="cls-25" d="M770.33,543.76,476.2,373.8c-15-8.68-27.22-32-27.22-52V96.83c0-20,12.19-29.26,27.22-20.58l294.13,170c15,8.68,27.23,32,27.23,52V523.17C797.56,543.22,785.37,552.44,770.33,543.76Z"/><path class="cls-26" d="M773.84,528.1l-290-167.54c-12.1-7.69-19.58-23.05-19.58-38.78V95.35a4.82,4.82,0,0,1,7.27-4.15l.85.49L762.68,259.44c14.41,8.31,19.59,23.06,19.59,38.79V523.94a5.21,5.21,0,0,1-7.79,4.52Z"/><path class="cls-27" d="M762.68,259.44,472.39,91.69l-.85-.49a4.82,4.82,0,0,0-7.27,4.15V321.78c0,15.73,7.48,31.09,19.58,38.78l290,167.54.64.36a5.21,5.21,0,0,0,7.79-4.52V298.23C782.27,282.5,777.09,267.75,762.68,259.44Zm16.53,264.5a2.16,2.16,0,0,1-2.16,2.15,2.13,2.13,0,0,1-1.06-.28L485.38,357.92c-10.92-6.95-18.05-21.16-18.05-36.14V95.35a1.77,1.77,0,0,1,1.77-1.76,1.69,1.69,0,0,1,.89.25L761.15,262.09c14.93,8.6,18.06,24.4,18.06,36.14Z"/><path class="cls-28" d="M778.05,242.1,483.92,72.15C478,68.72,472.47,68.08,468,69.81c-.57.22-8.16,4.26-8.7,4.55l0,0c4.65-2.27,10.54-1.84,16.95,1.86l294.13,170c15,8.68,27.23,32,27.23,52V523.17c0,12.52-4.75,20.81-12,23.16a4.38,4.38,0,0,0,2.38-.81c.35-.2,8.59-4.84,8.91-5.07,5.18-3.63,8.4-11.07,8.4-21.38V294.13C805.28,274.08,793.09,250.79,778.05,242.1Z"/><path class="cls-29" d="M771.64,245.55,477.51,75.6c-6.17-3.56-11.84-4.07-16.4-2.1,3.9-.62,8.37.33,13.13,3.08l294.13,170c15,8.68,27.23,32,27.23,52v225c0,11.83-4.26,19.84-10.83,22.68,8.4-1.33,14.1-10,14.1-23.66V297.57C798.87,277.52,786.68,254.23,771.64,245.55Z"/><ellipse class="cls-30" cx="791.94" cy="267.88" rx="30.82" ry="39.46" transform="translate(-42.38 321.13) rotate(-22.34)"/><ellipse class="cls-31" cx="495.2" cy="174.39" rx="106.23" ry="110.28" transform="translate(-29.12 201.32) rotate(-22.34)"/><circle class="cls-32" cx="749.97" cy="191.52" r="24.31" transform="translate(370.3 866.05) rotate(-74.95)"/><circle class="cls-33" cx="630.06" cy="582.57" r="24.31" transform="translate(-82.4 1060.87) rotate(-76.63)"/><path class="cls-34" d="M834.83,500.49h-1.62V275.54c0-19.76-12-42.78-26.82-51.32L512.26,54.27l.81-1.41,294.13,170c15.23,8.79,27.63,32.44,27.63,52.72Z"/><path class="cls-35" d="M626.08,583.43a25.7,25.7,0,0,1-12.62-2.9L493.7,511l.81-1.41,119.76,69.56c7,4,19.15,3.51,27.24-1.12l65.77-62.76,1.11,1.17-66,62.94A33.47,33.47,0,0,1,626.08,583.43Z"/><polygon class="cls-36" points="504.06 332.46 470.99 313.21 434.48 334.02 434.48 370.35 467.44 389.39 467.44 389.42 467.46 389.4 467.48 389.42 467.48 389.39 504.06 368.79 504.06 332.46"/><g class="cls-37"><polygon class="cls-38" points="467.44 353.37 467.44 389.42 482.42 380.77 482.42 344.44 467.44 353.37"/><polygon class="cls-39" points="467.48 353.37 467.48 389.42 434.48 370.35 434.48 334.02 467.48 353.37"/><polygon class="cls-40" points="434.48 334.02 467.48 353.37 482.42 344.44 449.35 325.19 434.48 334.02"/></g><polygon class="cls-41" points="504.06 285.35 470.99 266.1 434.48 286.91 434.48 323.24 467.44 342.28 467.44 342.3 467.46 342.29 467.48 342.3 467.48 342.28 504.06 321.68 504.06 285.35"/><g class="cls-37"><polygon class="cls-42" points="467.44 306.26 467.44 342.3 482.42 333.65 482.42 297.32 467.44 306.26"/><polygon class="cls-43" points="467.48 306.26 467.48 342.3 434.48 323.24 434.48 286.91 467.48 306.26"/><polygon class="cls-44" points="434.48 286.91 467.48 306.26 482.42 297.32 449.35 278.07 434.48 286.91"/></g><polygon class="cls-45" points="504.06 237.8 470.99 218.54 434.48 239.35 434.48 275.69 467.44 294.73 467.44 294.75 467.46 294.74 467.48 294.75 467.48 294.73 504.06 274.13 504.06 237.8"/><g class="cls-37"><polygon class="cls-46" points="467.44 258.71 467.44 294.75 482.42 286.1 482.42 249.77 467.44 258.71"/><polygon class="cls-47" points="467.48 258.71 467.48 294.75 434.48 275.69 434.48 239.35 467.48 258.71"/><polygon class="cls-48" points="434.48 239.35 467.48 258.71 482.42 249.77 449.35 230.52 434.48 239.35"/></g><polygon class="cls-2" points="460.07 283.59 441.61 272.93 441.61 251.74 460.07 262.4 460.07 283.59"/><path class="cls-2" d="M461.86,320.77c0,6.53-4.61,9.15-10.3,5.87s-10.29-11.24-10.29-17.76,4.61-9.16,10.29-5.87S461.86,314.24,461.86,320.77Z"/><polygon class="cls-2" points="445.21 370.24 439.41 355.36 445.21 347.18 456.82 353.88 462.62 368.76 456.82 376.94 445.21 370.24"/><polygon class="cls-49" points="780.69 429.9 747.62 410.65 711.11 431.46 711.11 467.79 744.06 486.83 744.06 486.86 744.08 486.85 744.11 486.86 744.11 486.83 780.69 466.23 780.69 429.9"/><polygon class="cls-50" points="744.06 450.82 744.06 486.86 759.04 478.21 759.04 441.88 744.06 450.82"/><polygon class="cls-51" points="744.11 450.82 744.11 486.86 711.11 467.79 711.11 431.46 744.11 450.82"/><polygon class="cls-52" points="711.11 431.46 744.11 450.82 759.04 441.88 725.97 422.63 711.11 431.46"/><polygon class="cls-53" points="780.69 364.99 747.62 345.74 711.11 366.55 711.11 402.88 744.06 421.92 744.06 421.94 744.08 421.93 744.11 421.94 744.11 421.92 780.69 401.32 780.69 364.99"/><g class="cls-37"><polygon class="cls-54" points="744.06 385.9 744.06 421.94 759.04 413.29 759.04 376.96 744.06 385.9"/><polygon class="cls-55" points="744.11 385.9 744.11 421.94 711.11 402.88 711.11 366.55 744.11 385.9"/><polygon class="cls-56" points="711.11 366.55 744.11 385.9 759.04 376.96 725.97 357.71 711.11 366.55"/></g><polygon class="cls-57" points="780.69 316.65 747.62 297.4 711.11 318.21 711.11 354.54 744.06 373.58 744.06 373.6 744.08 373.59 744.11 373.6 744.11 373.58 780.69 352.98 780.69 316.65"/><g class="cls-37"><polygon class="cls-58" points="744.06 337.56 744.06 373.6 759.04 364.95 759.04 328.62 744.06 337.56"/><polygon class="cls-59" points="744.11 337.56 744.11 373.6 711.11 354.54 711.11 318.21 744.11 337.56"/><polygon class="cls-60" points="711.11 318.21 744.11 337.56 759.04 328.62 725.97 309.37 711.11 318.21"/></g><polygon class="cls-61" points="780.69 267.15 747.62 247.9 711.11 268.71 711.11 305.04 744.06 324.08 744.06 324.11 744.08 324.1 744.11 324.11 744.11 324.08 780.69 303.48 780.69 267.15"/><polygon class="cls-62" points="744.06 288.07 744.06 324.11 759.04 315.46 759.04 279.13 744.06 288.07"/><polygon class="cls-63" points="744.11 288.07 744.11 324.11 711.11 305.04 711.11 268.71 744.11 288.07"/><polygon class="cls-64" points="711.11 268.71 744.11 288.07 759.04 279.13 725.97 259.88 711.11 268.71"/><path class="cls-2" d="M734.53,334.83l-17.36,9.9L715,354.2l9.25,2.79,17.37-9.9Zm-17.26,15.68.91-4,5.08,8.77-3.93-1.19Zm1.62-4.78,11.34-6.47,5.38,9.29L724.27,355Z"/><path class="cls-2" d="M732.05,308.16l3.46-6.63,4.74-2.7-7.66-13.21-4.73,2.7-7.53-.37a.27.27,0,0,0-.29.22l-4.14,14.06a1,1,0,0,0,.24.84c.2.27.47.39.65.31l.3-.14-.27.19c-.16.11-.19.41-.06.72,0,.05,0,.11.08.16a1,1,0,0,0,.54.47l14.33,3.52A.28.28,0,0,0,732.05,308.16Zm-13.13-4.31,5.05-3.5c.7.79,1.56,1.16,2.15.82s.74-1.8,0-3.07-1.94-2-2.68-1.55-.7,1.26-.37,2.26l-5.59,2.56,3.54-12,6.8.34,6.47,11.16-3.13,6Z"/><path class="cls-2" d="M735.69,398.93l-2.84-4.9a9,9,0,0,1,4.2.14,2.31,2.31,0,0,0,1.69-.19c1.84-1.05,1.58-4.79-.77-7.84-1.28-1.67-3-2.65-4.27-2.48a2.13,2.13,0,0,0-1.78,1.54,9.84,9.84,0,0,1-2,3.69L727.06,384l-2.77,1.58,1.28,2.21-8.06,4.59a3.67,3.67,0,0,0-1.63,3.06l-.2,2.49a.64.64,0,0,1-.12.35l-1.06,1.45a1.24,1.24,0,0,0,.13,1.28c.26.45.68.81,1.07.76l1.58-.21a.6.6,0,0,1,.36.06l2.51,1.15a3.7,3.7,0,0,0,3.4.11l8.09-4.61,1.28,2.2Zm-13,2.56a2.91,2.91,0,0,1-2.7-.08l-2.5-1.15a1.58,1.58,0,0,0-.87-.16l-.52.07.42-.58a1.52,1.52,0,0,0,.28-.83l.2-2.49a2.93,2.93,0,0,1,1.3-2.42l8-4.6,4.43,7.63Z"/><path class="cls-2" d="M737.58,473.48l-4.75-8.2A2.28,2.28,0,0,0,731,464l-1.4-2.4c2.09-2,1.89-6.6-.63-10.93-2.74-4.74-7.2-7.31-9.94-5.74s-2.75,6.67,0,11.41c2.51,4.33,6.45,6.84,9.21,6l1.39,2.4a2.25,2.25,0,0,0,.23,2.24l4.76,8.2c.59,1,1.55,1.58,2.15,1.24l.81-.46C738.18,475.61,738.18,474.5,737.58,473.48Zm-10.3-14.38c-1.81,1-4.75-.66-6.56-3.78s-1.8-6.49,0-7.52,4.75.66,6.56,3.78S729.08,458.07,727.28,459.1Z"/><g class="cls-7"><path class="cls-8" d="M431.12,639.68a21.52,21.52,0,0,1-10.73-2.59l-48.16-93.3c-3.91-2.26-6.15-5.83-6.15-9.81,0-4.35,2.7-8.41,7.41-11.12l28.59-10.47a26.36,26.36,0,0,1,13-3.31,21.5,21.5,0,0,1,10.72,2.58l125.1,76.53c3.91,2.26,6.15,5.83,6.15,9.8,0,4.35-2.7,8.41-7.41,11.13L444.15,636.36A26.39,26.39,0,0,1,431.12,639.68Z"/><path class="cls-9" d="M373.94,523.11l28.37-10.38a23.83,23.83,0,0,1,2.54-1.23,26.89,26.89,0,0,1,10.37-2.09,22.35,22.35,0,0,1,8.9,1.71c.55.25,1.22.59,1.73.89L550,587.93c3.47,2,6.18,5.67,6.43,9.17l0,.27c.37,4.2-2.14,8.28-6.88,11l-104.46,27a28.46,28.46,0,0,1-12.91,3.29,20.39,20.39,0,0,1-11.34-2.29l-47.72-92.45a12.65,12.65,0,0,1-6-9.31c0-.16,0-.32-.05-.47C366.72,529.93,369.2,525.85,373.94,523.11Z"/><path class="cls-10" d="M374.39,523.37l28.14-10.3a25.75,25.75,0,0,1,2.54-1.2,26.37,26.37,0,0,1,10.27-2.12,21.59,21.59,0,0,1,8.82,1.71c.49.22,1.25.62,1.7.89L549,587.68c3.12,1.8,6.34,5.68,6.71,8.81a2.38,2.38,0,0,0,0,.26c.74,4-1.56,8.16-6.34,10.92L446,634.36a30.89,30.89,0,0,1-12.78,3.26,19.77,19.77,0,0,1-12-2L374,544c-3.06-1.77-5.51-6.24-5.89-9.3,0-.15-.06-.3-.08-.45C367.35,530.22,369.62,526.12,374.39,523.37Z"/><path class="cls-11" d="M374.84,523.63l27.92-10.22c.59-.34,1.88-.88,2.53-1.17a26,26,0,0,1,10.17-2.16,21.2,21.2,0,0,1,8.74,1.72c.44.2,1.28.65,1.68.89l122.17,74.73c2.78,1.6,6.53,5.7,7,8.46a1.83,1.83,0,0,0,.08.25c1.11,3.89-1,8-5.81,10.81L447,633.36a34.13,34.13,0,0,1-12.66,3.23c-4.38.82-9.22.26-12.57-1.68l-46.85-90.77c-2.73-1.57-5.31-6.6-5.78-9.3a3,3,0,0,0-.11-.43C368,530.51,370,526.4,374.84,523.63Z"/><path class="cls-12" d="M375.29,523.89,403,513.75c.52-.3,2-.88,2.52-1.13a25.49,25.49,0,0,1,10.08-2.2,20.52,20.52,0,0,1,8.65,1.72c.39.17,1.31.68,1.67.89l121.19,74.13c2.43,1.41,7.21,5.66,7.27,8.11a2.44,2.44,0,0,1,.1.24c1.49,3.74-.43,7.91-5.27,10.7L447.92,632.36c-2.36,1.36-9.55,3.2-12.54,3.2-4.49,1.09-9.7.64-13.19-1.38l-46.42-89.92c-2.38-1.38-5.14-7-5.65-9.3a2.74,2.74,0,0,0-.15-.4C368.59,530.79,370.46,526.67,375.29,523.89Z"/><path class="cls-13" d="M375.73,524.14l27.48-10c.44-.26,2-.89,2.51-1.1a25.17,25.17,0,0,1,10-2.24,20.3,20.3,0,0,1,8.57,1.72c.33.15,1.34.72,1.64.9l120.22,73.54c2.09,1.2,7.5,5.65,7.55,7.76a2.39,2.39,0,0,1,.12.22c1.88,3.58.15,7.78-4.73,10.59L448.86,631.36c-2,1.16-9.85,3.18-12.42,3.18-4.58,1.36-10.17,1-13.8-1.08l-46-89.08c-2.05-1.18-5.44-7.25-5.53-9.3l-.19-.38C369.2,531.08,370.88,526.94,375.73,524.14Z"/><path class="cls-14" d="M376.18,524.4l27.25-10c.37-.21,2.1-.88,2.5-1.06a24.93,24.93,0,0,1,9.88-2.28,19.64,19.64,0,0,1,8.5,1.73c.28.13,1.37.75,1.62.9l119.24,72.94c1.74,1,7.79,5.66,7.83,7.41l.15.21c2.26,3.43.71,7.65-4.2,10.49l-99.15,25.6c-1.68,1-10.16,3.15-12.29,3.15-4.69,1.63-10.65,1.4-14.42-.78L377.54,544.5c-1.7-1-5.33-7.59-5.41-9.31l-.21-.35C369.8,531.37,371.3,527.22,376.18,524.4Z"/><path class="cls-15" d="M376.63,524.66l27-9.9c.29-.17,2.17-.88,2.49-1a24.48,24.48,0,0,1,9.78-2.31,19.08,19.08,0,0,1,8.42,1.73c.22.1,1.4.78,1.6.9L544.22,586.4c1.38.8,8.07,5.65,8.11,7.05l.16.2c2.65,3.27,1.29,7.53-3.66,10.38l-98.08,25.33a63.24,63.24,0,0,1-12.18,3.12c-4.78,1.9-11.12,1.78-15-.48l-45.1-87.38c-1.36-.79-5.22-7.93-5.29-9.31a4.08,4.08,0,0,1-.25-.33C370.39,531.67,371.72,527.49,376.63,524.66Z"/><path class="cls-16" d="M377.08,524.92l26.8-9.82c.23-.12,2.25-.88,2.49-1a24.16,24.16,0,0,1,9.68-2.35,18.86,18.86,0,0,1,8.34,1.73c.17.08,1.42.82,1.57.91l117.3,71.75c1,.6,8.36,5.65,8.39,6.7l.19.19c3,3.11,1.85,7.4-3.13,10.27l-97,25.05a80.73,80.73,0,0,1-12.06,3.1c-4.88,2.18-11.59,2.17-15.65-.18l-44.67-86.53c-1-.59-5.11-8.28-5.16-9.31l-.29-.3C371,532,372.14,527.77,377.08,524.92Z"/><path class="cls-17" d="M377.53,525.17l26.58-9.73c.15-.08,2.31-.89,2.47-1a23.65,23.65,0,0,1,9.59-2.39,18.34,18.34,0,0,1,8.26,1.73c.11,0,1.45.86,1.55.91L542.3,585.89c.69.4,8.65,5.64,8.67,6.35l.21.18c3.42,2.94,2.42,7.26-2.59,10.16l-96,24.77a119.79,119.79,0,0,1-11.93,3.07c-5,2.45-12.07,2.55-16.27.13L380.2,544.86c-.68-.4-5-8.62-5.05-9.31l-.31-.28C371.56,532.28,372.56,528,377.53,525.17Z"/><path class="cls-18" d="M378,525.43l26.35-9.65,2.47-.93a23.22,23.22,0,0,1,9.49-2.43,17.73,17.73,0,0,1,8.18,1.74l1.53.91,115.34,70.56c.35.2,8.94,5.65,8.95,6l.24.17c3.81,2.78,3,7.14-2.06,10.05l-94.89,24.5c-.34.2-11.39,3-11.82,3-5.08,2.71-12.54,2.93-16.88.42L381.08,545a103.23,103.23,0,0,1-4.92-9.3l-.35-.26C372.14,532.6,373,528.32,378,525.43Z"/><path d="M425.33,629.09l-48.16-93.3c-4.49-2.59-3.92-7.11,1.25-10.1L407,515.22c5.18-3,13-3.31,17.5-.72L549.61,591c4.49,2.59,3.92,7.11-1.26,10.1L442.83,628.37C437.65,631.36,429.81,631.68,425.33,629.09Z"/></g><polygon class="cls-65" points="509.07 619.5 367.47 517.84 410.54 497.9 552.14 599.56 509.07 619.5"/><polygon class="cls-66" points="509.07 619.5 367.47 517.84 410.54 497.9 521.06 613.94 509.07 619.5"/><polygon class="cls-67" points="467.51 627.87 360.94 512.9 409.73 497.96 516.29 612.92 467.51 627.87"/><polygon class="cls-68" points="467.51 627.87 360.94 512.9 409.73 497.96 482.61 623.45 467.51 627.87"/><polygon class="cls-69" points="424.86 632.56 356.03 508.48 408.76 498.9 477.59 622.98 424.86 632.56"/><g class="cls-7"><path class="cls-8" d="M438.82,592.46a22.39,22.39,0,0,1-11.19-2.7L280.22,505c-4.08-2.35-6.42-6.08-6.42-10.22,0-4.54,2.82-8.77,7.73-11.61l83.94-48.38a27.51,27.51,0,0,1,13.58-3.45,22.46,22.46,0,0,1,11.19,2.69L537.66,518.8c4.07,2.35,6.41,6.08,6.41,10.22,0,4.54-2.81,8.77-7.72,11.61L452.4,589A27.48,27.48,0,0,1,438.82,592.46Z"/><path class="cls-9" d="M365.94,435.09a27,27,0,0,1,13.55-3.36,26.53,26.53,0,0,1,5.41.65,22.19,22.19,0,0,1,5.68,2.22l147,84.46c4.07,2.35,6.18,6.08,5.91,10.11a11.82,11.82,0,0,1-.59,2.93c-1,3-4,6.23-7.41,8.22l-82.9,47.78a27,27,0,0,1-3.38,1.63,28.4,28.4,0,0,1-10,1.89,22.06,22.06,0,0,1-11-2.61L280.68,504.27c-4.07-2.35-6.17-6.08-5.89-10.12a13.05,13.05,0,0,1,.47-2.54c.9-3.16,4-6.55,7.57-8.62Z"/><path class="cls-10" d="M366.4,435.36a26.41,26.41,0,0,1,13.53-3.26,23.21,23.21,0,0,1,11,3l146.49,84.19c4.05,2.34,5.93,6.06,5.41,10a14.1,14.1,0,0,1-.76,2.79c-1,2.68-4.43,6.1-7.53,7.89l-81.86,47.18a30.07,30.07,0,0,1-3.32,1.63,27.84,27.84,0,0,1-9.86,1.95,21.36,21.36,0,0,1-10.92-2.52L281.15,503.52c-4.07-2.35-5.93-6.09-5.37-10a15.8,15.8,0,0,1,.62-2.41c.91-2.82,4.51-6.44,7.74-8.3Z"/><path class="cls-11" d="M366.87,435.63a25.75,25.75,0,0,1,13.5-3.16,25.19,25.19,0,0,1,5.32.84,29.7,29.7,0,0,1,5.57,2.36l146,83.93c4,2.34,5.71,6,4.91,9.88a16.14,16.14,0,0,1-.92,2.66c-.93,2.35-4.89,6-7.65,7.57L452.8,586.29a34.29,34.29,0,0,1-3.27,1.62,27.63,27.63,0,0,1-9.7,2,21,21,0,0,1-10.8-2.44L281.62,502.76c-4.07-2.35-5.7-6.08-4.85-9.94a18.89,18.89,0,0,1,.78-2.3c.89-2.47,5-6.31,7.89-8Z"/><path class="cls-12" d="M367.34,435.89a24.26,24.26,0,0,1,18.75-2.12,35.34,35.34,0,0,1,5.51,2.44l145.56,83.66c4,2.33,5.48,6,4.4,9.77a22.35,22.35,0,0,1-1.07,2.52c-.89,2-5.36,5.85-7.77,7.24l-79.78,46c-.69.39-2.46,1.32-3.22,1.63a27.07,27.07,0,0,1-9.56,2.07,20.42,20.42,0,0,1-10.66-2.35L282.09,502c-4.07-2.35-5.48-6.07-4.32-9.84a23.62,23.62,0,0,1,.92-2.18c.86-2.14,5.55-6.19,8.06-7.63Z"/><path class="cls-13" d="M367.81,436.16a23.42,23.42,0,0,1,18.68-1.92,43.09,43.09,0,0,1,5.45,2.5L537,520.14c4,2.32,5.27,6,3.9,9.65-.3.81-.83,1.54-1.23,2.38-.83,1.72-5.83,5.73-7.89,6.92l-78.74,45.38c-.59.34-2.51,1.36-3.16,1.63a27,27,0,0,1-9.41,2.14A20,20,0,0,1,430,586L282.55,501.24c-4.05-2.34-5.26-6.06-3.79-9.74a10.45,10.45,0,0,1,1.07-2.07c.47-1.91,6.07-6.06,8.22-7.3Z"/><path class="cls-14" d="M368.28,436.43a22.69,22.69,0,0,1,18.6-1.73,53.82,53.82,0,0,1,5.4,2.58l144.63,83.13c4,2.31,5.06,6,3.39,9.54a10.73,10.73,0,0,1-1.39,2.24c-.44,1.52-6.29,5.6-8,6.59l-77.7,44.79c-.49.28-2.57,1.4-3.11,1.63a26.8,26.8,0,0,1-9.25,2.2,19.67,19.67,0,0,1-10.4-2.18L283,500.48c-4-2.34-5.06-6.05-3.27-9.64a10.56,10.56,0,0,1,1.22-2c.39-1.59,6.59-5.93,8.38-7Z"/><path class="cls-15" d="M368.74,436.7a23.59,23.59,0,0,1,13.38-2.77,23.92,23.92,0,0,1,5.16,1.23c.75.24,4.73,2.3,5.34,2.66l144.16,82.86c4,2.3,4.87,6,2.89,9.42a10.28,10.28,0,0,1-1.55,2.11c-.35,1.22-6.75,5.47-8.12,6.27l-76.66,44.18c-.39.22-2.63,1.44-3.06,1.63a26,26,0,0,1-9.11,2.26,19,19,0,0,1-10.26-2.09L283.49,499.72c-4.05-2.33-4.87-6.05-2.75-9.54a11,11,0,0,1,1.37-1.84c.32-1.28,7.12-5.81,8.55-6.64Z"/><path class="cls-16" d="M369.21,437a23.08,23.08,0,0,1,13.34-2.67,24,24,0,0,1,5.13,1.33c.55.18,4.83,2.46,5.29,2.72l143.69,82.59c4,2.3,4.67,6,2.38,9.31a10.67,10.67,0,0,1-1.71,2c-.26.91-7.21,5.34-8.24,5.94l-75.62,43.58c-.29.17-2.68,1.49-3,1.64a25.93,25.93,0,0,1-9,2.32,18.67,18.67,0,0,1-10.14-2L284,499c-4-2.34-4.68-6.07-2.23-9.46a11.94,11.94,0,0,1,1.52-1.72c.24-1,7.64-5.68,8.71-6.3Z"/><path class="cls-17" d="M369.68,437.24A22.52,22.52,0,0,1,383,434.67a23.25,23.25,0,0,1,5.08,1.42c.37.13,4.93,2.62,5.24,2.8l143.22,82.32c4,2.29,4.5,6,1.88,9.2a11.59,11.59,0,0,1-1.86,1.84c-.18.61-7.68,5.21-8.37,5.61l-74.58,43c-.19.12-2.73,1.54-3,1.64a25.56,25.56,0,0,1-8.8,2.38,18.13,18.13,0,0,1-10-1.92L284.43,498.21c-4-2.33-4.51-6.09-1.7-9.36a11.54,11.54,0,0,1,1.66-1.6c.16-.64,8.16-5.56,8.88-6Z"/><path class="cls-18" d="M370.15,437.51A22,22,0,0,1,383.43,435a23.44,23.44,0,0,1,5,1.52c.18.07,5,2.79,5.18,2.88l142.76,82.05c4,2.29,4.32,6,1.37,9.08a12.52,12.52,0,0,1-2,1.71c-.09.3-8.14,5.08-8.49,5.28l-73.53,42.39c-.1,0-2.79,1.58-2.9,1.63a25,25,0,0,1-8.66,2.45,17.74,17.74,0,0,1-9.87-1.84L284.89,497.45c-4-2.33-4.32-6.11-1.17-9.26a12.09,12.09,0,0,1,1.81-1.49c.08-.32,8.68-5.43,9-5.64Z"/><path d="M432.78,581.43,285.36,496.69c-4.68-2.7-4.09-7.42,1.31-10.53l83.94-48.39c5.41-3.11,13.58-3.45,18.26-.75l147.41,84.73c4.68,2.7,4.09,7.42-1.31,10.54L451,580.67C445.63,583.79,437.45,584.13,432.78,581.43Z"/></g><path class="cls-70" d="M453.26,580.45l83-47.85c3.31-1.9,5-4.45,5-7.12,0-.24,0-5.38,0-5.62-.27-3.09-2.65-1.39-7-3.92L388.8,432.09c-8.55-4.93-21.47-5.47-28.87-1.19l-83,47.85c-3.3,1.9-4.94-1.45-5,1.22,0,.23,0,6.36,0,6.6.27,3.09,2.65,6.3,7.05,8.84l145.41,83.85C432.93,584.19,445.86,584.73,453.26,580.45Z"/><path class="cls-71" d="M453.26,574.83l83-47.85c7.4-4.27,6.48-11.73-2.07-16.66L388.8,426.47c-8.55-4.93-21.47-5.47-28.87-1.19l-83,47.85c-7.4,4.27-6.47,11.73,2.08,16.66l145.41,83.85C432.93,578.57,445.86,579.11,453.26,574.83Z"/><path class="cls-72" d="M536.28,526.25l-83,47.85c-7.4,4.27-20.33,3.73-28.87-1.2L279,489.05c-4.5-2.59-6.89-5.89-7.06-9.05-.19,3.38,2.21,7,7.06,9.79l145.41,83.85c8.54,4.93,21.47,5.47,28.87,1.19l83-47.85c3.51-2,5.14-4.76,5-7.6C541.12,522,539.48,524.4,536.28,526.25Z"/><path class="cls-73" d="M529.49,512.71,384.65,429.2c-6.27-3.62-15.75-4-21.18-.88l-81.29,46.85c-5.43,3.13-4.75,8.61,1.52,12.23l144.84,83.51c6.27,3.62,15.75,4,21.18.88L531,524.94C536.43,521.81,535.75,516.33,529.49,512.71Z"/><path class="cls-74" d="M514,505.27,382.5,429.47c-5.09-2.94-13.36-2.92-18.47,0l-79.81,46c-5.12,2.95-5.14,7.73-.06,10.66L415.6,562Z"/><path d="M504.53,550.42l-11.74,6.78h0a7,7,0,0,1,2.91-5.57l5.91-3.41c1.61-.93,2.92.06,2.92,2.2Z"/><ellipse class="cls-75" cx="364.99" cy="537.51" rx="47.75" ry="117.84" transform="translate(-260.61 712.87) rotate(-71.48)"/><path class="cls-76" d="M462.6,568.09c5.83,14.18.72,29.72-11.42,34.71s-26.7-2.47-32.53-16.65-.71-29.73,11.42-34.71S456.78,553.9,462.6,568.09Z"/><path class="cls-77" d="M287.53,486a.42.42,0,0,1-.36-.21.41.41,0,0,1,.15-.57l3.91-2.3a.42.42,0,0,1,.57.15.41.41,0,0,1-.15.57l-3.92,2.3A.36.36,0,0,1,287.53,486Z"/><path class="cls-77" d="M298.74,492.48a.41.41,0,0,1-.21-.77l3.92-2.3a.41.41,0,0,1,.56.14.41.41,0,0,1-.15.57l-3.91,2.3A.42.42,0,0,1,298.74,492.48Z"/><path class="cls-77" d="M310,498.92a.41.41,0,0,1-.21-.77l3.92-2.3a.42.42,0,0,1,.57.15.42.42,0,0,1-.15.56l-3.92,2.3A.39.39,0,0,1,310,498.92Z"/><path class="cls-77" d="M321.16,505.36a.39.39,0,0,1-.35-.2.42.42,0,0,1,.14-.57l3.92-2.3a.42.42,0,0,1,.42.72l-3.92,2.3A.36.36,0,0,1,321.16,505.36Z"/><path class="cls-77" d="M332.38,511.81a.43.43,0,0,1-.36-.21.4.4,0,0,1,.15-.56l3.91-2.3a.42.42,0,0,1,.57.14.41.41,0,0,1-.15.57l-3.91,2.3A.42.42,0,0,1,332.38,511.81Z"/><path class="cls-77" d="M343.59,518.25a.41.41,0,0,1-.21-.77l3.92-2.3a.4.4,0,0,1,.56.15.41.41,0,0,1-.14.56l-3.92,2.3A.42.42,0,0,1,343.59,518.25Z"/><path class="cls-77" d="M354.8,524.69a.39.39,0,0,1-.35-.2.42.42,0,0,1,.14-.57l3.92-2.3a.42.42,0,0,1,.42.72l-3.92,2.3A.5.5,0,0,1,354.8,524.69Z"/><path class="cls-77" d="M366,531.13a.41.41,0,0,1-.21-.77l3.91-2.3a.42.42,0,0,1,.57.15.41.41,0,0,1-.15.57l-3.92,2.3A.35.35,0,0,1,366,531.13Z"/><path class="cls-77" d="M377.23,537.58a.43.43,0,0,1-.36-.21.41.41,0,0,1,.15-.56l3.92-2.3a.41.41,0,0,1,.56.14.42.42,0,0,1-.14.57l-3.92,2.3A.42.42,0,0,1,377.23,537.58Z"/><path class="cls-77" d="M388.44,544a.41.41,0,0,1-.21-.77l3.92-2.3a.41.41,0,1,1,.42.71l-3.92,2.3A.42.42,0,0,1,388.44,544Z"/><path class="cls-77" d="M399.65,550.46a.39.39,0,0,1-.35-.2.42.42,0,0,1,.14-.57l3.92-2.3a.42.42,0,0,1,.42.72l-3.92,2.3A.5.5,0,0,1,399.65,550.46Z"/><path class="cls-77" d="M410.87,556.91a.42.42,0,0,1-.36-.21.41.41,0,0,1,.15-.57l3.91-2.3a.42.42,0,0,1,.57.15.41.41,0,0,1-.15.57l-3.91,2.3A.42.42,0,0,1,410.87,556.91Z"/><path d="M516.49,519.16h0a10.83,10.83,0,0,0-11.57-.42l-64.86,37.77a4.56,4.56,0,0,0-.29,7.69h0a11.88,11.88,0,0,0,12.7.47l63.71-37.1A5,5,0,0,0,516.49,519.16Z"/><path class="cls-78" d="M516.49,517.27h0a10.83,10.83,0,0,0-11.57-.42l-64.86,37.77a4.56,4.56,0,0,0-.29,7.69h0a11.88,11.88,0,0,0,12.7.47l63.71-37.1A5,5,0,0,0,516.49,517.27Z"/><path d="M495.93,538.68l-13.27-9.07a3.85,3.85,0,0,0-4.09-.15l-16.09,9.37a1.57,1.57,0,0,0-.1,2.65l13.27,9.07a3.83,3.83,0,0,0,4.09.15l16.09-9.37A1.57,1.57,0,0,0,495.93,538.68Z"/><path class="cls-79" d="M495.93,537.65l-13.27-9.07a3.83,3.83,0,0,0-4.09-.15l-16.09,9.37a1.57,1.57,0,0,0-.1,2.65l13.27,9.07a3.85,3.85,0,0,0,4.09.15l16.09-9.37A1.57,1.57,0,0,0,495.93,537.65Z"/><path class="cls-80" d="M462.38,539.54l13.27,9.07a3.83,3.83,0,0,0,4.09.14l16.09-9.37a1.53,1.53,0,0,0,.7-.89,1.55,1.55,0,0,1-.7,1.81l-16.09,9.37a3.85,3.85,0,0,1-4.09-.15l-13.27-9.07a1.57,1.57,0,0,1-.61-1.76A1.6,1.6,0,0,0,462.38,539.54Z"/><polygon class="cls-81" points="508.49 532.01 508.49 530.06 496.06 521.99 495.2 522.45 507.46 530.58 507.46 532.58 508.49 532.01"/><polygon points="507.92 532.47 507.92 530.52 495.49 522.45 494.63 522.9 506.89 531.04 506.89 533.04 507.92 532.47"/><polygon class="cls-82" points="462.91 558.47 462.91 556.52 450.48 548.44 449.62 548.9 461.88 557.03 461.88 559.04 462.91 558.47"/><polygon points="462.34 558.92 462.34 556.98 449.91 548.9 449.05 549.36 461.31 557.49 461.31 559.5 462.34 558.92"/><path class="cls-83" d="M486.84,537.76l-5.63-3.88a2.65,2.65,0,0,0-2.84-.11l-7.11,4.14a1.3,1.3,0,0,0-.08,2.19l5.63,3.88a2.65,2.65,0,0,0,2.84.11l7.1-4.14A1.3,1.3,0,0,0,486.84,537.76Z"/><path class="cls-84" d="M541.26,528.55c-.15,2.57-1.78,5-5,6.85l-35,20.18,4.33,3.12L536.28,541c3.31-1.91,5-4.46,5-7.13C541.28,533.68,541.28,529.65,541.26,528.55Z"/><path class="cls-85" d="M382.83,558.09,279,498.2c-5.24-3-7.6-7-6.94-10.62a2.35,2.35,0,0,0-.12.8c0,.23,0,6.36,0,6.6.27,3.1,2.65,6.3,7,8.84l107.5,62Z"/><ellipse class="cls-86" cx="357.09" cy="434.05" rx="83.42" ry="86.59" transform="translate(-138.18 168.3) rotate(-22.34)"/><path class="cls-87" d="M587.07,295.08c10.22,5.9,18.5,1.18,18.5-10.55s-8.28-26-18.5-31.9-18.5-1.18-18.5,10.54S576.86,289.18,587.07,295.08Zm62.12-5.84c-16.88-9.74-28.89,62.65-47.71,51.78s-25.63-43.11-40.56-51.72c-10.33-6-22.14,36.56-30.51,43.08v.67l158,91.24v-1.78C675.47,399.41,662.14,296.72,649.19,289.24Zm34,4v2.19l-30.81-18.14V274.4L646,270.74v2.79l-24-14.15v-1.7l-5.79-3.35V261l5.79,3.35v-3l23,13.53a9.76,9.76,0,0,0-2.94.41c-6,1.86-10.62,9.52-14.64,17.72l-2.74-1.58a.82.82,0,0,0-.83,0,.79.79,0,0,0-.41.71v7.27a.8.8,0,0,0,.41.71l6.33,3.66a.84.84,0,0,0,.83,0,.84.84,0,0,0,.41-.72v-7.26A.84.84,0,0,0,631,295l-2.16-1.25c3.71-7.56,8.21-15.27,13.69-17a8.13,8.13,0,0,1,3.5-.27V278l6.34,3.65v-1.93c5,4.5,12.14,15.44,16.36,32.86l-1.89-1.09a.8.8,0,0,0-.82,0,.82.82,0,0,0-.42.71v7.27a.83.83,0,0,0,.42.72l6.33,3.65a.77.77,0,0,0,.41.11.74.74,0,0,0,.41-.11.82.82,0,0,0,.42-.71v-7.27a.83.83,0,0,0-.42-.72l-2.46-1.42c-3.28-14.38-9-25.74-14.34-32.2l26.81,15.78v2.55l5.8,3.34v-6.65Zm-53.42,3v5.36l-4.68-2.7v-5.36Zm42.17,20.13v5.35l-4.67-2.7v-5.35Z"/><ellipse class="cls-88" cx="584.59" cy="274.68" rx="15.06" ry="26.08" transform="translate(-58.72 332.58) rotate(-30.31)"/><path class="cls-89" d="M527.93,333.87l158,91.25v-1.78c-13-23.1-26.31-125.79-39.26-133.27-16.88-9.74-28.89,62.64-47.71,51.78s-25.64-43.11-40.56-51.73c-10.33-6-22.14,36.56-30.51,43.09Z"/><path class="cls-90" d="M680.68,294v2.19l-30.81-18.14v-2.86l-6.34-3.65v2.78l-24-14.15v-1.69l-5.8-3.35v6.65l5.8,3.35v-3l23,13.54a9.17,9.17,0,0,0-2.94.41c-6,1.86-10.62,9.51-14.65,17.71l-2.73-1.58a.83.83,0,0,0-1.24.72v7.26a.82.82,0,0,0,.41.72l6.33,3.66a.84.84,0,0,0,.83,0,.84.84,0,0,0,.41-.72v-7.27a.82.82,0,0,0-.41-.71l-2.16-1.25c3.7-7.56,8.21-15.28,13.69-17a8,8,0,0,1,3.5-.27v1.45l6.34,3.66v-1.93c5,4.5,12.14,15.44,16.36,32.85l-1.89-1.08a.83.83,0,0,0-1.24.71v7.27a.82.82,0,0,0,.41.71l6.34,3.66a.82.82,0,0,0,.82,0,.83.83,0,0,0,.42-.72V316.7a.83.83,0,0,0-.42-.72l-2.47-1.42c-3.27-14.38-9-25.74-14.33-32.2l26.81,15.78v2.54l5.8,3.35v-6.65Zm-53.42,8.38-4.68-2.7v-5.36l4.68,2.7Zm42.17,20.12-4.67-2.7v-5.36l4.67,2.7Z"/><path class="cls-2" d="M367.61,489.7a22.82,22.82,0,0,1-11.22-2.7c-3.15-1.82-4.89-4.29-4.89-6.95s1.71-5.08,4.82-6.88a24.56,24.56,0,0,1,22.31,0c3.16,1.82,4.89,4.29,4.89,7s-1.71,5.08-4.82,6.88A22.49,22.49,0,0,1,367.61,489.7Zm-.2-17.54a20.92,20.92,0,0,0-10.26,2.44c-2.58,1.49-4,3.43-4,5.45s1.45,4,4.07,5.52a22.9,22.9,0,0,0,20.65,0c2.58-1.49,4-3.43,4-5.45s-1.44-4-4.07-5.52A21.06,21.06,0,0,0,367.41,472.16Z"/><path class="cls-2" d="M386.2,526.71l-1.46-.5-.07-.5c-.31-2-3.18-6.13-5.95-10.09-4.06-5.79-8.26-11.78-7.51-15.14a2.94,2.94,0,0,1,1.46-2c4-2.33,10-2.24,16.32-2.15,6.95.11,14.12.21,19.36-2.81a3,3,0,0,0,1.58-2c.81-3.6-3.8-10.25-7.5-15.6a.83.83,0,1,1,1.36-.94c4.09,5.9,8.72,12.6,7.76,16.9a4.7,4.7,0,0,1-2.37,3.11c-5.63,3.25-13,3.14-20.21,3-6.08-.09-11.83-.17-15.48,1.92a1.37,1.37,0,0,0-.67.91c-.58,2.65,3.76,8.86,7.25,13.84,2.88,4.11,5.4,7.71,6.09,10.15l71.69-41.39a.83.83,0,0,1,1.13.31.82.82,0,0,1-.3,1.12Z"/><path class="cls-91" d="M405.31,472.52c-1.3.7-5.36,1.7-6.06.4s2.22-4.41,3.52-5.11a2.68,2.68,0,0,1,2.54,4.71Z"/><path class="cls-92" d="M428.29,467.59c6.87-3.62-2.32-21.32-9.83-17s-15.79,15.62-15.79,15.62l0,0c-1,1.15-1.19,2.66-.15,4.58s1.91,2.48,3.91,2.4l0,0S421.41,471.2,428.29,467.59Z"/><path class="cls-93" d="M479.4,439.42,470,422l-51.67,28.63h0l-.07,0c-2.81,1.51-3,6.65-.38,11.47s7,7.5,9.79,6l.06,0h0Z"/><path class="cls-94" d="M479.37,439.44c-2.81,1.51-7.19-1.17-9.79-6s-2.43-10,.38-11.47,7.19,1.17,9.79,6S482.18,437.92,479.37,439.44Z"/><path class="cls-95" d="M552.62,398.07,545,383.93l-75.13,38.2h0l-.07,0c-2.81,1.51-3,6.65-.38,11.47s7,7.5,9.79,6l.07,0h0Z"/><path class="cls-96" d="M552.59,398.09c-2.27,1.22-5.82-.95-7.92-4.86s-2-8.06.3-9.29,5.83.95,7.93,4.86S554.87,396.86,552.59,398.09Z"/><path class="cls-97" d="M545,393.17c-2.11-3.91-2-8.07.3-9.29l.16-.07a2.93,2.93,0,0,0-.75.27c-2.27,1.22-2.41,5.38-.31,9.29s5.5,6,7.77,4.91C549.92,398.77,546.88,396.67,545,393.17Z"/><path class="cls-98" d="M482.62,517.65l-65.34-39s-.55-.3-.78-.39a109.63,109.63,0,0,0-15.08-6.41h0c-1-.35-1.57-.06-1.3,1.19s.77,2,2.26,3.32h0s9.67,8,15.91,12.15a7.28,7.28,0,0,0,1.06.77l.06,0h0L485,528.72Z"/><path class="cls-99" d="M437.52,493l-29.3-17.48s-.25-.14-.35-.18a49,49,0,0,0-6.77-2.87h0c-.46-.16-.23,1.43.44,2h0s4.34,3.59,7.14,5.45a3.54,3.54,0,0,0,.48.34l0,0h0l29.42,17.66Z"/><path class="cls-100" d="M540.67,390.34c1.08,2.06-15.54,13-31.85,21.54s-30.42,13.84-31.5,11.78S488.59,413,504.9,404.42,539.59,388.28,540.67,390.34Z"/><rect class="cls-101" x="415.23" y="440.07" width="53.82" height="5.79" rx="1.25" transform="translate(-157.96 265.25) rotate(-28.56)"/><rect class="cls-102" x="421.06" y="443.6" width="31.52" height="4.29" rx="0.92" transform="translate(-159.94 263.04) rotate(-28.56)"/><path class="cls-103" d="M450.66,438.21a2.09,2.09,0,0,0-.8-.79,1.93,1.93,0,0,1,.29.35,2.14,2.14,0,0,1-.85,2.91l-23.92,13a2.12,2.12,0,0,1-2.11-.08,2.11,2.11,0,0,0,2.62.51l23.91-13A2.13,2.13,0,0,0,450.66,438.21Z"/><path class="cls-104" d="M539.59,387.26,419,451.28a8.53,8.53,0,0,0-.84.62c-7.24,4.7-15.44,14.33-15.44,14.33l0,0c-1,1.15-1.19,2.66-.15,4.58s1.91,2.48,3.91,2.4l0,0s12.53-1.68,19.93-4.73a3.55,3.55,0,0,0,1.31-.39l.06,0h0l119.36-67Z"/><path class="cls-105" d="M423.26,455c6.1-4.8,3.33-8.81-3.44-3.39S404,466.07,404,466.07h0c-1,1-1.55,1.78-1.21,2.2s.86.27,2.41-.67l0,0S417.15,459.84,423.26,455Z"/><path class="cls-106" d="M426.07,467.27c6.38-1.9,5.8-4.77-1.31-2.59s-17.24,6.14-17.24,6.14h0c-1.15.43-1.82.82-1.73,1.13s.55.3,2.07,0h0S419.69,469.18,426.07,467.27Z"/><polygon class="cls-107" points="624.81 161.98 485.5 81.27 434.82 111.37 434.82 158.85 574.02 239.37 574.02 239.39 574.04 239.38 574.06 239.39 574.06 239.37 624.81 209.46 624.81 161.98"/><g class="cls-37"><polygon class="cls-108" points="574.02 192.17 574.02 239.39 587.71 231.49 587.71 184.01 574.02 192.17"/><polygon class="cls-109" points="574.06 192.17 574.06 239.39 434.82 158.85 434.82 111.37 574.06 192.17"/><polygon class="cls-110" points="434.82 111.37 574.06 192.17 587.71 184.01 448.4 103.3 434.82 111.37"/></g><path class="cls-111" d="M304.47,532.14,260,506.49c-10-5.78-15.76-14.7-15.75-24.47,0-9.14,5-17.26,13.67-22.28L402.74,376.5l.82,1.44L258.72,461.17c-8.17,4.72-12.85,12.31-12.85,20.85,0,9.16,5.44,17.56,14.93,23l44.49,25.65Z"/><circle class="cls-112" cx="348.61" cy="408.74" r="24.31" transform="translate(-136.04 640.52) rotate(-75.1)"/></g></g></svg>