<svg xmlns="http://www.w3.org/2000/svg" xmlns:xlink="http://www.w3.org/1999/xlink" viewBox="0 0 392.6 400"><defs><style>.cls-1{isolation:isolate;}.cls-102,.cls-109,.cls-2,.cls-20,.cls-21,.cls-27,.cls-28,.cls-31,.cls-32,.cls-70,.cls-73,.cls-74,.cls-78,.cls-79,.cls-80,.cls-84,.cls-95{mix-blend-mode:color-dodge;}.cls-103,.cls-2,.cls-21,.cls-73{opacity:0.5;}.cls-2{fill:url(#radial-gradient);}.cls-104,.cls-3,.cls-4,.cls-82,.cls-83,.cls-96{opacity:0.2;}.cls-3{fill:url(#linear-gradient);}.cls-5{opacity:0;}.cls-6{opacity:0.09;}.cls-7{opacity:0.18;}.cls-8{opacity:0.27;}.cls-9{opacity:0.36;}.cls-10{opacity:0.45;}.cls-11{opacity:0.55;}.cls-12{opacity:0.64;}.cls-13{opacity:0.73;}.cls-14{opacity:0.82;}.cls-15{opacity:0.91;}.cls-16{fill:url(#linear-gradient-2);}.cls-17{fill:url(#linear-gradient-3);}.cls-18,.cls-24,.cls-64,.cls-66,.cls-85,.cls-96,.cls-97,.cls-99{mix-blend-mode:multiply;}.cls-18{opacity:0.82;fill:url(#linear-gradient-4);}.cls-101,.cls-103,.cls-104,.cls-105,.cls-110,.cls-19,.cls-26,.cls-29,.cls-30,.cls-33,.cls-38,.cls-42,.cls-47,.cls-51,.cls-55,.cls-59,.cls-98{mix-blend-mode:screen;}.cls-19,.cls-26{opacity:0.6;}.cls-19{fill:url(#radial-gradient-2);}.cls-20{fill:url(#radial-gradient-3);}.cls-21{fill:url(#radial-gradient-4);}.cls-22{fill:url(#linear-gradient-5);}.cls-23{fill:url(#linear-gradient-6);}.cls-24{fill:#bcbec0;}.cls-25{fill:url(#linear-gradient-7);}.cls-26{fill:url(#radial-gradient-5);}.cls-27{fill:url(#radial-gradient-6);}.cls-28{fill:url(#radial-gradient-7);}.cls-29{fill:url(#radial-gradient-8);}.cls-30{fill:url(#radial-gradient-9);}.cls-31{fill:url(#radial-gradient-10);}.cls-32{fill:url(#radial-gradient-11);}.cls-33{fill:url(#linear-gradient-8);}.cls-34{opacity:0.9;}.cls-35{fill:url(#linear-gradient-9);}.cls-36{fill:url(#linear-gradient-10);}.cls-37{fill:url(#linear-gradient-11);}.cls-38{fill:url(#linear-gradient-12);}.cls-39{fill:url(#linear-gradient-13);}.cls-40{fill:url(#linear-gradient-14);}.cls-41{fill:url(#linear-gradient-15);}.cls-42{fill:url(#linear-gradient-16);}.cls-43{fill:url(#linear-gradient-17);}.cls-44{fill:url(#linear-gradient-18);}.cls-45{fill:url(#linear-gradient-19);}.cls-46{fill:#fff;}.cls-47{fill:url(#linear-gradient-20);}.cls-48{fill:url(#linear-gradient-21);}.cls-49{fill:url(#linear-gradient-22);}.cls-50{fill:url(#linear-gradient-23);}.cls-51{fill:url(#linear-gradient-24);}.cls-52{fill:url(#linear-gradient-25);}.cls-53{fill:url(#linear-gradient-26);}.cls-54{fill:url(#linear-gradient-27);}.cls-55{fill:url(#linear-gradient-28);}.cls-56{fill:url(#linear-gradient-29);}.cls-57{fill:url(#linear-gradient-30);}.cls-58{fill:url(#linear-gradient-31);}.cls-59{fill:url(#linear-gradient-32);}.cls-60{fill:url(#linear-gradient-33);}.cls-61{fill:url(#linear-gradient-34);}.cls-62{fill:url(#linear-gradient-35);}.cls-63{fill:url(#linear-gradient-36);}.cls-64{fill:url(#linear-gradient-37);}.cls-65{fill:url(#linear-gradient-38);}.cls-66{fill:url(#linear-gradient-39);}.cls-67{fill:url(#linear-gradient-40);}.cls-68{fill:url(#linear-gradient-41);}.cls-69{fill:url(#linear-gradient-42);}.cls-70{fill:url(#radial-gradient-12);}.cls-71{fill:#1f0d3d;}.cls-72{fill:url(#linear-gradient-43);}.cls-73{fill:url(#radial-gradient-13);}.cls-74{fill:url(#radial-gradient-14);}.cls-75{fill:#25054d;}.cls-76{fill:url(#linear-gradient-44);}.cls-77{fill:url(#linear-gradient-45);}.cls-78{fill:url(#radial-gradient-15);}.cls-79{fill:url(#radial-gradient-16);}.cls-80{fill:url(#radial-gradient-17);}.cls-81{fill:url(#linear-gradient-46);}.cls-82{fill:url(#linear-gradient-47);}.cls-83{fill:url(#linear-gradient-48);}.cls-84{fill:url(#radial-gradient-18);}.cls-85{fill:#e6e7e8;}.cls-86{fill:url(#linear-gradient-49);}.cls-87{fill:url(#linear-gradient-50);}.cls-88{fill:url(#linear-gradient-51);}.cls-89{fill:url(#radial-gradient-19);}.cls-90{fill:url(#linear-gradient-52);}.cls-91{fill:url(#linear-gradient-53);}.cls-92{fill:url(#linear-gradient-54);}.cls-93{fill:url(#linear-gradient-55);}.cls-94{fill:url(#linear-gradient-56);}.cls-95{fill:url(#radial-gradient-20);}.cls-96{fill:url(#radial-gradient-21);}.cls-97{opacity:0.3;fill:url(#radial-gradient-22);}.cls-98{fill:url(#radial-gradient-23);}.cls-99{fill:#939598;}.cls-100{fill:url(#linear-gradient-57);}.cls-101{fill:#58595b;}.cls-102{fill:url(#radial-gradient-24);}.cls-103{fill:url(#radial-gradient-25);}.cls-104{fill:url(#radial-gradient-26);}.cls-105{fill:url(#linear-gradient-58);}.cls-106{fill:url(#linear-gradient-59);}.cls-107{fill:url(#linear-gradient-60);}.cls-108{fill:url(#linear-gradient-61);}.cls-109{fill:url(#radial-gradient-27);}.cls-110{fill:url(#radial-gradient-28);}</style><radialGradient id="radial-gradient" cx="211.37" cy="128.73" r="190.47" gradientTransform="translate(7.68 60.5) scale(0.96 0.98)" gradientUnits="userSpaceOnUse"><stop offset="0" stop-color="#fa45c1"/><stop offset="0.21" stop-color="#cb389d"/><stop offset="0.67" stop-color="#571843"/><stop offset="1"/></radialGradient><linearGradient id="linear-gradient" x1="167.15" y1="316.07" x2="310.94" y2="316.07" gradientUnits="userSpaceOnUse"><stop offset="0.06" stop-color="#200041"/><stop offset="0.26" stop-color="#210243"/><stop offset="0.36" stop-color="#25084b"/><stop offset="0.43" stop-color="#2c1358"/><stop offset="0.47" stop-color="#311b61"/><stop offset="0.48" stop-color="#351f65"/><stop offset="0.5" stop-color="#422c73"/><stop offset="0.51" stop-color="#584188"/><stop offset="0.52" stop-color="#765fa7"/><stop offset="0.53" stop-color="#8770b8"/><stop offset="0.54" stop-color="#7e67ae"/><stop offset="0.56" stop-color="#5c468d"/><stop offset="0.59" stop-color="#442e75"/><stop offset="0.61" stop-color="#362066"/><stop offset="0.63" stop-color="#311b61"/><stop offset="0.67" stop-color="#2a1155"/><stop offset="0.75" stop-color="#230446"/><stop offset="0.81" stop-color="#200041"/><stop offset="1" stop-color="#200041"/></linearGradient><linearGradient id="linear-gradient-2" x1="167.15" y1="294.15" x2="310.94" y2="294.15" xlink:href="#linear-gradient"/><linearGradient id="linear-gradient-3" x1="205.63" y1="303.39" x2="270.81" y2="267.33" gradientUnits="userSpaceOnUse"><stop offset="0" stop-color="#311b61"/><stop offset="0.2" stop-color="#290f52"/><stop offset="0.49" stop-color="#200041"/><stop offset="1" stop-color="#0f001f"/></linearGradient><linearGradient id="linear-gradient-4" x1="240.19" y1="286.35" x2="252.99" y2="264.89" gradientUnits="userSpaceOnUse"><stop offset="0" stop-color="#fff"/><stop offset="1"/></linearGradient><radialGradient id="radial-gradient-2" cx="240.62" cy="315.5" r="51.16" gradientUnits="userSpaceOnUse"><stop offset="0" stop-color="#af8afc"/><stop offset="1" stop-color="#10054d"/></radialGradient><radialGradient id="radial-gradient-3" cx="1409.96" cy="892.6" r="35.94" gradientTransform="matrix(0.57, 0, 0, 0.66, -553.12, -261.08)" gradientUnits="userSpaceOnUse"><stop offset="0" stop-color="#972a74"/><stop offset="0.04" stop-color="#8a266a"/><stop offset="0.19" stop-color="#601b4a"/><stop offset="0.35" stop-color="#3d112f"/><stop offset="0.51" stop-color="#230a1b"/><stop offset="0.67" stop-color="#0f040c"/><stop offset="0.83" stop-color="#040103"/><stop offset="1"/></radialGradient><radialGradient id="radial-gradient-4" cx="-1229.56" cy="-4859.72" r="81.65" gradientTransform="matrix(0, 1.08, -0.44, 0, -1898.93, 1651.88)" gradientUnits="userSpaceOnUse"><stop offset="0" stop-color="#4f18ad"/><stop offset="0.29" stop-color="#3a127f"/><stop offset="0.94" stop-color="#05010a"/><stop offset="1"/></radialGradient><linearGradient id="linear-gradient-5" x1="344.19" y1="328.57" x2="124.14" y2="24.07" xlink:href="#linear-gradient-3"/><linearGradient id="linear-gradient-6" x1="153.9" y1="54.4" x2="341.12" y2="335.92" gradientUnits="userSpaceOnUse"><stop offset="0.02" stop-color="#0e0033"/><stop offset="0.07" stop-color="#150645"/><stop offset="0.12" stop-color="#1a0a52"/><stop offset="0.17" stop-color="#1c0b56"/><stop offset="0.24" stop-color="#2e0e54"/><stop offset="0.51" stop-color="#771c4b"/><stop offset="0.74" stop-color="#ad2644"/><stop offset="0.91" stop-color="#ce2d40"/><stop offset="1" stop-color="#db2f3e"/></linearGradient><linearGradient id="linear-gradient-7" x1="390.95" y1="335.18" x2="217.74" y2="58.43" xlink:href="#linear-gradient"/><radialGradient id="radial-gradient-5" cx="341.81" cy="177.57" r="29.48" xlink:href="#radial-gradient-2"/><radialGradient id="radial-gradient-6" cx="1669.28" cy="710.26" r="35.94" gradientTransform="matrix(0.52, 0, 0, 0.66, -522.21, -310.83)" xlink:href="#radial-gradient-3"/><radialGradient id="radial-gradient-7" cx="772.28" cy="528.26" r="100.44" gradientTransform="matrix(0.64, 0, 0, 0.66, -330.1, -246.6)" xlink:href="#radial-gradient-3"/><radialGradient id="radial-gradient-8" cx="317.8" cy="114.41" r="14.7" gradientTransform="translate(345.78 -222.2) rotate(74.95)" gradientUnits="userSpaceOnUse"><stop offset="0.09" stop-color="#c211a1"/><stop offset="0.09" stop-color="#b9109b"/><stop offset="0.13" stop-color="#5b0663"/><stop offset="0.15" stop-color="#510558"/><stop offset="0.21" stop-color="#38043d"/><stop offset="0.29" stop-color="#230226"/><stop offset="0.37" stop-color="#130115"/><stop offset="0.48" stop-color="#080109"/><stop offset="0.62" stop-color="#020002"/><stop offset="1"/></radialGradient><radialGradient id="radial-gradient-9" cx="245.3" cy="350.84" r="14.7" gradientTransform="translate(529.92 31.07) rotate(76.63)" xlink:href="#radial-gradient-8"/><radialGradient id="radial-gradient-10" cx="292.17" cy="146.63" r="117.94" gradientTransform="matrix(1, 0, 0, 1, 0, 0)" xlink:href="#radial-gradient"/><radialGradient id="radial-gradient-11" cx="243.43" cy="326.42" r="48.53" gradientTransform="matrix(1, 0, 0, 1, 0, 0)" xlink:href="#radial-gradient"/><linearGradient id="linear-gradient-8" x1="138.48" y1="217.56" x2="167.67" y2="197.86" gradientUnits="userSpaceOnUse"><stop offset="0" stop-color="#fdd65b"/><stop offset="0.01" stop-color="#f7d159"/><stop offset="0.13" stop-color="#bea144"/><stop offset="0.25" stop-color="#8b7632"/><stop offset="0.37" stop-color="#605223"/><stop offset="0.49" stop-color="#3e3416"/><stop offset="0.62" stop-color="#231d0c"/><stop offset="0.74" stop-color="#0f0d05"/><stop offset="0.87" stop-color="#040301"/><stop offset="1"/></linearGradient><linearGradient id="linear-gradient-9" x1="149.21" y1="221.15" x2="179.5" y2="212.08" gradientUnits="userSpaceOnUse"><stop offset="0.04" stop-color="#c7c0f0"/><stop offset="0.15" stop-color="#b8b2e2"/><stop offset="0.38" stop-color="#8f8fbe"/><stop offset="0.69" stop-color="#4e5684"/><stop offset="1" stop-color="#071844"/></linearGradient><linearGradient id="linear-gradient-10" x1="103.07" y1="224.92" x2="172.46" y2="209.37" xlink:href="#linear-gradient-9"/><linearGradient id="linear-gradient-11" x1="151.63" y1="184.5" x2="140.76" y2="205.2" xlink:href="#linear-gradient-9"/><linearGradient id="linear-gradient-12" x1="138.48" y1="189.08" x2="167.67" y2="169.37" xlink:href="#linear-gradient-9"/><linearGradient id="linear-gradient-13" x1="149.21" y1="192.66" x2="179.5" y2="183.59" xlink:href="#linear-gradient-9"/><linearGradient id="linear-gradient-14" x1="103.07" y1="196.44" x2="172.46" y2="180.88" xlink:href="#linear-gradient-9"/><linearGradient id="linear-gradient-15" x1="151.63" y1="156.02" x2="140.76" y2="176.72" xlink:href="#linear-gradient-9"/><linearGradient id="linear-gradient-16" x1="138.48" y1="160.33" x2="167.67" y2="140.62" xlink:href="#linear-gradient-9"/><linearGradient id="linear-gradient-17" x1="149.21" y1="163.91" x2="179.5" y2="154.84" xlink:href="#linear-gradient-9"/><linearGradient id="linear-gradient-18" x1="103.07" y1="167.69" x2="172.46" y2="152.13" xlink:href="#linear-gradient-9"/><linearGradient id="linear-gradient-19" x1="151.63" y1="127.27" x2="140.76" y2="147.97" xlink:href="#linear-gradient-9"/><linearGradient id="linear-gradient-20" x1="294.3" y1="269.93" x2="336.37" y2="269.93" xlink:href="#linear-gradient-9"/><linearGradient id="linear-gradient-21" x1="318.1" y1="278.86" x2="326.86" y2="285.7" gradientUnits="userSpaceOnUse"><stop offset="0.04" stop-color="#c7c0f0"/><stop offset="0.13" stop-color="#b8b2e2"/><stop offset="0.32" stop-color="#8f8fbe"/><stop offset="0.58" stop-color="#4e5684"/><stop offset="0.84" stop-color="#071844"/></linearGradient><linearGradient id="linear-gradient-22" x1="294.3" y1="276.23" x2="314.25" y2="276.23" xlink:href="#linear-gradient-9"/><linearGradient id="linear-gradient-23" x1="294.3" y1="262.66" x2="323.29" y2="262.66" xlink:href="#linear-gradient-9"/><linearGradient id="linear-gradient-24" x1="305.73" y1="237.23" x2="334.92" y2="217.52" xlink:href="#linear-gradient-9"/><linearGradient id="linear-gradient-25" x1="316.46" y1="240.81" x2="346.75" y2="231.74" xlink:href="#linear-gradient-9"/><linearGradient id="linear-gradient-26" x1="270.32" y1="244.59" x2="339.71" y2="229.03" xlink:href="#linear-gradient-9"/><linearGradient id="linear-gradient-27" x1="318.88" y1="204.17" x2="308.01" y2="224.87" xlink:href="#linear-gradient-9"/><linearGradient id="linear-gradient-28" x1="305.73" y1="208" x2="334.92" y2="188.3" xlink:href="#linear-gradient-9"/><linearGradient id="linear-gradient-29" x1="316.46" y1="211.59" x2="346.75" y2="202.52" xlink:href="#linear-gradient-9"/><linearGradient id="linear-gradient-30" x1="270.32" y1="215.36" x2="339.71" y2="199.81" xlink:href="#linear-gradient-9"/><linearGradient id="linear-gradient-31" x1="318.88" y1="174.94" x2="308.01" y2="195.64" xlink:href="#linear-gradient-9"/><linearGradient id="linear-gradient-32" x1="305.73" y1="178.08" x2="334.92" y2="158.37" gradientUnits="userSpaceOnUse"><stop offset="0" stop-color="#c211a1"/><stop offset="0.01" stop-color="#bd119d"/><stop offset="0.15" stop-color="#8b0c73"/><stop offset="0.29" stop-color="#600850"/><stop offset="0.42" stop-color="#3e0533"/><stop offset="0.56" stop-color="#23031d"/><stop offset="0.7" stop-color="#0f010d"/><stop offset="0.85" stop-color="#040003"/><stop offset="1"/></linearGradient><linearGradient id="linear-gradient-33" x1="316.46" y1="181.66" x2="346.75" y2="172.59" gradientUnits="userSpaceOnUse"><stop offset="0.04" stop-color="#ca1d43"/><stop offset="0.15" stop-color="#bb1b42"/><stop offset="0.38" stop-color="#92143e"/><stop offset="0.7" stop-color="#510a39"/><stop offset="1" stop-color="#0e0033"/></linearGradient><linearGradient id="linear-gradient-34" x1="270.32" y1="185.44" x2="339.71" y2="169.88" gradientUnits="userSpaceOnUse"><stop offset="0.29" stop-color="#ca1d43"/><stop offset="0.33" stop-color="#b81a41"/><stop offset="0.58" stop-color="#3f0737"/><stop offset="0.69" stop-color="#0e0033"/></linearGradient><linearGradient id="linear-gradient-35" x1="313.06" y1="147.71" x2="307.22" y2="170.35" gradientUnits="userSpaceOnUse"><stop offset="0.28" stop-color="#ca1d43"/><stop offset="0.37" stop-color="#bb1b42"/><stop offset="0.54" stop-color="#92143e"/><stop offset="0.78" stop-color="#510a39"/><stop offset="1" stop-color="#0e0033"/></linearGradient><linearGradient id="linear-gradient-36" x1="-3946.97" y1="1390.13" x2="-3943.86" y2="1364.42" gradientTransform="matrix(0.87, 0.5, -1, 0.58, 4937.22, 1513.48)" gradientUnits="userSpaceOnUse"><stop offset="0.03" stop-color="#d4d1d8"/><stop offset="1" stop-color="#eeebf2"/></linearGradient><linearGradient id="linear-gradient-37" x1="-3947.04" y1="1390.24" x2="-3944.28" y2="1367.4" xlink:href="#linear-gradient-36"/><linearGradient id="linear-gradient-38" x1="-3953.78" y1="1398.89" x2="-3947.27" y2="1375.59" xlink:href="#linear-gradient-36"/><linearGradient id="linear-gradient-39" x1="-3954.25" y1="1398.77" x2="-3948.19" y2="1377.07" xlink:href="#linear-gradient-36"/><linearGradient id="linear-gradient-40" x1="-3964.51" y1="1408.75" x2="-3947.12" y2="1379.16" xlink:href="#linear-gradient-36"/><linearGradient id="linear-gradient-41" x1="1318.13" y1="304.35" x2="1480.99" y2="304.35" gradientTransform="translate(-1274.21)" xlink:href="#linear-gradient"/><linearGradient id="linear-gradient-42" x1="83.24" y1="320.53" x2="192.43" y2="241.21" xlink:href="#linear-gradient-3"/><radialGradient id="radial-gradient-12" cx="-553.4" cy="321.25" r="61.47" gradientTransform="matrix(-1, 0, 0, 1, -432.31, 0)" xlink:href="#linear-gradient-4"/><linearGradient id="linear-gradient-43" x1="33.87" y1="297.66" x2="175.11" y2="297.66" gradientUnits="userSpaceOnUse"><stop offset="0.02" stop-color="#0e0033"/><stop offset="0.29" stop-color="#1c0b56"/><stop offset="1" stop-color="#db2f3e"/></linearGradient><radialGradient id="radial-gradient-13" cx="-1356.12" cy="-4753.47" r="65.92" gradientTransform="matrix(0, 1.08, -0.44, 0, -1996.87, 1789.34)" xlink:href="#radial-gradient-4"/><radialGradient id="radial-gradient-14" cx="1208.7" cy="848.03" r="25.29" gradientTransform="matrix(0.53, -0.22, 0.25, 0.61, -718.24, 87.81)" xlink:href="#radial-gradient-3"/><linearGradient id="linear-gradient-44" x1="146.89" y1="317" x2="171.09" y2="346.41" xlink:href="#linear-gradient-3"/><linearGradient id="linear-gradient-45" x1="149.22" y1="319.83" x2="185.78" y2="355.28" xlink:href="#linear-gradient-3"/><radialGradient id="radial-gradient-15" cx="1428.47" cy="327.73" r="7.87" gradientTransform="matrix(-1, 0, 0, 1, 1582.53, 0)" xlink:href="#linear-gradient-4"/><radialGradient id="radial-gradient-16" cx="1414.74" cy="317.41" r="3.63" gradientTransform="matrix(-1, 0, 0, 1, 1582.53, 0)" xlink:href="#linear-gradient-4"/><radialGradient id="radial-gradient-17" cx="1442.3" cy="333.41" r="3.63" gradientTransform="matrix(-1, 0, 0, 1, 1582.53, 0)" xlink:href="#linear-gradient-4"/><linearGradient id="linear-gradient-46" x1="1430.46" y1="330.55" x2="1426.58" y2="318.15" gradientTransform="matrix(-1, 0, 0, 1, 1582.53, 0)" xlink:href="#linear-gradient-3"/><linearGradient id="linear-gradient-47" x1="28.9" y1="327.29" x2="197.15" y2="327.29" xlink:href="#linear-gradient"/><linearGradient id="linear-gradient-48" x1="28.9" y1="317.06" x2="197.15" y2="317.06" xlink:href="#linear-gradient"/><radialGradient id="radial-gradient-18" cx="558.21" cy="699.19" r="78.87" gradientTransform="matrix(0.64, 0, 0, 0.66, -276.71, -203.07)" xlink:href="#radial-gradient-3"/><linearGradient id="linear-gradient-49" x1="222.6" y1="181.6" x2="211.35" y2="141.85" gradientTransform="translate(112.89 -87.41) rotate(30.31)" gradientUnits="userSpaceOnUse"><stop offset="0.04" stop-color="#fff"/><stop offset="0.33" stop-color="#f1f0fb"/><stop offset="0.9" stop-color="#cec7f2"/><stop offset="1" stop-color="#c7c0f0"/></linearGradient><linearGradient id="linear-gradient-50" x1="242.2" y1="252.92" x2="213.7" y2="167.17" gradientUnits="userSpaceOnUse"><stop offset="0.04" stop-color="#c7c0f0"/><stop offset="0.33" stop-color="#d5cff4"/><stop offset="0.9" stop-color="#f8f8fd"/><stop offset="1" stop-color="#fff"/></linearGradient><linearGradient id="linear-gradient-51" x1="235.41" y1="173.93" x2="279.41" y2="173.93" gradientUnits="userSpaceOnUse"><stop offset="0" stop-color="#9f79c8"/><stop offset="0.14" stop-color="#a580cb"/><stop offset="0.33" stop-color="#b492d3"/><stop offset="0.55" stop-color="#cdb0e1"/><stop offset="0.58" stop-color="#d1b4e3"/><stop offset="0.76" stop-color="#dbc4e9"/><stop offset="1" stop-color="#ebdef3"/></linearGradient><radialGradient id="radial-gradient-19" cx="-220.1" cy="2674.5" r="3.2" gradientTransform="translate(2566.74 -792.65) rotate(61.68)" gradientUnits="userSpaceOnUse"><stop offset="0.1" stop-color="#8493ba"/><stop offset="0.21" stop-color="#606c90"/><stop offset="0.33" stop-color="#444d6e"/><stop offset="0.43" stop-color="#303756"/><stop offset="0.53" stop-color="#232a47"/><stop offset="0.62" stop-color="#1f2542"/><stop offset="0.71" stop-color="#242a49"/><stop offset="0.83" stop-color="#34395b"/><stop offset="0.98" stop-color="#4d5179"/><stop offset="0.98" stop-color="#4d517a"/></radialGradient><linearGradient id="linear-gradient-52" x1="-225.55" y1="2666.05" x2="-213.88" y2="2666.05" gradientTransform="translate(2566.74 -792.65) rotate(61.68)" gradientUnits="userSpaceOnUse"><stop offset="0" stop-color="#7d62b8"/><stop offset="0.13" stop-color="#9039b1"/><stop offset="0.25" stop-color="#9f19ab"/><stop offset="0.29" stop-color="#89169c"/><stop offset="0.36" stop-color="#5e1080"/><stop offset="0.43" stop-color="#3c0b6a"/><stop offset="0.5" stop-color="#24085a"/><stop offset="0.56" stop-color="#150650"/><stop offset="0.62" stop-color="#10054d"/><stop offset="0.67" stop-color="#150754"/><stop offset="0.75" stop-color="#230e66"/><stop offset="0.84" stop-color="#391985"/><stop offset="0.93" stop-color="#5526ab"/><stop offset="0.96" stop-color="#4d1ba4"/><stop offset="1" stop-color="#4916a1"/></linearGradient><linearGradient id="linear-gradient-53" x1="-226.01" y1="2644.83" x2="-213.8" y2="2644.83" xlink:href="#linear-gradient-52"/><linearGradient id="linear-gradient-54" x1="-132.69" y1="1239.84" x2="-110.83" y2="1241.33" gradientTransform="translate(1391.99 380) rotate(90)" gradientUnits="userSpaceOnUse"><stop offset="0" stop-color="#d6dae6"/><stop offset="0.01" stop-color="#d4d8e6"/><stop offset="0.28" stop-color="#b4b8e3"/><stop offset="0.4" stop-color="#9a9fc8"/><stop offset="0.53" stop-color="#838ab0"/><stop offset="0.65" stop-color="#757da1"/><stop offset="0.76" stop-color="#70789c"/><stop offset="0.85" stop-color="#777ea2"/><stop offset="0.99" stop-color="#898eb3"/><stop offset="1" stop-color="#8b90b5"/></linearGradient><linearGradient id="linear-gradient-55" x1="-225.96" y1="2601.62" x2="-214.16" y2="2601.62" gradientTransform="translate(2566.74 -792.65) rotate(61.68)" gradientUnits="userSpaceOnUse"><stop offset="0.01" stop-color="#c1a1d5"/><stop offset="0.05" stop-color="#c8abda"/><stop offset="0.11" stop-color="#dac6e6"/><stop offset="0.2" stop-color="#f7f2f9"/><stop offset="0.22" stop-color="#fff"/><stop offset="0.25" stop-color="#f9f5fb"/><stop offset="0.3" stop-color="#e9dbf2"/><stop offset="0.36" stop-color="#d1b4e3"/><stop offset="0.43" stop-color="#b395d6"/><stop offset="0.49" stop-color="#9c7dcb"/><stop offset="0.56" stop-color="#8e6ec5"/><stop offset="0.61" stop-color="#8969c3"/><stop offset="0.76" stop-color="#9471c6"/><stop offset="1" stop-color="#b086cc"/></linearGradient><linearGradient id="linear-gradient-56" x1="-154.46" y1="1195.18" x2="-136.75" y2="1196.38" gradientTransform="translate(1391.99 380) rotate(90)" xlink:href="#linear-gradient-55"/><radialGradient id="radial-gradient-20" cx="193.46" cy="234.17" r="3.72" gradientUnits="userSpaceOnUse"><stop offset="0" stop-color="#b4299a"/><stop offset="0.12" stop-color="#8a2076"/><stop offset="0.26" stop-color="#601652"/><stop offset="0.4" stop-color="#3e0e35"/><stop offset="0.55" stop-color="#23081e"/><stop offset="0.69" stop-color="#0f030d"/><stop offset="0.84" stop-color="#040103"/><stop offset="1"/></radialGradient><radialGradient id="radial-gradient-21" cx="-271.37" cy="185.67" r="21.08" gradientTransform="matrix(0.74, 0.68, -0.26, 0.28, 356.44, 413.7)" gradientUnits="userSpaceOnUse"><stop offset="0"/><stop offset="1" stop-color="#fff"/></radialGradient><radialGradient id="radial-gradient-22" cx="-271.18" cy="189.56" r="9.4" xlink:href="#radial-gradient-21"/><radialGradient id="radial-gradient-23" cx="200.25" cy="2651.35" r="12.83" gradientTransform="matrix(1.44, -0.76, 0.1, 0.18, -370.32, -86.36)" gradientUnits="userSpaceOnUse"><stop offset="0" stop-color="#fff"/><stop offset="0.13" stop-color="#ff63ce"/><stop offset="1"/></radialGradient><linearGradient id="linear-gradient-57" x1="126.93" y1="265.41" x2="132.75" y2="275.63" gradientTransform="translate(143.79 -28.79) rotate(28.56)" xlink:href="#linear-gradient-52"/><radialGradient id="radial-gradient-24" cx="130.6" cy="287.55" r="30.35" xlink:href="#radial-gradient-20"/><radialGradient id="radial-gradient-25" cx="-2417.14" cy="2536.75" r="7.68" gradientTransform="matrix(0.15, 0.19, -0.78, 0.62, 2471.55, -832.87)" gradientUnits="userSpaceOnUse"><stop offset="0" stop-color="#742a97"/><stop offset="0.04" stop-color="#6a268a"/><stop offset="0.19" stop-color="#4a1b60"/><stop offset="0.35" stop-color="#2f113d"/><stop offset="0.51" stop-color="#1b0a23"/><stop offset="0.67" stop-color="#0c040f"/><stop offset="0.83" stop-color="#030104"/><stop offset="1"/></radialGradient><radialGradient id="radial-gradient-26" cx="-4611.67" cy="2825.77" r="7.68" gradientTransform="matrix(0.04, 0.14, -0.82, 0.25, 2631.09, 228.99)" xlink:href="#radial-gradient-25"/><linearGradient id="linear-gradient-58" x1="170.13" y1="112.59" x2="200.36" y2="77.32" gradientUnits="userSpaceOnUse"><stop offset="0" stop-color="#b086cc"/><stop offset="0.04" stop-color="#a37cbd"/><stop offset="0.17" stop-color="#785b8b"/><stop offset="0.3" stop-color="#533f60"/><stop offset="0.44" stop-color="#35283e"/><stop offset="0.57" stop-color="#1e1723"/><stop offset="0.71" stop-color="#0d0a0f"/><stop offset="0.85" stop-color="#030204"/><stop offset="1"/></linearGradient><linearGradient id="linear-gradient-59" x1="210.36" y1="129.12" x2="242.7" y2="113.46" xlink:href="#linear-gradient-51"/><linearGradient id="linear-gradient-60" x1="125.73" y1="133.98" x2="208.36" y2="78.42" xlink:href="#linear-gradient-51"/><linearGradient id="linear-gradient-61" x1="192.68" y1="59.86" x2="172.41" y2="89.46" xlink:href="#linear-gradient-51"/><radialGradient id="radial-gradient-27" cx="68.86" cy="253.3" r="47.61" gradientTransform="matrix(1, 0, 0, 1, 0, 0)" xlink:href="#radial-gradient"/><radialGradient id="radial-gradient-28" cx="75.13" cy="245.74" r="14.7" gradientTransform="translate(293.29 109.94) rotate(75.1)" xlink:href="#radial-gradient-8"/></defs><g class="cls-1"><g id="Layer_1" data-name="Layer 1"><ellipse class="cls-2" cx="210.45" cy="186.45" rx="182.71" ry="186.36"/><path class="cls-3" d="M298,291.62c0,1.93-1.4,4-4.16,5.55l-39.8,38c-5,2.9-12.65,3.22-17,.7l-72.41-42.05c-2.11-1.22-3.06-2.88-2.92-4.59a2.16,2.16,0,0,0,0,.3V295c0,1.57,1,3.07,2.95,4.19L237,341.23c4.36,2.52,12,2.2,17-.7l39.8-38c2.8-1.61,4.21-3.69,4.17-5.64C298,296.57,298.06,293,298,291.62Z"/><g class="cls-4"><path class="cls-5" d="M244.42,340.54A20.82,20.82,0,0,1,234,338l-72.41-42c-3.8-2.2-6-5.67-6-9.53,0-4.23,2.62-8.18,7.2-10.82l63.55-24.44A25.61,25.61,0,0,1,239,248a21,21,0,0,1,10.43,2.51L298.11,279c3.8,2.2,6,5.67,6,9.53,0,4.23-2.62,8.18-7.2,10.82l-39.8,38A25.75,25.75,0,0,1,244.42,340.54Z"/><path class="cls-6" d="M163.09,276.1l63.54-24.45a25.26,25.26,0,0,1,12.61-3.13,23.42,23.42,0,0,1,5.49.71,20.18,20.18,0,0,1,4.83,2l47,27.52s1.39.81,1.42.84a10.1,10.1,0,0,1,5.21,9.48c-.2,3.84-3.1,8.12-7.27,10.52l-39.08,37.3A25.05,25.05,0,0,1,244.45,340a20.37,20.37,0,0,1-10.18-2.43l-72.41-42.06c-3.65-2.11-5.72-5.42-5.7-9.09C156.18,282.39,158.69,278.64,163.09,276.1Z"/><path class="cls-7" d="M163.36,276.58l63.55-24.45a24.65,24.65,0,0,1,12.55-3,21.16,21.16,0,0,1,10.21,2.79l46.71,27.37c.09.05,1.35.8,1.41.86a9.24,9.24,0,0,1,4.44,9.41c-.38,3.44-3.58,8.06-7.33,10.23l-38.36,36.61a24.61,24.61,0,0,1-12.06,3.07,19.85,19.85,0,0,1-9.93-2.36L162.14,295c-3.5-2-5.46-5.17-5.43-8.65C156.75,282.57,159.15,279,163.36,276.58Z"/><path class="cls-8" d="M163.64,277.06l63.55-24.45a24,24,0,0,1,12.49-3,22.75,22.75,0,0,1,5.39.87,26.72,26.72,0,0,1,4.71,2.06l46.46,27.22c.13.07,1.29.77,1.39.86,3.56,2.3,4.29,5.69,3.67,9.36-.51,3-4.07,8-7.4,9.92l-37.64,35.93a24,24,0,0,1-11.75,3,19.34,19.34,0,0,1-9.68-2.29l-72.41-42.06c-3.36-1.93-5.2-4.92-5.15-8.21C157.32,282.75,159.61,279.38,163.64,277.06Z"/><path class="cls-9" d="M163.91,277.53l63.55-24.44a23.56,23.56,0,0,1,12.43-2.87,23.22,23.22,0,0,1,5.35,1,31.78,31.78,0,0,1,4.65,2.11l46.2,27.07c.18.1,1.25.75,1.38.87,3.48,2.33,4.52,5.91,2.9,9.3,0,2.7-4.55,8-7.46,9.63L256,335.4a23.41,23.41,0,0,1-11.44,2.93,18.89,18.89,0,0,1-9.44-2.22l-72.41-42.05c-3.2-1.85-4.94-4.68-4.87-7.78C157.9,282.93,160.08,279.75,163.91,277.53Z"/><path class="cls-10" d="M164.19,278l63.55-24.44a23,23,0,0,1,12.37-2.78,22,22,0,0,1,5.29,1A38.14,38.14,0,0,1,250,254L296,280.92a15.09,15.09,0,0,1,1.36.87c3.39,2.37,4.16,6,2.13,9.25,0,2.31-5,7.89-7.53,9.33l-36.2,34.56a23,23,0,0,1-11.14,2.84,18.26,18.26,0,0,1-9.19-2.14L163,293.58c-3.06-1.77-4.68-4.44-4.59-7.34C158.47,283.11,160.54,280.12,164.19,278Z"/><path class="cls-11" d="M164.47,278.49,228,254.05a21.23,21.23,0,0,1,17.56-1.57,47.78,47.78,0,0,1,4.54,2.22l45.69,26.77c.27.16,1.15.71,1.35.88,3.31,2.4,3.79,6,1.36,9.19,0,1.93-5.51,7.84-7.59,9l-35.49,33.87a22.46,22.46,0,0,1-10.83,2.77,17.84,17.84,0,0,1-8.95-2.07l-72.4-42c-2.91-1.68-4.42-4.19-4.32-6.9C159,283.3,161,280.49,164.47,278.49Z"/><path class="cls-12" d="M164.74,279l63.55-24.44a20.6,20.6,0,0,1,17.45-1.4c.63.21,3.95,2,4.48,2.27L295.66,282a15.54,15.54,0,0,1,1.34.88c3.22,2.44,3.42,6.09.58,9.14,0,1.54-6,7.77-7.66,8.73L255.15,334a21.88,21.88,0,0,1-10.53,2.7,17.18,17.18,0,0,1-8.69-2l-72.41-42.05c-2.75-1.59-4.16-3.94-4-6.46C159.61,283.48,161.46,280.87,164.74,279Z"/><path class="cls-13" d="M165,279.45,228.57,255a21.6,21.6,0,0,1,12.2-2.52,21.25,21.25,0,0,1,5.14,1.3c.47.17,4,2.1,4.42,2.33l45.18,26.47a11.42,11.42,0,0,1,1.33.9c3.14,2.47,3.05,6.14-.2,9.07,0,1.16-6.46,7.72-7.71,8.44l-34.05,32.5a21.34,21.34,0,0,1-10.23,2.63,16.77,16.77,0,0,1-8.44-1.92L163.8,292.14c-2.61-1.5-3.9-3.69-3.76-6S161.92,281.24,165,279.45Z"/><path class="cls-14" d="M165.3,279.93l63.54-24.45a19.34,19.34,0,0,1,17.23-1c.32.12,4.1,2.23,4.37,2.38l44.92,26.33a9.53,9.53,0,0,1,1.32.9c3.06,2.5,2.69,6.21-1,9,0,.77-6.94,7.66-7.78,8.14L254.6,333a20.75,20.75,0,0,1-9.92,2.55,16.35,16.35,0,0,1-8.2-1.84l-72.41-42.06c-2.45-1.41-3.63-3.44-3.47-5.58S162.38,281.61,165.3,279.93Z"/><path class="cls-15" d="M165.57,280.41,229.12,256a18.79,18.79,0,0,1,17.12-.88c.16.06,4.17,2.36,4.31,2.44l44.67,26.17a9.32,9.32,0,0,1,1.3.91c3,2.54,2.33,6.27-1.74,9,0,.39-7.43,7.61-7.84,7.85l-32.62,31.12a20.14,20.14,0,0,1-9.61,2.48,15.83,15.83,0,0,1-8-1.77l-72.41-42.05c-2.31-1.34-3.37-3.2-3.2-5.15S162.84,282,165.57,280.41Z"/><path d="M237,332.76l-72.41-42.05c-4.36-2.52-3.82-6.92,1.22-9.83l63.55-24.44c5-2.91,12.65-3.22,17-.71l48.66,28.52c4.36,2.51,3.82,6.91-1.22,9.82l-39.8,38C249,335,241.4,335.28,237,332.76Z"/></g><path class="cls-16" d="M237,332.66l-72.41-42.05c-1.95-1.13-2.91-2.62-2.95-4.19V281c0-1.91,1.45,1.4,4.17-.17l63.55-24.44c5-2.91,12.65-3.22,17-.71l48.66,28.51c1.46.85,2.51-2.72,2.89-1.59.13.38.05,5.38.06,5.78,0,1.95-1.37,4-4.17,5.64l-39.8,38C249,334.86,241.4,335.18,237,332.66Z"/><path class="cls-17" d="M237,327.29l-72.41-42.05c-4.36-2.52-3.82-6.92,1.22-9.83L229.4,251c5-2.91,12.65-3.22,17-.71l48.66,28.52c4.36,2.51,3.82,6.91-1.22,9.82l-39.8,38C249,329.49,241.4,329.81,237,327.29Z"/><path class="cls-18" d="M295.07,278.78l-48.66-28.52c-4.36-2.51-12-2.2-17,.71l-32,12.32a8.57,8.57,0,0,0,1,.68l72.41,42a12.23,12.23,0,0,0,3.47,1.29l19.6-18.71C298.89,285.69,299.43,281.29,295.07,278.78Z"/><path class="cls-19" d="M293.85,287.69l-39.8,38c-5,2.91-12.65,3.23-17,.71l-72.41-42.06a5.2,5.2,0,0,1-2.91-3.86c-.23,1.78.72,3.52,2.91,4.78L237,327.29c4.36,2.52,12,2.2,17-.71l39.8-38c2.95-1.7,4.34-3.91,4.13-6C297.76,284.41,296.36,286.24,293.85,287.69Z"/><ellipse class="cls-20" cx="247.75" cy="331.46" rx="20.42" ry="23.86" transform="translate(-107.39 119.05) rotate(-22.34)"/><ellipse class="cls-21" cx="229.52" cy="322.92" rx="35.76" ry="88.25" transform="translate(-149.58 437.98) rotate(-71.48)"/><path class="cls-22" d="M330.11,327.37,152.28,224.62c-9.09-5.25-16.46-19.33-16.46-31.46v-136c0-12.12,7.37-17.7,16.46-12.45L330.11,147.47c9.09,5.25,16.46,19.33,16.46,31.45v136C346.57,327.05,339.2,332.62,330.11,327.37Z"/><path class="cls-23" d="M332.23,317.9,156.91,216.61c-7.32-4.65-11.85-13.94-11.85-23.45V56.26a2.92,2.92,0,0,1,4.4-2.51l.51.3L325.49,155.47c8.71,5,11.84,13.95,11.84,23.45V315.39a3.15,3.15,0,0,1-4.71,2.74Z"/><path class="cls-24" d="M325.49,155.47,150,54.05l-.51-.3a2.92,2.92,0,0,0-4.4,2.52V193.16c0,9.51,4.53,18.8,11.85,23.45L332.23,317.9l.39.23a3.15,3.15,0,0,0,4.71-2.74V178.92C337.33,169.42,334.2,160.49,325.49,155.47Zm10,159.92a1.3,1.3,0,0,1-1.31,1.3,1.25,1.25,0,0,1-.64-.17L157.83,215c-6.61-4.2-10.92-12.79-10.92-21.85V56.27A1.08,1.08,0,0,1,148,55.2a1,1,0,0,1,.53.15l176,101.72c9,5.21,10.92,14.76,10.92,21.85Z"/><path class="cls-25" d="M334.78,145,157,42.24c-3.6-2.08-6.93-2.46-9.64-1.42-.34.13-4.93,2.57-5.26,2.75l0,0c2.81-1.37,6.37-1.12,10.25,1.12L330.11,147.47c9.09,5.25,16.46,19.33,16.46,31.45v136c0,7.56-2.87,12.58-7.23,14a2.77,2.77,0,0,0,1.44-.49c.21-.12,5.19-2.93,5.39-3.07,3.12-2.19,5.07-6.69,5.07-12.92v-136C351.24,164.32,343.87,150.24,334.78,145Z"/><path class="cls-26" d="M330.9,147.07,153.07,44.32c-3.73-2.15-7.16-2.46-9.92-1.27a12.19,12.19,0,0,1,7.94,1.86L328.93,147.67c9.09,5.25,16.46,19.33,16.46,31.45v136c0,7.15-2.58,12-6.55,13.71,5.08-.81,8.52-6,8.52-14.31v-136C347.36,166.41,340,152.32,330.9,147.07Z"/><ellipse class="cls-27" cx="343.17" cy="160.58" rx="18.63" ry="23.86" transform="translate(-35.28 142.49) rotate(-22.34)"/><ellipse class="cls-28" cx="163.76" cy="104.05" rx="64.23" ry="66.67" transform="translate(-27.26 70.06) rotate(-22.34)"/><circle class="cls-29" cx="317.8" cy="114.41" r="14.7" transform="translate(124.8 391.61) rotate(-74.95)"/><circle class="cls-30" cx="245.3" cy="350.84" r="14.7" transform="translate(-152.75 508.38) rotate(-76.63)"/><path class="cls-31" d="M369.11,301.21h-1v-136c0-12-7.28-25.87-16.22-31L174.08,31.42l.49-.85L352.4,133.33c9.21,5.32,16.71,19.62,16.71,31.88Z"/><path class="cls-32" d="M242.9,351.36a15.5,15.5,0,0,1-7.63-1.75l-72.41-42.06.49-.84,72.41,42.05c4.2,2.43,11.58,2.12,16.47-.68L292,310.14l.67.71-39.89,38A20.27,20.27,0,0,1,242.9,351.36Z"/><polygon class="cls-33" points="169.12 199.62 149.13 187.98 127.05 200.56 127.05 222.53 146.98 234.04 146.98 234.06 146.99 234.05 147 234.06 147 234.04 169.12 221.59 169.12 199.62"/><g class="cls-34"><polygon class="cls-35" points="146.98 212.26 146.98 234.06 156.04 228.83 156.04 206.86 146.98 212.26"/><polygon class="cls-36" points="147 212.26 147 234.06 127.05 222.53 127.05 200.56 147 212.26"/><polygon class="cls-37" points="127.05 200.56 147 212.26 156.04 206.86 136.04 195.22 127.05 200.56"/></g><polygon class="cls-38" points="169.12 171.14 149.13 159.5 127.05 172.08 127.05 194.04 146.98 205.56 146.98 205.57 146.99 205.56 147 205.57 147 205.56 169.12 193.1 169.12 171.14"/><g class="cls-34"><polygon class="cls-39" points="146.98 183.78 146.98 205.57 156.04 200.34 156.04 178.38 146.98 183.78"/><polygon class="cls-40" points="147 183.78 147 205.57 127.05 194.04 127.05 172.08 147 183.78"/><polygon class="cls-41" points="127.05 172.08 147 183.78 156.04 178.38 136.04 166.74 127.05 172.08"/></g><polygon class="cls-42" points="169.12 142.39 149.13 130.75 127.05 143.33 127.05 165.29 146.98 176.81 146.98 176.82 146.99 176.81 147 176.82 147 176.81 169.12 164.35 169.12 142.39"/><g class="cls-34"><polygon class="cls-43" points="146.98 155.03 146.98 176.82 156.04 171.59 156.04 149.63 146.98 155.03"/><polygon class="cls-44" points="147 155.03 147 176.82 127.05 165.29 127.05 143.33 147 155.03"/><polygon class="cls-45" points="127.05 143.33 147 155.03 156.04 149.63 136.04 137.99 127.05 143.33"/></g><polygon class="cls-46" points="142.53 170.07 131.36 163.63 131.36 150.81 142.53 157.26 142.53 170.07"/><path class="cls-46" d="M143.61,192.55c0,3.95-2.79,5.54-6.23,3.55a13.7,13.7,0,0,1-6.22-10.74c0-3.94,2.78-5.53,6.22-3.55A13.74,13.74,0,0,1,143.61,192.55Z"/><polygon class="cls-46" points="133.54 222.46 130.04 213.47 133.54 208.52 140.56 212.57 144.07 221.57 140.56 226.51 133.54 222.46"/><polygon class="cls-47" points="336.37 258.54 316.38 246.9 294.3 259.48 294.3 281.44 314.23 292.96 314.23 292.97 314.24 292.96 314.25 292.97 314.25 292.96 336.37 280.5 336.37 258.54"/><polygon class="cls-48" points="314.23 271.18 314.23 292.97 323.29 287.74 323.29 265.78 314.23 271.18"/><polygon class="cls-49" points="314.25 271.18 314.25 292.97 294.3 281.44 294.3 259.48 314.25 271.18"/><polygon class="cls-50" points="294.3 259.48 314.25 271.18 323.29 265.78 303.29 254.14 294.3 259.48"/><polygon class="cls-51" points="336.37 219.29 316.38 207.65 294.3 220.23 294.3 242.19 314.23 253.71 314.23 253.72 314.24 253.71 314.25 253.72 314.25 253.71 336.37 241.25 336.37 219.29"/><g class="cls-34"><polygon class="cls-52" points="314.23 231.93 314.23 253.72 323.29 248.49 323.29 226.53 314.23 231.93"/><polygon class="cls-53" points="314.25 231.93 314.25 253.72 294.3 242.19 294.3 220.23 314.25 231.93"/><polygon class="cls-54" points="294.3 220.23 314.25 231.93 323.29 226.53 303.29 214.89 294.3 220.23"/></g><polygon class="cls-55" points="336.37 190.06 316.38 178.42 294.3 191 294.3 212.97 314.23 224.48 314.23 224.5 314.24 224.49 314.25 224.5 314.25 224.48 336.37 212.03 336.37 190.06"/><g class="cls-34"><polygon class="cls-56" points="314.23 202.7 314.23 224.5 323.29 219.27 323.29 197.3 314.23 202.7"/><polygon class="cls-57" points="314.25 202.7 314.25 224.5 294.3 212.97 294.3 191 314.25 202.7"/><polygon class="cls-58" points="294.3 191 314.25 202.7 323.29 197.3 303.29 185.66 294.3 191"/></g><polygon class="cls-59" points="336.37 160.14 316.38 148.5 294.3 161.08 294.3 183.04 314.23 194.56 314.23 194.57 314.24 194.56 314.25 194.57 314.25 194.56 336.37 182.1 336.37 160.14"/><polygon class="cls-60" points="314.23 172.78 314.23 194.57 323.29 189.34 323.29 167.38 314.23 172.78"/><polygon class="cls-61" points="314.25 172.78 314.25 194.57 294.3 183.04 294.3 161.08 314.25 172.78"/><polygon class="cls-62" points="294.3 161.08 314.25 172.78 323.29 167.38 303.29 155.74 294.3 161.08"/><path class="cls-46" d="M308.47,201.05,298,207l-1.3,5.73,5.59,1.68,10.5-6ZM298,210.53l.55-2.43,3.07,5.3-2.37-.72Zm1-2.89,6.85-3.91,3.26,5.62-6.86,3.91Z"/><path class="cls-46" d="M307,184.93l2.09-4,2.86-1.63-4.63-8-2.86,1.63-4.55-.22a.16.16,0,0,0-.18.13l-2.5,8.5a.65.65,0,0,0,.14.51c.13.16.29.24.4.19l.18-.08-.16.11c-.1.07-.11.25,0,.43l0,.1a.59.59,0,0,0,.33.28l8.66,2.13A.16.16,0,0,0,307,184.93ZM299,182.32l3.05-2.11c.42.47.95.7,1.3.49s.45-1.08,0-1.85-1.17-1.2-1.62-.94-.42.76-.22,1.37l-3.38,1.55,2.14-7.26,4.11.2,3.91,6.75-1.89,3.62Z"/><path class="cls-46" d="M309.17,239.81l-1.72-3a5.51,5.51,0,0,1,2.54.08,1.41,1.41,0,0,0,1-.11c1.11-.64,1-2.9-.46-4.74a3.22,3.22,0,0,0-2.58-1.5,1.27,1.27,0,0,0-1.08.93,6.1,6.1,0,0,1-1.24,2.23l-1.7-2.93-1.68.95.78,1.34-4.87,2.77a2.23,2.23,0,0,0-1,1.85l-.12,1.51a.4.4,0,0,1-.07.21l-.65.88a.76.76,0,0,0,.08.77c.16.28.42.49.65.46l.95-.13a.49.49,0,0,1,.23,0l1.51.7a2.24,2.24,0,0,0,2.06.06l4.89-2.79.77,1.33Zm-7.84,1.55a1.78,1.78,0,0,1-1.63-.05l-1.51-.7a1,1,0,0,0-.53-.09l-.31,0,.25-.35a.88.88,0,0,0,.17-.5l.12-1.51a1.75,1.75,0,0,1,.79-1.46l4.87-2.78,2.67,4.61Z"/><path class="cls-46" d="M310.31,284.88l-2.87-4.95a1.39,1.39,0,0,0-1.11-.81l-.84-1.45c1.26-1.19,1.14-4-.38-6.61-1.66-2.86-4.36-4.42-6-3.47s-1.66,4,0,6.9c1.52,2.62,3.9,4.14,5.57,3.65l.84,1.45a1.38,1.38,0,0,0,.14,1.36l2.88,4.95c.36.62.94,1,1.3.76l.49-.28C310.67,286.17,310.67,285.5,310.31,284.88Zm-6.23-8.69c-1.09.62-2.87-.4-4-2.29s-1.09-3.92,0-4.54,2.87.4,4,2.28S305.17,275.57,304.08,276.19Z"/><g class="cls-4"><path class="cls-5" d="M125,385.37a12.9,12.9,0,0,1-6.48-1.57L89.42,327.39a6.84,6.84,0,0,1-3.72-5.93c0-2.63,1.63-5.08,4.48-6.72l17.28-6.33a16,16,0,0,1,7.88-2,13,13,0,0,1,6.48,1.56l75.64,46.27a6.86,6.86,0,0,1,3.72,5.92c0,2.63-1.63,5.09-4.48,6.73l-63.8,16.47A15.91,15.91,0,0,1,125,385.37Z"/><path class="cls-6" d="M90.45,314.89l17.15-6.28a15.2,15.2,0,0,1,1.52-.73,16.06,16.06,0,0,1,6.29-1.27,13.38,13.38,0,0,1,5.36,1,9.65,9.65,0,0,1,1.06.55l75.05,45.9a7.61,7.61,0,0,1,3.89,5.54c0,.06,0,.11,0,.17.23,2.53-1.29,5-4.15,6.66l-63.17,16.31a17.19,17.19,0,0,1-7.79,2,12.24,12.24,0,0,1-6.86-1.38L90,327.46a7.69,7.69,0,0,1-3.64-5.63,2.66,2.66,0,0,0,0-.28C86.07,319,87.59,316.54,90.45,314.89Z"/><path class="cls-7" d="M90.72,315.05l17-6.23c.4-.23,1.08-.53,1.51-.72a16.15,16.15,0,0,1,6.24-1.29,13,13,0,0,1,5.3,1,11.51,11.51,0,0,1,1,.54l74.46,45.55c1.89,1.09,3.83,3.43,4.06,5.33a.8.8,0,0,0,0,.15c.44,2.45-.95,4.93-3.84,6.6L134,382.15a18.64,18.64,0,0,1-7.72,2,11.85,11.85,0,0,1-7.23-1.2L90.49,327.53a8.72,8.72,0,0,1-3.57-5.62,2.33,2.33,0,0,0,0-.28C86.44,319.19,87.84,316.71,90.72,315.05Z"/><path class="cls-8" d="M91,315.2,107.88,309c.35-.2,1.12-.53,1.5-.69a15.73,15.73,0,0,1,6.18-1.32,12.82,12.82,0,0,1,5.26,1c.27.12.78.4,1,.55l73.87,45.18c1.68,1,3.94,3.45,4.23,5.12a.83.83,0,0,0,0,.15c.67,2.35-.6,4.85-3.51,6.53l-61.88,16A20.56,20.56,0,0,1,127,383.5a11.59,11.59,0,0,1-7.6-1L91,327.61c-1.64-1-3.19-4-3.49-5.63a1.29,1.29,0,0,0-.08-.26C86.81,319.37,88.1,316.87,91,315.2Z"/><path class="cls-9" d="M91.26,315.36,108,309.22c.31-.17,1.16-.52,1.5-.67a15.54,15.54,0,0,1,6.11-1.34,12.66,12.66,0,0,1,5.22,1c.23.11.79.42,1,.54l73.28,44.83c1.47.85,4.36,3.42,4.4,4.9,0,.05,0,.1.05.14.91,2.26-.25,4.78-3.18,6.47L135.17,381a23.12,23.12,0,0,1-7.57,1.93,11.45,11.45,0,0,1-8-.84L91.56,327.68c-1.44-.83-3.35-4.18-3.42-5.63a1.86,1.86,0,0,1-.1-.25C87.18,319.54,88.35,317,91.26,315.36Z"/><path class="cls-10" d="M91.54,315.51l16.62-6.08c.26-.15,1.2-.53,1.49-.66a15.34,15.34,0,0,1,6.06-1.35,12.19,12.19,0,0,1,5.16,1c.21.1.82.44,1,.55l72.69,44.46c1.26.73,4.53,3.42,4.56,4.69l.08.14c1.13,2.16.09,4.7-2.86,6.4l-60.6,15.65a26.43,26.43,0,0,1-7.5,1.92,11.42,11.42,0,0,1-8.35-.65l-27.8-53.86c-1.23-.71-3.28-4.38-3.34-5.63l-.13-.23C87.55,319.72,88.61,317.2,91.54,315.51Z"/><path class="cls-11" d="M91.81,315.67l16.48-6c.22-.12,1.26-.52,1.49-.63a14.91,14.91,0,0,1,6-1.38,12,12,0,0,1,5.12,1c.17.08.83.46,1,.55l72.1,44.1c1.05.6,4.71,3.42,4.73,4.48l.09.13c1.37,2.07.43,4.62-2.54,6.33l-60,15.49a31.09,31.09,0,0,1-7.42,1.9,11.4,11.4,0,0,1-8.72-.47L92.63,327.82c-1-.59-3.22-4.59-3.27-5.62l-.15-.23C87.91,319.9,88.86,317.37,91.81,315.67Z"/><path class="cls-12" d="M92.08,315.83l16.35-6c.18-.1,1.3-.53,1.49-.62a14.76,14.76,0,0,1,5.93-1.4,11.57,11.57,0,0,1,5.07,1l1,.55,71.51,43.74c.84.49,4.88,3.42,4.9,4.27l.1.12c1.6,2,.78,4.55-2.21,6.27l-59.32,15.32a37.64,37.64,0,0,1-7.34,1.89c-2.9,1.15-6.72,1.07-9.09-.29L93.16,327.89c-.82-.47-3.15-4.79-3.19-5.62l-.17-.21C88.27,320.07,89.12,317.53,92.08,315.83Z"/><path class="cls-13" d="M92.35,316,108.57,310c.13-.07,1.34-.53,1.48-.59a14.51,14.51,0,0,1,5.88-1.43,11.34,11.34,0,0,1,5,1.05l1,.55L192.82,353c.63.36,5.06,3.41,5.07,4.05l.12.12c1.83,1.88,1.12,4.47-1.89,6.21l-58.68,15.15a49.63,49.63,0,0,1-7.27,1.86c-2.95,1.32-7,1.31-9.46-.1L93.7,328c-.62-.35-3.09-5-3.12-5.62l-.2-.2C88.63,320.25,89.37,317.7,92.35,316Z"/><path class="cls-14" d="M92.62,316.14l16.09-5.89c.09-.05,1.38-.53,1.47-.58a14.41,14.41,0,0,1,5.82-1.45,11.14,11.14,0,0,1,5,1l.93.55,70.33,43c.42.25,5.23,3.42,5.24,3.84l.13.11c2.07,1.78,1.47,4.4-1.56,6.15l-58,15a70.94,70.94,0,0,1-7.2,1.85c-3,1.48-7.29,1.54-9.83.08L94.23,328a32,32,0,0,1-3-5.63l-.21-.19C89,320.44,89.63,317.86,92.62,316.14Z"/><path class="cls-15" d="M92.89,316.29l16-5.84,1.46-.55a14.07,14.07,0,0,1,5.76-1.47,10.79,10.79,0,0,1,4.93,1.05l.92.55,69.74,42.66c.21.12,5.41,3.41,5.41,3.63l.15.1c2.3,1.68,1.8,4.32-1.25,6.08l-57.4,14.82c-.2.11-6.86,1.83-7.11,1.83-3.07,1.64-7.59,1.77-10.21.26l-26.48-51.3a61.84,61.84,0,0,1-3-5.63l-.24-.17C89.36,320.62,89.88,318,92.89,316.29Z"/><path d="M121.52,379,92.4,322.56c-2.71-1.57-2.37-4.3.76-6.11l17.29-6.33c3.13-1.81,7.87-2,10.58-.44L196.66,356c2.71,1.56,2.37,4.3-.76,6.11l-63.8,16.47C129,380.34,124.23,380.53,121.52,379Z"/></g><polygon class="cls-63" points="172.15 373.17 86.54 311.7 112.58 299.65 198.19 361.11 172.15 373.17"/><polygon class="cls-64" points="172.15 373.17 86.54 311.7 112.58 299.65 179.4 369.81 172.15 373.17"/><polygon class="cls-65" points="147.02 378.23 82.59 308.72 112.09 299.68 176.52 369.19 147.02 378.23"/><polygon class="cls-66" points="147.02 378.23 82.59 308.72 112.09 299.68 156.15 375.56 147.02 378.23"/><polygon class="cls-67" points="121.24 381.06 79.62 306.04 111.5 300.25 153.12 375.27 121.24 381.06"/><g class="cls-4"><path class="cls-5" d="M129.68,356.82a13.54,13.54,0,0,1-6.77-1.63L33.78,304a7.17,7.17,0,0,1-3.88-6.18c0-2.75,1.71-5.31,4.68-7l50.75-29.25a16.61,16.61,0,0,1,8.21-2.09,13.54,13.54,0,0,1,6.77,1.63l89.12,51.23a7.16,7.16,0,0,1,3.88,6.18c0,2.75-1.7,5.31-4.67,7l-50.75,29.25A16.61,16.61,0,0,1,129.68,356.82Z"/><path class="cls-6" d="M85.61,261.67a16.38,16.38,0,0,1,8.2-2,16.18,16.18,0,0,1,3.27.39,13.92,13.92,0,0,1,3.43,1.34l88.85,51.07a6.55,6.55,0,0,1,3.58,6.11,7.39,7.39,0,0,1-.37,1.8,10.07,10.07,0,0,1-4.47,4.94L138,354.18a15.34,15.34,0,0,1-2,1,16.86,16.86,0,0,1-6.05,1.15,13.21,13.21,0,0,1-6.68-1.58L34.07,303.5a6.5,6.5,0,0,1-3.57-6.12,8,8,0,0,1,.29-1.53,9.94,9.94,0,0,1,4.57-5.22Z"/><path class="cls-7" d="M85.89,261.83a16.06,16.06,0,0,1,8.18-2,13.84,13.84,0,0,1,6.64,1.84l88.57,50.91a6,6,0,0,1,3.28,6,8.21,8.21,0,0,1-.47,1.71c-.58,1.61-2.67,3.67-4.53,4.74l-49.51,28.54a19.71,19.71,0,0,1-2,1,17,17,0,0,1-6,1.18,12.92,12.92,0,0,1-6.6-1.53L34.35,303A5.93,5.93,0,0,1,31.1,297a8.25,8.25,0,0,1,.38-1.46c.55-1.71,2.72-3.89,4.67-5Z"/><path class="cls-8" d="M86.18,262a15.49,15.49,0,0,1,8.16-1.91,14.85,14.85,0,0,1,3.22.51,17.48,17.48,0,0,1,3.36,1.42l88.29,50.75a5.46,5.46,0,0,1,3,6,9.54,9.54,0,0,1-.56,1.63c-.57,1.41-3,3.59-4.61,4.54l-48.88,28.18a21.25,21.25,0,0,1-2,1,16.85,16.85,0,0,1-5.87,1.22,12.64,12.64,0,0,1-6.53-1.48L34.63,302.58a5.41,5.41,0,0,1-2.93-6,12.64,12.64,0,0,1,.47-1.39c.54-1.5,3-3.81,4.77-4.81Z"/><path class="cls-9" d="M86.46,262.16a14.66,14.66,0,0,1,11.34-1.28,21.23,21.23,0,0,1,3.32,1.46l88,50.59c2.44,1.41,3.32,3.63,2.67,5.9a12,12,0,0,1-.66,1.55c-.54,1.22-3.22,3.51-4.67,4.34l-48.26,27.82c-.41.24-1.48.79-1.94,1a16.56,16.56,0,0,1-5.78,1.26,12.48,12.48,0,0,1-6.45-1.42L34.92,302.13c-2.46-1.42-3.32-3.67-2.62-5.95.14-.45.37-.87.56-1.32.52-1.29,3.35-3.74,4.86-4.61Z"/><path class="cls-10" d="M86.74,262.32a15,15,0,0,1,8.12-1.79,14.69,14.69,0,0,1,3.18.63,26,26,0,0,1,3.29,1.51l87.73,50.42c2.42,1.4,3.18,3.62,2.36,5.83a14.75,14.75,0,0,1-.76,1.47c-.5,1-3.49,3.43-4.73,4.15L138.29,352c-.35.2-1.52.82-1.91,1a16.27,16.27,0,0,1-5.69,1.3,12.13,12.13,0,0,1-6.36-1.37L35.2,301.67c-2.46-1.42-3.18-3.67-2.3-5.89a6,6,0,0,1,.65-1.25c.29-1.16,3.66-3.66,5-4.41Z"/><path class="cls-11" d="M87,262.48a14.54,14.54,0,0,1,8.1-1.73,15,15,0,0,1,3.15.69,32.44,32.44,0,0,1,3.25,1.55L189,313.26c2.42,1.39,3.06,3.6,2.06,5.75a6,6,0,0,1-.85,1.39c-.27.91-3.77,3.35-4.81,4l-47,27.09c-.29.17-1.55.85-1.87,1a16.07,16.07,0,0,1-5.6,1.33,11.87,11.87,0,0,1-6.29-1.32L35.48,301.21c-2.45-1.42-3.06-3.66-2-5.83a6.25,6.25,0,0,1,.74-1.18c.24-1,4-3.58,5.06-4.21Z"/><path class="cls-12" d="M87.31,262.65A14.24,14.24,0,0,1,95.39,261a14.64,14.64,0,0,1,3.13.75c.45.14,2.85,1.38,3.22,1.59l87.17,50.11c2.4,1.39,2.94,3.59,1.76,5.68a6.05,6.05,0,0,1-1,1.3c-.21.74-4,3.28-4.87,3.76l-46.39,26.73c-.23.14-1.58.88-1.84,1a16,16,0,0,1-5.51,1.37,11.59,11.59,0,0,1-6.21-1.27L35.76,300.75c-2.44-1.41-2.94-3.66-1.66-5.77a6.05,6.05,0,0,1,.83-1.11c.19-.78,4.29-3.51,5.15-4Z"/><path class="cls-13" d="M87.59,262.81a14,14,0,0,1,8.07-1.62,14.35,14.35,0,0,1,3.1.81c.33.11,2.9,1.48,3.18,1.64l86.89,49.94c2.4,1.39,2.83,3.59,1.46,5.61a6.2,6.2,0,0,1-1,1.22c-.16.55-4.32,3.2-4.94,3.56l-45.77,26.38c-.17.1-1.62.9-1.81,1a15.77,15.77,0,0,1-5.42,1.41,11.28,11.28,0,0,1-6.12-1.22L36.05,300.29c-2.45-1.41-2.83-3.67-1.35-5.71a6.3,6.3,0,0,1,.92-1c.14-.58,4.6-3.43,5.25-3.8Z"/><path class="cls-14" d="M87.87,263a13.71,13.71,0,0,1,8-1.55,13.86,13.86,0,0,1,3.08.86c.22.08,3,1.57,3.15,1.68l86.6,49.78c2.4,1.38,2.72,3.59,1.16,5.55a6.86,6.86,0,0,1-1.15,1.13c-.11.37-4.59,3.12-5,3.36l-45.14,26c-.12.07-1.65.93-1.78,1a15.27,15.27,0,0,1-5.32,1.45,10.94,10.94,0,0,1-6-1.17L36.33,299.83c-2.44-1.41-2.72-3.68-1-5.65a7.2,7.2,0,0,1,1-1c.09-.39,4.91-3.35,5.35-3.6Z"/><path class="cls-15" d="M88.16,263.13a12.06,12.06,0,0,1,11.07-.57c.12,0,3,1.67,3.12,1.72l86.33,49.62c2.38,1.38,2.61,3.6.85,5.48a7.35,7.35,0,0,1-1.24,1.05c-.06.18-4.87,3-5.08,3.16l-44.52,25.66-1.74,1a15.53,15.53,0,0,1-5.24,1.48,10.77,10.77,0,0,1-6-1.11L36.61,299.38c-2.44-1.41-2.61-3.7-.71-5.6a7.26,7.26,0,0,1,1.1-.9c0-.2,5.23-3.27,5.44-3.4Z"/><path d="M126,350.15,36.9,298.92c-2.83-1.64-2.48-4.49.79-6.37l50.75-29.26c3.27-1.88,8.21-2.09,11-.45l89.13,51.23c2.83,1.63,2.48,4.48-.79,6.37l-50.75,29.25C133.79,351.58,128.85,351.78,126,350.15Z"/></g><path class="cls-68" d="M138.41,349.56l50.2-28.93c2-1.15,3-2.69,3-4.31,0-.14,0-3.25,0-3.39-.17-1.87-1.6-.84-4.26-2.38L99.43,259.86c-5.16-3-13-3.31-17.45-.72l-50.2,28.93c-2,1.15-3-.88-3,.73,0,.14,0,3.85,0,4,.16,1.88,1.6,3.82,4.25,5.35L121,348.84C126.12,351.82,133.93,352.14,138.41,349.56Z"/><path class="cls-69" d="M138.41,346.16l50.2-28.93c4.47-2.58,3.91-7.09-1.26-10.07l-87.92-50.7c-5.16-3-13-3.3-17.45-.72l-50.2,28.93c-4.47,2.58-3.91,7.09,1.25,10.07L121,345.44C126.12,348.42,133.93,348.74,138.41,346.16Z"/><path class="cls-70" d="M188.61,316.79l-50.2,28.93C133.93,348.3,126.12,348,121,345L33,294.3c-2.71-1.57-4.16-3.56-4.26-5.48-.11,2.05,1.33,4.23,4.26,5.92L121,345.44c5.17,3,13,3.3,17.46.72l50.2-28.93c2.11-1.22,3.1-2.88,3-4.6A5.3,5.3,0,0,1,188.61,316.79Z"/><path class="cls-71" d="M184.49,308.6,96.93,258.11c-3.79-2.19-9.53-2.42-12.81-.53L35,285.9c-3.28,1.9-2.87,5.21.92,7.4l87.57,50.49c3.79,2.19,9.52,2.42,12.81.53L185.41,316C188.7,314.1,188.28,310.79,184.49,308.6Z"/><path class="cls-72" d="M175.11,304.1,95.62,258.27a12.36,12.36,0,0,0-11.16,0L36.2,286.1c-3.09,1.78-3.11,4.67,0,6.45l79.47,45.82Z"/><path d="M169.4,331.4l-7.09,4.1h0a4.21,4.21,0,0,1,1.76-3.36l3.57-2.07c1-.56,1.76,0,1.76,1.33Z"/><ellipse class="cls-73" cx="85.04" cy="323.59" rx="28.87" ry="71.25" transform="translate(-248.81 301.45) rotate(-71.48)"/><path class="cls-74" d="M144.06,342.08c3.52,8.58.43,18-6.91,21S121,361.58,117.48,353s-.43-18,6.91-21S140.53,333.51,144.06,342.08Z"/><path class="cls-75" d="M38.2,292.47a.24.24,0,0,1-.21-.12.25.25,0,0,1,.09-.34l2.37-1.39a.25.25,0,0,1,.25.43l-2.37,1.39A.28.28,0,0,1,38.2,292.47Z"/><path class="cls-75" d="M45,296.37a.24.24,0,0,1-.21-.12.26.26,0,0,1,.09-.35l2.36-1.39a.26.26,0,0,1,.35.09.25.25,0,0,1-.09.34l-2.37,1.39A.2.2,0,0,1,45,296.37Z"/><path class="cls-75" d="M51.76,300.26a.24.24,0,0,1-.21-.12.25.25,0,0,1,.09-.34L54,298.41a.26.26,0,0,1,.35.09.25.25,0,0,1-.09.34l-2.37,1.39A.28.28,0,0,1,51.76,300.26Z"/><path class="cls-75" d="M58.54,304.16a.24.24,0,0,1-.21-.12.26.26,0,0,1,.09-.35l2.36-1.39a.26.26,0,0,1,.35.09.25.25,0,0,1-.09.34l-2.37,1.4A.28.28,0,0,1,58.54,304.16Z"/><path class="cls-75" d="M65.32,308.05a.24.24,0,0,1-.21-.12.25.25,0,0,1,.08-.34l2.37-1.39a.26.26,0,0,1,.35.09.25.25,0,0,1-.09.34L65.45,308A.31.31,0,0,1,65.32,308.05Z"/><path class="cls-75" d="M72.1,312a.25.25,0,0,1-.22-.12.26.26,0,0,1,.09-.35l2.37-1.39a.25.25,0,0,1,.34.09.27.27,0,0,1-.08.35l-2.37,1.39A.31.31,0,0,1,72.1,312Z"/><path class="cls-75" d="M78.88,315.85a.26.26,0,0,1-.22-.13.25.25,0,0,1,.09-.34L81.12,314a.25.25,0,0,1,.34.09.25.25,0,0,1-.08.34L79,315.81A.33.33,0,0,1,78.88,315.85Z"/><path class="cls-75" d="M85.66,319.74a.25.25,0,0,1-.22-.12.25.25,0,0,1,.09-.34l2.37-1.4a.25.25,0,0,1,.34.09.26.26,0,0,1-.09.35l-2.36,1.39A.31.31,0,0,1,85.66,319.74Z"/><path class="cls-75" d="M92.44,323.64a.26.26,0,0,1-.22-.13.25.25,0,0,1,.09-.34l2.37-1.39a.25.25,0,0,1,.25.43l-2.36,1.39A.22.22,0,0,1,92.44,323.64Z"/><path class="cls-75" d="M99.22,327.53a.25.25,0,0,1-.22-.12.25.25,0,0,1,.09-.34l2.37-1.39a.24.24,0,0,1,.34.08.26.26,0,0,1-.09.35l-2.37,1.39Z"/><path class="cls-75" d="M106,331.43a.26.26,0,0,1-.22-.13.25.25,0,0,1,.09-.34l2.37-1.39a.25.25,0,0,1,.25.43l-2.37,1.39A.19.19,0,0,1,106,331.43Z"/><path class="cls-75" d="M112.78,335.32a.25.25,0,0,1-.22-.12.25.25,0,0,1,.09-.34l2.37-1.39a.25.25,0,0,1,.34.08.26.26,0,0,1-.09.35l-2.37,1.39Z"/><path d="M176.64,312.5h0a6.56,6.56,0,0,0-7-.26l-39.21,22.84a2.76,2.76,0,0,0-.18,4.65h0a7.2,7.2,0,0,0,7.68.29l38.52-22.44A3,3,0,0,0,176.64,312.5Z"/><path class="cls-76" d="M176.64,311.36h0a6.56,6.56,0,0,0-7-.26l-39.21,22.84a2.76,2.76,0,0,0-.18,4.65h0a7.18,7.18,0,0,0,7.68.28l38.52-22.43A3,3,0,0,0,176.64,311.36Z"/><path d="M164.2,324.3l-8-5.48a2.3,2.3,0,0,0-2.47-.09L144,324.4a1,1,0,0,0-.06,1.6l8,5.48a2.32,2.32,0,0,0,2.47.09l9.73-5.67A.94.94,0,0,0,164.2,324.3Z"/><path class="cls-77" d="M164.2,323.68l-8-5.49a2.32,2.32,0,0,0-2.47-.08L144,323.77a1,1,0,0,0-.06,1.61l8,5.48a2.32,2.32,0,0,0,2.47.09l9.73-5.67A.94.94,0,0,0,164.2,323.68Z"/><path class="cls-78" d="M143.92,324.82l8,5.48a2.3,2.3,0,0,0,2.47.09l9.73-5.66a1,1,0,0,0,.42-.54.93.93,0,0,1-.42,1.09L154.42,331a2.32,2.32,0,0,1-2.47-.09l-8-5.48a1,1,0,0,1-.36-1.07A.87.87,0,0,0,143.92,324.82Z"/><polygon class="cls-79" points="171.8 320.27 171.8 319.09 164.29 314.21 163.77 314.49 171.18 319.4 171.18 320.62 171.8 320.27"/><polygon points="171.45 320.55 171.45 319.37 163.94 314.49 163.42 314.76 170.83 319.68 170.83 320.89 171.45 320.55"/><polygon class="cls-80" points="144.24 336.26 144.24 335.09 136.73 330.21 136.21 330.48 143.62 335.4 143.62 336.61 144.24 336.26"/><polygon points="143.9 336.54 143.9 335.37 136.38 330.48 135.86 330.76 143.27 335.68 143.27 336.89 143.9 336.54"/><path class="cls-81" d="M158.71,323.75l-3.41-2.35a1.6,1.6,0,0,0-1.71-.07l-4.3,2.51a.78.78,0,0,0,0,1.32l3.41,2.35a1.58,1.58,0,0,0,1.71.06l4.3-2.5A.78.78,0,0,0,158.71,323.75Z"/><path class="cls-82" d="M191.61,318.18c-.09,1.55-1.08,3-3,4.14l-21.18,12.2,2.62,1.89,18.56-10.69c2-1.16,3-2.7,3-4.31C191.63,321.28,191.62,318.84,191.61,318.18Z"/><path class="cls-83" d="M95.83,336,33,299.83c-3.17-1.83-4.6-4.24-4.2-6.42a1.57,1.57,0,0,0-.07.48c0,.14,0,3.85,0,4,.16,1.87,1.6,3.81,4.25,5.35L98,340.7Z"/><ellipse class="cls-84" cx="80.27" cy="261.04" rx="50.43" ry="52.35" transform="translate(-93.2 50.1) rotate(-22.34)"/><path class="cls-85" d="M219.31,177c6.18,3.57,11.19.71,11.19-6.38s-5-15.72-11.19-19.29-11.18-.71-11.18,6.38S213.14,173.45,219.31,177Zm37.56-3.53C246.66,167.6,239.4,211.37,228,204.8s-15.5-26.07-24.52-31.28c-6.25-3.6-13.39,22.11-18.45,26V200l95.56,55.16v-1.07C272.76,240.1,264.7,178,256.87,173.49Zm20.54,2.4v1.32l-18.63-11v-1.72L255,162.3V164l-14.54-8.56v-1l-3.5-2v4l3.5,2v-1.84l13.9,8.19a5.61,5.61,0,0,0-1.77.25c-3.66,1.12-6.42,5.75-8.85,10.71l-1.66-1a.5.5,0,0,0-.5,0,.5.5,0,0,0-.25.43v4.4a.5.5,0,0,0,.25.43l3.83,2.21a.55.55,0,0,0,.25.07.59.59,0,0,0,.25-.07.5.5,0,0,0,.25-.43v-4.4a.5.5,0,0,0-.25-.43l-1.31-.75c2.24-4.57,5-9.24,8.28-10.26a4.9,4.9,0,0,1,2.12-.16v.88l3.83,2.21v-1.17c3,2.72,7.34,9.33,9.89,19.87l-1.14-.66a.5.5,0,0,0-.5,0,.5.5,0,0,0-.25.43v4.39a.52.52,0,0,0,.25.44l3.83,2.21a.54.54,0,0,0,.25.06.57.57,0,0,0,.25-.06.52.52,0,0,0,.25-.44v-4.39a.5.5,0,0,0-.25-.43l-1.49-.86c-2-8.7-5.42-15.57-8.67-19.47l16.21,9.54v1.54l3.5,2v-4Zm-32.3,1.82V181l-2.83-1.63v-3.24Zm25.5,12.17v3.24l-2.83-1.64v-3.23Z"/><ellipse class="cls-86" cx="217.81" cy="164.69" rx="9.1" ry="15.77" transform="translate(-53.34 132.44) rotate(-30.31)"/><path class="cls-87" d="M183.55,200.48l95.56,55.16v-1.07c-7.85-14-15.91-76.06-23.74-80.58-10.21-5.89-17.47,37.88-28.85,31.31S211,179.23,202,174c-6.25-3.6-13.39,22.11-18.45,26Z"/><path class="cls-88" d="M275.91,176.39v1.32l-18.63-11V165l-3.83-2.22v1.69l-14.54-8.56v-1l-3.5-2v4l3.5,2v-1.84l13.9,8.19a5.61,5.61,0,0,0-1.77.25c-3.66,1.12-6.42,5.75-8.85,10.71l-1.66-1a.5.5,0,0,0-.5,0,.5.5,0,0,0-.25.43v4.4a.5.5,0,0,0,.25.43l3.83,2.21a.55.55,0,0,0,.25.07.59.59,0,0,0,.25-.07.5.5,0,0,0,.25-.43v-4.4a.5.5,0,0,0-.25-.43l-1.31-.75c2.24-4.57,5-9.24,8.28-10.26a4.9,4.9,0,0,1,2.12-.16v.88l3.83,2.21v-1.17c3,2.72,7.34,9.33,9.89,19.87l-1.14-.66a.5.5,0,0,0-.5,0,.5.5,0,0,0-.25.43v4.39a.52.52,0,0,0,.25.44l3.83,2.21a.54.54,0,0,0,.25.06.57.57,0,0,0,.25-.06.52.52,0,0,0,.25-.44v-4.39a.5.5,0,0,0-.25-.43l-1.49-.86c-2-8.7-5.42-15.57-8.67-19.47l16.21,9.54v1.54l3.5,2v-4Zm-32.3,5.06-2.83-1.63v-3.24l2.83,1.63Zm25.5,12.17L266.28,192v-3.23l2.83,1.63Z"/><path class="cls-46" d="M86.62,294.69a13.79,13.79,0,0,1-6.78-1.63c-1.91-1.1-3-2.6-3-4.21s1-3.07,2.92-4.15a13.62,13.62,0,0,1,6.71-1.61,13.82,13.82,0,0,1,6.78,1.63c1.9,1.1,3,2.59,3,4.2s-1,3.07-2.92,4.16A13.62,13.62,0,0,1,86.62,294.69Zm-.11-10.6a12.64,12.64,0,0,0-6.21,1.47c-1.56.9-2.42,2.07-2.42,3.29s.88,2.43,2.46,3.34a13.87,13.87,0,0,0,12.49,0c1.56-.91,2.42-2.08,2.42-3.3s-.88-2.42-2.46-3.34A12.87,12.87,0,0,0,86.51,284.09Z"/><path class="cls-46" d="M97.86,317.07l-.88-.3,0-.31c-.19-1.23-1.92-3.71-3.6-6.1-2.45-3.5-5-7.12-4.54-9.16a1.78,1.78,0,0,1,.88-1.19c2.44-1.41,6-1.36,9.87-1.3,4.2.06,8.54.12,11.7-1.7a1.87,1.87,0,0,0,1-1.24c.49-2.17-2.3-6.2-4.53-9.43a.5.5,0,1,1,.82-.57c2.47,3.57,5.27,7.62,4.69,10.22a2.85,2.85,0,0,1-1.44,1.88c-3.4,2-7.88,1.9-12.21,1.84-3.68-.06-7.16-.11-9.36,1.16a.78.78,0,0,0-.4.55c-.36,1.6,2.27,5.35,4.38,8.37,1.74,2.48,3.26,4.66,3.68,6.14l43.34-25a.49.49,0,0,1,.68.18.51.51,0,0,1-.18.69Z"/><path class="cls-89" d="M109.41,284.3c-.78.42-3.23,1-3.65.25s1.34-2.67,2.12-3.09a1.61,1.61,0,1,1,1.53,2.84Z"/><path class="cls-90" d="M123.31,281.32c4.16-2.18-1.4-12.89-5.94-10.26s-9.55,9.44-9.55,9.44h0a2.27,2.27,0,0,0-.09,2.77,2.17,2.17,0,0,0,2.37,1.45h0S119.15,283.51,123.31,281.32Z"/><path class="cls-91" d="M154.21,264.29l-5.68-10.56L117.29,271h0l0,0c-1.7.91-1.8,4-.23,6.93s4.22,4.54,5.91,3.62l0,0h0Z"/><path class="cls-92" d="M154.19,264.3c-1.69.91-4.34-.71-5.91-3.62s-1.47-6,.23-6.94,4.34.71,5.91,3.63S155.89,263.38,154.19,264.3Z"/><path class="cls-93" d="M198.48,239.29l-4.6-8.55-45.43,23.1h0l0,0c-1.7.91-1.8,4-.23,6.93s4.22,4.54,5.92,3.63l0,0h0Z"/><path class="cls-94" d="M198.47,239.3c-1.38.74-3.52-.57-4.8-2.93s-1.19-4.88.19-5.62,3.52.57,4.79,2.93S199.84,238.56,198.47,239.3Z"/><path class="cls-95" d="M193.87,236.33c-1.27-2.37-1.19-4.88.19-5.62l.09,0a1.52,1.52,0,0,0-.45.16c-1.38.74-1.46,3.25-.19,5.61s3.33,3.61,4.7,3C196.85,239.71,195,238.44,193.87,236.33Z"/><path class="cls-96" d="M156.16,311.59,116.65,288a4.64,4.64,0,0,0-.47-.24,65.23,65.23,0,0,0-9.11-3.87h0c-.63-.21-1,0-.78.72a3.41,3.41,0,0,0,1.37,2h0s5.85,4.83,9.62,7.34a4.25,4.25,0,0,0,.64.46l0,0h0l39.67,23.8Z"/><path class="cls-97" d="M128.89,296.66l-17.72-10.57L111,286a28.59,28.59,0,0,0-4.09-1.73h0c-.28-.09-.15.87.26,1.23h0s2.63,2.17,4.32,3.29a2.64,2.64,0,0,0,.29.21h0l17.8,10.68Z"/><path class="cls-98" d="M191.26,234.62c.65,1.24-9.4,7.84-19.26,13s-18.39,8.37-19,7.12,6.81-6.45,16.67-11.63S190.6,233.37,191.26,234.62Z"/><rect class="cls-99" x="115.42" y="264.68" width="32.54" height="3.5" rx="1.25" transform="translate(-111.34 95.36) rotate(-28.56)"/><rect class="cls-100" x="118.94" y="266.81" width="19.06" height="2.59" rx="0.92" transform="translate(-112.54 94.03) rotate(-28.56)"/><path class="cls-101" d="M136.84,263.56a1.25,1.25,0,0,0-.49-.48,1.81,1.81,0,0,1,.18.21,1.3,1.3,0,0,1-.52,1.76l-14.46,7.87a1.28,1.28,0,0,1-1.27,0,1.27,1.27,0,0,0,1.58.3l14.46-7.87A1.29,1.29,0,0,0,136.84,263.56Z"/><path class="cls-102" d="M190.61,232.76l-73,38.7a4.47,4.47,0,0,0-.51.38c-4.37,2.84-9.33,8.66-9.33,8.66h0a2.27,2.27,0,0,0-.09,2.77,2.17,2.17,0,0,0,2.37,1.45h0s7.58-1,12.06-2.86a2.15,2.15,0,0,0,.78-.24l0,0h0l72.16-40.49Z"/><path class="cls-103" d="M120.27,273.74c3.69-2.91,2-5.33-2.08-2.05s-9.54,8.71-9.54,8.71h0c-.63.6-.94,1.07-.74,1.33s.53.16,1.46-.41h0S116.58,276.64,120.27,273.74Z"/><path class="cls-104" d="M122,281.13c3.86-1.15,3.5-2.88-.8-1.57s-10.42,3.71-10.42,3.71h0c-.7.26-1.1.49-1,.68s.33.18,1.25,0h0S118.11,282.28,122,281.13Z"/><polygon class="cls-105" points="242.13 96.55 157.9 47.75 127.26 65.95 127.26 94.66 211.42 143.34 211.42 143.35 211.43 143.34 211.44 143.35 211.44 143.34 242.13 125.25 242.13 96.55"/><g class="cls-34"><polygon class="cls-106" points="211.42 114.8 211.42 143.35 219.69 138.57 219.69 109.87 211.42 114.8"/><polygon class="cls-107" points="211.44 114.8 211.44 143.35 127.26 94.66 127.26 65.95 211.44 114.8"/><polygon class="cls-108" points="127.26 65.95 211.44 114.8 219.69 109.87 135.47 61.07 127.26 65.95"/></g><path class="cls-109" d="M48.45,320.35l-26.9-15.51C15.49,301.34,12,296,12,290c0-5.52,3-10.43,8.27-13.46l87.57-50.33.5.87L20.79,277.44C15.85,280.29,13,284.89,13,290c0,5.54,3.29,10.62,9,13.93L49,319.48Z"/><circle class="cls-110" cx="75.13" cy="245.74" r="14.7" transform="translate(-181.67 255.16) rotate(-75.1)"/></g></g></svg>