<svg id="Layer_1" data-name="Layer 1" xmlns="http://www.w3.org/2000/svg" xmlns:xlink="http://www.w3.org/1999/xlink" viewBox="0 0 283.46 283.46"><defs><style>.cls-1{fill:url(#linear-gradient);}.cls-2{fill:url(#linear-gradient-2);}.cls-3{fill:url(#linear-gradient-3);}.cls-4{fill:url(#linear-gradient-4);}</style><linearGradient id="linear-gradient" x1="56.02" y1="233.17" x2="237.88" y2="51.32" gradientUnits="userSpaceOnUse"><stop offset="0" stop-color="#0e0033"/><stop offset="0.29" stop-color="#1c0b56"/><stop offset="0.37" stop-color="#240c55"/><stop offset="0.48" stop-color="#391152"/><stop offset="0.62" stop-color="#5d174e"/><stop offset="0.78" stop-color="#8d2048"/><stop offset="0.96" stop-color="#cb2c40"/><stop offset="1" stop-color="#db2f3e"/></linearGradient><linearGradient id="linear-gradient-2" x1="55.12" y1="234.25" x2="238.47" y2="50.9" xlink:href="#linear-gradient"/><linearGradient id="linear-gradient-3" x1="56.03" y1="233.18" x2="237.88" y2="51.32" xlink:href="#linear-gradient"/><linearGradient id="linear-gradient-4" x1="56.06" y1="233.21" x2="237.92" y2="51.35" xlink:href="#linear-gradient"/></defs><path class="cls-1" d="M192.09,122.34l11.22-11.24c23.27,33.37,20.52,82.89-12.41,114.44a89.81,89.81,0,0,1-126-.95c-33.75-33.54-35.62-85.83-5.57-121.46C91.44,65,143.79,62.3,178.09,85.92L166.84,97.18c-19-11.16-39.5-13.88-61-7.19A72.25,72.25,0,0,0,66,120.23a74.4,74.4,0,1,0,126.09,2.11Z"/><path class="cls-2" d="M202.52,72.74c-.87-6.1-1.78-11.52-2.35-17a5.71,5.71,0,0,1,1.35-4.1q13-13.26,26.28-26.23c.85-.82,3-2.52,3.95-2.18s1.62,3,1.82,4.15c1.25,7.46,2.32,14.95,3.38,22.44.24,1.7.7,2.59,2.74,2.83,7.38.85,14.73,1.93,22.06,3.11,1.27.21,3.91.75,4.3,1.77s-1.29,3.21-2.16,4.09c-8.61,8.78-17.36,17.43-26,26.14a4.6,4.6,0,0,1-4.37,1.46c-5-.81-10-1.38-14.92-2.22a4.09,4.09,0,0,0-4.08,1.27q-27.94,28-56,56c-2.61,2.61-5.46,4.19-9.3,3.71a3.45,3.45,0,0,0-2.29,1.12c-4.38,4.27-8.65,8.65-13,12.9-2.09,1.8-7.33,1.76-7.82,1.28s-.91-6,1.34-8.22q6.43-6.36,12.78-12.82a3.16,3.16,0,0,0,1.07-2.09c-.54-4,1.23-7,4-9.66q28-27.83,55.85-55.74A12.79,12.79,0,0,0,202.52,72.74Z"/><path class="cls-3" d="M153.59,111.18c-3.82,3.78-7.45,7.47-11.22,11a3,3,0,0,1-2.45.22c-16.26-4.54-30.32-.64-41.55,11.73-10.4,11.47-13.07,25.16-8,39.73,5.19,14.93,16,24.08,31.73,26.57A40.06,40.06,0,0,0,168.48,165a34.5,34.5,0,0,0-1.67-15.54,2.78,2.78,0,0,1,.87-3.41c3.51-3.35,6.91-6.84,10.38-10.31,11,20,8.24,49.63-14.14,68.23-21.8,18.11-53.37,16.78-74.56-3.08-19.61-18.39-22.47-50.57-6.75-72.27C99.9,104.74,130.59,99.17,153.59,111.18Z"/><path class="cls-4" d="M133.7,137.24a26.32,26.32,0,0,1-1.72,2.14c-3.65,3.68-7.37,7.29-11,11s-5,8.15-3.23,13.18a12,12,0,0,0,9.93,8.36c4.46.76,8.2-.84,11.35-4,3.61-3.6,7.21-7.21,10.84-10.8a19.43,19.43,0,0,1,2-1.48c2.77,8.75-1.82,20.08-10.07,25.41-9.76,6.3-21.62,5.21-30.34-2.78-7.39-6.77-9.65-19-5.13-27.7C111.84,140,122.26,134.72,133.7,137.24Z"/></svg>