<svg id="Layer_1" data-name="Layer 1" xmlns="http://www.w3.org/2000/svg" viewBox="0 0 283.46 283.46"><defs><style>.cls-1{fill:none;stroke:#fff;stroke-miterlimit:10;}</style></defs><path class="cls-1" d="M47.8,208.23H17.35a2.84,2.84,0,0,1-2.3-4.5L107.1,76.41a2.83,2.83,0,0,1,2.3-1.18h30.45a2.85,2.85,0,0,1,2.31,4.51l-92,127.32A2.87,2.87,0,0,1,47.8,208.23Z"/><path class="cls-1" d="M172.06,208.23H141.61a2.84,2.84,0,0,1-2.3-4.5L231.36,76.41a2.83,2.83,0,0,1,2.3-1.18h30.45a2.85,2.85,0,0,1,2.31,4.51L174.36,207.06A2.85,2.85,0,0,1,172.06,208.23Z"/><path class="cls-1" d="M140.22,164.52H109.79A2.84,2.84,0,0,1,107.5,160l51.43-70.5a2.83,2.83,0,0,1,2.29-1.17h30.43a2.84,2.84,0,0,1,2.3,4.52l-51.43,70.5A2.84,2.84,0,0,1,140.22,164.52Z"/></svg>