<svg xmlns="http://www.w3.org/2000/svg" xmlns:xlink="http://www.w3.org/1999/xlink" viewBox="0 0 283.46 283.46"><defs><style>.cls-1{fill:url(#linear-gradient);}.cls-2{fill:url(#linear-gradient-2);}.cls-3{fill:url(#linear-gradient-3);}.cls-4{fill:url(#linear-gradient-4);}</style><linearGradient id="linear-gradient" x1="74.55" y1="62.99" x2="226.8" y2="200.24" gradientUnits="userSpaceOnUse"><stop offset="0" stop-color="#0e0033"/><stop offset="0.29" stop-color="#1c0b56"/><stop offset="0.37" stop-color="#240c55"/><stop offset="0.48" stop-color="#391152"/><stop offset="0.62" stop-color="#5d174e"/><stop offset="0.78" stop-color="#8d2048"/><stop offset="0.96" stop-color="#cb2c40"/><stop offset="1" stop-color="#db2f3e"/></linearGradient><linearGradient id="linear-gradient-2" x1="69.11" y1="69.03" x2="221.36" y2="206.28" xlink:href="#linear-gradient"/><linearGradient id="linear-gradient-3" x1="74.09" y1="63.5" x2="226.34" y2="200.75" xlink:href="#linear-gradient"/><linearGradient id="linear-gradient-4" x1="70.79" y1="67.17" x2="223.04" y2="204.42" xlink:href="#linear-gradient"/></defs><g id="Layer_1" data-name="Layer 1"><path class="cls-1" d="M42.66,57.3c1.11-1.71,2.79-1.86,4.64-1.86q79,0,157.92,0H239c3.73,0,4.66.9,4.66,4.58V189.63c0,3.54-1.12,4.53-4.66,4.76a6.81,6.81,0,0,1-5.92-2.42c-5.22-5.63-10.64-11.08-16-16.62-.49-.52-1.5-1-1.11-1.83s1.26-.4,1.93-.41c4.71-.09,4.71-.08,4.71-4.73v-89c0-2.91,0-2.92-2.88-2.92H66.33c-2.82,0-2.82,0-2.82,2.76q0,45.56,0,91.11c0,2.76,0,2.76,2.84,2.76q42.81,0,85.62-.05a5.41,5.41,0,0,1,5.27,2.92c3.25,5.37,7.71,9.12,14.33,9.51a2.6,2.6,0,0,1,2.05.95c1.63,2.12,3.3,4.22,4.94,6.33.77,1,.51,1.53-.74,1.58-.56,0-1.13,0-1.69,0H48.23c-2.14,0-4.3.06-5.57-2.16Z"/><path class="cls-2" d="M259.3,240.73c0,3-1.43,4.43-4.39,4.46-3.67,0-6.82-1.65-9.91-3.31-11.31-6.09-21.11-14.25-30.62-22.77A328.26,328.26,0,0,1,184,188c-2.25-2.63-2.08-4.61.81-6.47a25.74,25.74,0,0,0,10.1-11.33c1.32-3,3.58-3.35,6.14-1.17a331.71,331.71,0,0,1,33.23,32.46A184.36,184.36,0,0,1,254.42,228a45,45,0,0,1,4.05,8.35A11.71,11.71,0,0,1,259.3,240.73Z"/><path class="cls-3" d="M126.64,124.27a21.44,21.44,0,0,0,5.48-2c7.41-3.24,14.48-7.3,22.34-9.5a16,16,0,0,1,9.35-.26A9.67,9.67,0,0,1,169.93,126a27.14,27.14,0,0,1-7.69,9.71c-2.71,2.16-6.46,2.7-10,2.93-2,.13-3.28-2-2.83-4.07a15.07,15.07,0,0,1,2.73-5.67c.66-.89,1.33-1.76,2.25-3a120.19,120.19,0,0,0-12.1,5.35,96.41,96.41,0,0,1-13.48,5.54,14.05,14.05,0,0,1-8.51.25c-5.53-1.78-8.29-7-7-13.2,1.1-5.14,4.1-9.39,6.4-14a23.61,23.61,0,0,0,1.62-3.88,20.53,20.53,0,0,0-5.72,3.8c-2.83,2.33-5.57,4.77-8.4,7.09a19.71,19.71,0,0,1-3.52,2.33c-2.33,1.19-4.33.27-5.15-2.21a7.37,7.37,0,0,1-.2-.81c-1.5-7.67-2.08-6.41,3.87-11.38,4.22-3.53,8.22-7.33,13-10,3.51-2,7.22-3.27,11.32-2.14a11.18,11.18,0,0,1,8.11,13c-1,5.62-4.22,10.26-6.74,15.2A9.15,9.15,0,0,0,126.64,124.27Z"/><path class="cls-4" d="M165.44,141.43c7.81,0,15,1.88,21.07,7.16A17.07,17.07,0,0,1,188.57,173a23.3,23.3,0,0,1-6,5.24c-6.28,3.72-12.95,2.43-17.38-3.44a29.37,29.37,0,0,1-5-12.41c-.42-2.13-.82-4.28-1.19-6.43a19.11,19.11,0,0,0-3.22-7.93c-2.14-3.05-1.09-5.38,2.59-6.06a30.56,30.56,0,0,1,3.55-.48C163,141.37,164.25,141.43,165.44,141.43Z"/></g></svg>