<svg id="Layer_1" data-name="Layer 1" xmlns="http://www.w3.org/2000/svg" viewBox="0 0 800 800"><defs><style>.cls-1{fill:#fff;}</style></defs><path class="cls-1" d="M800,400C800,179.1,620.9,0,400,0S0,179.1,0,400,179.1,800,400,800,800,620.9,800,400ZM49.2,400C49.2,207,207,50,400,50S750,207,750,400,593,750,400,750,49.2,593,49.2,400Zm501.9,15.9a25,25,0,0,0-35.4,0l-90.4,90.4V224.8a25,25,0,0,0-50,0V508l-92-92a25,25,0,0,0-42.6,17.7,25.33,25.33,0,0,0,7.3,17.7L399.5,599,551.1,451.3a25.17,25.17,0,0,0,0-35.4Z"/></svg>