<svg id="Layer_1" data-name="Layer 1" xmlns="http://www.w3.org/2000/svg" viewBox="0 0 47.3 47.34"><defs><style>.cls-1{fill:#fff;}</style></defs><path class="cls-1" d="M23.65,47.12A23.45,23.45,0,1,1,47.1,23.67,23.48,23.48,0,0,1,23.65,47.12Zm0-46.46a23,23,0,1,0,23,23A23,23,0,0,0,23.65.66Z"/><polygon class="cls-1" points="23.65 8.23 36.85 16.23 10.39 16.28 23.65 8.23"/><path class="cls-1" d="M38,31.11h0a2.56,2.56,0,0,1-2.56,2.56H11.9a2.56,2.56,0,0,1-2.56-2.56V17.6a3.27,3.27,0,0,1,0-.44l13.51,8.42.05,0,0,0a1.15,1.15,0,0,0,.29.11h0a2.09,2.09,0,0,0,.34,0h0a1.24,1.24,0,0,0,.33,0h0a1.15,1.15,0,0,0,.29-.11l.05,0,.05,0,13.51-8.42a3.27,3.27,0,0,1,0,.44Z"/></svg>