<svg xmlns="http://www.w3.org/2000/svg" xmlns:xlink="http://www.w3.org/1999/xlink" viewBox="0 0 500 500"><defs><style>.cls-1{fill:url(#linear-gradient);}.cls-2{fill:#071844;}.cls-3,.cls-6,.cls-7{fill:none;}.cls-3{opacity:0.5;}.cls-4{fill:url(#linear-gradient-2);}.cls-5{fill:#f47f72;}.cls-7{stroke:#fff;stroke-miterlimit:10;stroke-width:2px;}</style><linearGradient id="linear-gradient" x1="117.1" y1="242.83" x2="391.91" y2="242.83" gradientUnits="userSpaceOnUse"><stop offset="0" stop-color="#db2f3e"/><stop offset="1" stop-color="#00002c"/></linearGradient><linearGradient id="linear-gradient-2" x1="265.82" y1="245.49" x2="251.16" y2="323.74" gradientUnits="userSpaceOnUse"><stop offset="0" stop-color="#cb454b"/><stop offset="0.69" stop-color="#842f72"/></linearGradient></defs><g id="vector"><path class="cls-1" d="M117.1,127.87V357.79H391.91V127.87ZM331,327.89H179.38V176.25H331Z"/><rect class="cls-2" x="117.1" y="127.87" width="274.81" height="25.53"/><polygon class="cls-2" points="333.34 396.74 175.67 396.74 217.43 371.6 291.58 371.6 333.34 396.74"/></g><g id="alterna"><rect class="cls-3" x="179.38" y="176.25" width="151.64" height="129.7"/><polygon class="cls-4" points="222.53 233.32 179.38 276.48 179.38 327.89 331.01 327.89 331.01 286.91 288.91 244.81 261.47 272.25 222.53 233.32"/><circle class="cls-5" cx="264.22" cy="223.22" r="11.06"/><rect class="cls-6" x="179.38" y="176.25" width="151.64" height="151.64"/><rect class="cls-7" x="179.38" y="176.25" width="151.64" height="151.64"/></g></svg>