<?xml version="1.0" encoding="UTF-8"?>
<svg id="uuid-2a1868f2-814e-486e-8be3-685a211b0a54" data-name="Object" xmlns="http://www.w3.org/2000/svg" viewBox="0 0 300 300">
  <defs>
    <style>
      .uuid-c6b326db-9e12-4db6-bff5-40db1088b964 {
        fill: #fff;
        stroke-width: 0px;
      }
    </style>
  </defs>
  <path class="uuid-c6b326db-9e12-4db6-bff5-40db1088b964" d="m149.95,217.92h0c-.58,0-1.13-.26-1.5-.71l-70.47-85.8c-.58-.7-.59-1.7-.04-2.42l35.24-46.15c.37-.48.94-.77,1.55-.77h72.01c.63,0,1.21.3,1.58.81l33.8,46.8c.52.72.49,1.7-.08,2.39l-70.57,85.15c-.37.45-.92.71-1.5.71Zm-67.99-87.79l67.99,82.78,68.1-82.17-32.33-44.77h-70.05l-33.71,44.16Z"/>
  <path class="uuid-c6b326db-9e12-4db6-bff5-40db1088b964" d="m149.95,217.92c-.77,0-1.49-.46-1.8-1.21l-35.24-85.8c-.26-.64-.17-1.37.25-1.92l35.24-46.15c.65-.85,1.88-1.02,2.73-.37.86.65,1.02,1.88.37,2.73l-34.56,45.26,34.81,84.76c.41,1-.07,2.13-1.06,2.54-.24.1-.49.15-.74.15Z"/>
  <path class="uuid-c6b326db-9e12-4db6-bff5-40db1088b964" d="m150,217.92c-.25,0-.5-.05-.74-.15-1-.41-1.47-1.55-1.06-2.54l34.81-84.76-34.56-45.26c-.65-.86-.49-2.08.37-2.73.86-.66,2.08-.49,2.73.37l35.24,46.15c.42.55.52,1.28.25,1.92l-35.24,85.8c-.31.75-1.04,1.21-1.8,1.21Z"/>
  <path class="uuid-c6b326db-9e12-4db6-bff5-40db1088b964" d="m220.52,132.13H79.48c-1.08,0-1.95-.87-1.95-1.95s.87-1.95,1.95-1.95h141.05c1.08,0,1.95.87,1.95,1.95s-.87,1.95-1.95,1.95Z"/>
</svg>