<?xml version="1.0" encoding="UTF-8"?>
<svg id="uuid-eb7c387d-88d0-431d-abe2-6aaa1e47732b" data-name="Object" xmlns="http://www.w3.org/2000/svg" viewBox="0 0 300 300">
  <defs>
    <style>
      .uuid-94b3cd54-1d3b-4493-9226-1f0076dcce4f {
        fill: #fff;
        stroke-width: 0px;
      }
    </style>
  </defs>
  <path class="uuid-94b3cd54-1d3b-4493-9226-1f0076dcce4f" d="m219.22,191.2H80.78c-1.08,0-1.95-.87-1.95-1.95v-102.55c0-1.08.87-1.95,1.95-1.95h138.45c1.08,0,1.95.87,1.95,1.95v102.55c0,1.08-.87,1.95-1.95,1.95Zm-136.5-3.9h134.55v-98.65H82.73v98.65Z"/>
  <path class="uuid-94b3cd54-1d3b-4493-9226-1f0076dcce4f" d="m132.17,213.46c-1.08,0-1.95-.87-1.95-1.95v-22.26c0-1.08.87-1.95,1.95-1.95s1.95.87,1.95,1.95v22.26c0,1.08-.87,1.95-1.95,1.95Z"/>
  <path class="uuid-94b3cd54-1d3b-4493-9226-1f0076dcce4f" d="m167.92,213.46c-1.08,0-1.95-.87-1.95-1.95v-22.26c0-1.08.87-1.95,1.95-1.95s1.95.87,1.95,1.95v22.26c0,1.08-.87,1.95-1.95,1.95Z"/>
  <path class="uuid-94b3cd54-1d3b-4493-9226-1f0076dcce4f" d="m217.15,173.33H80.78c-1.08,0-1.95-.87-1.95-1.95s.87-1.95,1.95-1.95h136.38c1.08,0,1.95.87,1.95,1.95s-.87,1.95-1.95,1.95Z"/>
  <path class="uuid-94b3cd54-1d3b-4493-9226-1f0076dcce4f" d="m184.82,215.25h-69.87c-1.08,0-1.95-.87-1.95-1.95s.87-1.95,1.95-1.95h69.87c1.08,0,1.95.87,1.95,1.95s-.87,1.95-1.95,1.95Z"/>
</svg>