<?xml version="1.0" encoding="UTF-8"?>
<svg id="uuid-2d79a4d7-e52d-4344-a745-abf446f6175a" data-name="Object" xmlns="http://www.w3.org/2000/svg" viewBox="0 0 300 300">
  <defs>
    <style>
      .uuid-929238f3-676a-4838-ad0f-0ce91b0e46df {
        fill: #fff;
        stroke-width: 0px;
      }
    </style>
  </defs>
  <path class="uuid-929238f3-676a-4838-ad0f-0ce91b0e46df" d="m218.51,220.61H81.49c-1.08,0-1.95-.87-1.95-1.95V81.65c0-1.08.87-1.95,1.95-1.95h137.02c1.08,0,1.95.87,1.95,1.95v137.02c0,1.08-.87,1.95-1.95,1.95Zm-135.07-3.9h133.12V83.6H83.44v133.12Z"/>
  <path class="uuid-929238f3-676a-4838-ad0f-0ce91b0e46df" d="m111.26,127.82c-7.19,0-13.04-5.85-13.04-13.04s5.85-13.04,13.04-13.04,13.04,5.85,13.04,13.04-5.85,13.04-13.04,13.04Zm0-22.18c-5.04,0-9.14,4.1-9.14,9.14s4.1,9.14,9.14,9.14,9.14-4.1,9.14-9.14-4.1-9.14-9.14-9.14Z"/>
  <path class="uuid-929238f3-676a-4838-ad0f-0ce91b0e46df" d="m81.49,179.66c-.6,0-1.18-.27-1.57-.79-.64-.86-.46-2.09.4-2.73l50.21-37.34c.69-.52,1.65-.51,2.34.01l33.71,25.64,48.52-51.02c.74-.78,1.97-.81,2.76-.07.78.74.81,1.98.07,2.76l-49.72,52.29c-.69.72-1.8.81-2.59.21l-33.93-25.81-49.03,36.46c-.35.26-.76.38-1.16.38Z"/>
</svg>