<?xml version="1.0" encoding="UTF-8"?>
<svg id="uuid-943b19d1-a4c7-4a0f-acba-e254cb0e61c2" data-name="Object" xmlns="http://www.w3.org/2000/svg" viewBox="0 0 300 300">
  <defs>
    <style>
      .uuid-a4484e24-2bd0-4bd6-8b57-305ad183925b {
        fill: #fff;
        stroke-width: 0px;
      }
    </style>
  </defs>
  <path class="uuid-a4484e24-2bd0-4bd6-8b57-305ad183925b" d="m219.6,79.63H80.4c-1.08,0-1.95.87-1.95,1.95v137.46c0,1.08.87,1.95,1.95,1.95h139.2c1.08,0,1.95-.87,1.95-1.95V81.58c0-1.08-.87-1.95-1.95-1.95Zm-1.95,3.9v24.52H82.35v-24.52h135.3ZM82.35,217.09v-105.14h135.3v105.14H82.35Z"/>
  <path class="uuid-a4484e24-2bd0-4bd6-8b57-305ad183925b" d="m94.02,102.39c3.54,0,6.41-2.88,6.41-6.41s-2.88-6.41-6.41-6.41-6.41,2.88-6.41,6.41,2.88,6.41,6.41,6.41Zm0-8.92c1.39,0,2.51,1.12,2.51,2.51s-1.12,2.51-2.51,2.51-2.51-1.12-2.51-2.51,1.12-2.51,2.51-2.51Z"/>
  <path class="uuid-a4484e24-2bd0-4bd6-8b57-305ad183925b" d="m110.23,102.39c3.54,0,6.41-2.88,6.41-6.41s-2.88-6.41-6.41-6.41-6.41,2.88-6.41,6.41,2.88,6.41,6.41,6.41Zm0-8.92c1.39,0,2.51,1.12,2.51,2.51s-1.12,2.51-2.51,2.51-2.51-1.12-2.51-2.51,1.12-2.51,2.51-2.51Z"/>
  <path class="uuid-a4484e24-2bd0-4bd6-8b57-305ad183925b" d="m126.44,102.39c3.54,0,6.41-2.88,6.41-6.41s-2.88-6.41-6.41-6.41-6.41,2.88-6.41,6.41,2.88,6.41,6.41,6.41Zm0-8.92c1.39,0,2.51,1.12,2.51,2.51s-1.12,2.51-2.51,2.51-2.51-1.12-2.51-2.51,1.12-2.51,2.51-2.51Z"/>
  <path class="uuid-a4484e24-2bd0-4bd6-8b57-305ad183925b" d="m128.04,140.47c-.9-.59-2.11-.34-2.7.56l-12.4,18.93c-.43.65-.43,1.49,0,2.14l12.4,18.93c.37.57,1,.88,1.63.88.37,0,.74-.1,1.07-.32.9-.59,1.15-1.8.56-2.7l-11.7-17.86,11.7-17.86c.59-.9.34-2.11-.56-2.7Z"/>
  <path class="uuid-a4484e24-2bd0-4bd6-8b57-305ad183925b" d="m174.99,141.03c-.59-.9-1.8-1.16-2.7-.56-.9.59-1.15,1.8-.56,2.7l11.7,17.86-11.7,17.86c-.59.9-.34,2.11.56,2.7.33.22.7.32,1.07.32.64,0,1.26-.31,1.63-.88l12.4-18.93c.43-.65.43-1.49,0-2.14l-12.4-18.93Z"/>
  <path class="uuid-a4484e24-2bd0-4bd6-8b57-305ad183925b" d="m163.16,124.56c-1.01-.37-2.13.14-2.5,1.16l-24.65,66.86c-.37,1.01.14,2.13,1.16,2.5.22.08.45.12.67.12.79,0,1.54-.49,1.83-1.28l24.65-66.86c.37-1.01-.14-2.13-1.16-2.5Z"/>
</svg>