<?xml version="1.0" encoding="UTF-8"?>
<svg id="uuid-70d2b98c-52f2-4cfb-954f-c2592251e22e" data-name="Object" xmlns="http://www.w3.org/2000/svg" viewBox="0 0 300 300">
  <defs>
    <style>
      .uuid-79d4cf6e-1dc9-46b8-805d-9f421bbbcdad {
        fill: #fff;
        stroke-width: 0px;
      }
    </style>
  </defs>
  <path class="uuid-79d4cf6e-1dc9-46b8-805d-9f421bbbcdad" d="m210.65,221h-121.3c-1.46,0-2.64-.87-2.64-1.95v-107.25c0-1.08,1.18-1.95,2.64-1.95h121.3c1.46,0,2.64.87,2.64,1.95v107.25c0,1.08-1.18,1.95-2.64,1.95Zm-118.65-3.9h116.58c.28,0,.5-.22.5-.5v-102.35c0-.28-.22-.5-.5-.5h-116.58c-.28,0-.5.22-.5.5v102.35c0,.28.22.5.5.5Z"/>
  <path class="uuid-79d4cf6e-1dc9-46b8-805d-9f421bbbcdad" d="m178.76,134.71c-1.08,0-1.95-.87-1.95-1.95v-22.42c0-14.78-12.03-26.81-26.81-26.81s-26.81,12.03-26.81,26.81v22.42c0,1.08-.87,1.95-1.95,1.95s-1.95-.87-1.95-1.95v-22.42c0-16.93,13.78-30.71,30.71-30.71s30.71,13.78,30.71,30.71v22.42c0,1.08-.87,1.95-1.95,1.95Z"/>
</svg>