<svg id="Layer_1" data-name="Layer 1" xmlns="http://www.w3.org/2000/svg" viewBox="0 0 47.3 47.34"><defs><style>.cls-1{fill:#fff;}</style></defs><path class="cls-1" d="M23.65,47.12A23.45,23.45,0,1,1,47.1,23.67,23.48,23.48,0,0,1,23.65,47.12Zm0-46.46a23,23,0,1,0,23,23A23,23,0,0,0,23.65.66Z"/><path class="cls-1" d="M23.59,8.55h-.12A8.65,8.65,0,0,0,15,17.16c0,5.33,5.3,10.71,8,13.1h0l.53.47c2.43-2.08,8.53-7.86,8.53-13.58A8.65,8.65,0,0,0,23.59,8.55Zm0,12.21a4.47,4.47,0,1,1,4.46-4.46A4.46,4.46,0,0,1,23.61,20.76Z"/><path class="cls-1" d="M23.65,38.79c-5.11,0-10.29-1.46-10.29-4.27,0-2,2.55-3.27,5.83-3.88.64.64,1.24,1.2,1.77,1.67-3.58.4-5.68,1.54-5.68,2.21,0,.83,3.17,2.35,8.37,2.35S32,35.35,32,34.52s-2.19-1.85-5.9-2.23c.53-.47,1.14-1,1.78-1.69,3.39.59,6,1.91,6,3.92,0,2.81-5.18,4.27-10.29,4.27Z"/></svg>