<svg id="Layer_1" data-name="Layer 1" xmlns="http://www.w3.org/2000/svg" viewBox="0 0 47.3 47.34"><defs><style>.cls-1{fill:#fff;}</style></defs><path class="cls-1" d="M23.65,47.12A23.45,23.45,0,1,1,47.1,23.67,23.48,23.48,0,0,1,23.65,47.12Zm0-46.46a23,23,0,1,0,23,23A23,23,0,0,0,23.65.66Z"/><path class="cls-1" d="M28,8.51H19.26a4.41,4.41,0,0,0-4.4,4.41V35.05a4.4,4.4,0,0,0,4.4,4.4H28a4.4,4.4,0,0,0,4.4-4.4V12.92A4.41,4.41,0,0,0,28,8.51Zm-4.39,29.7a1.13,1.13,0,1,1,1.13-1.13A1.13,1.13,0,0,1,23.65,38.21Zm6.51-3.27h-13v-24h13Z"/></svg>