<svg id="Layer_1" data-name="Layer 1" xmlns="http://www.w3.org/2000/svg" viewBox="0 0 47.3 47.34"><defs><style>.cls-1{fill:#fff;}</style></defs><path class="cls-1" d="M23.69,47.13A23.45,23.45,0,1,1,47.14,23.68,23.47,23.47,0,0,1,23.69,47.13Zm0-46.46a23,23,0,1,0,23,23A23,23,0,0,0,23.69.67Z"/><path class="cls-1" d="M23.69,14.42c3,0,3.38,0,4.57.07a6,6,0,0,1,2.09.39,3.43,3.43,0,0,1,1.3.84A3.54,3.54,0,0,1,32.5,17a6.4,6.4,0,0,1,.39,2.1c0,1.19.06,1.55.06,4.56s0,3.38-.06,4.57a6.26,6.26,0,0,1-.39,2.09,3.79,3.79,0,0,1-2.15,2.15,6.26,6.26,0,0,1-2.09.39c-1.19,0-1.55.06-4.57.06s-3.37,0-4.56-.06a6.4,6.4,0,0,1-2.1-.39,3.62,3.62,0,0,1-1.3-.85,3.43,3.43,0,0,1-.84-1.3,6,6,0,0,1-.39-2.09c-.05-1.19-.07-1.55-.07-4.57s0-3.37.07-4.56a6.14,6.14,0,0,1,.39-2.1,3.51,3.51,0,0,1,.84-1.3,3.6,3.6,0,0,1,1.3-.84,6.14,6.14,0,0,1,2.1-.39c1.19-.05,1.55-.07,4.56-.07m0-2c-3.06,0-3.45,0-4.65.07A8.07,8.07,0,0,0,16.3,13,5.71,5.71,0,0,0,13,16.29,8.07,8.07,0,0,0,12.47,19c-.06,1.2-.07,1.59-.07,4.65s0,3.46.07,4.66A8.17,8.17,0,0,0,13,31.08a5.69,5.69,0,0,0,1.3,2,5.38,5.38,0,0,0,2,1.3,8,8,0,0,0,2.74.53c1.2.05,1.59.07,4.65.07s3.46,0,4.66-.07a8.14,8.14,0,0,0,2.74-.53,5.75,5.75,0,0,0,3.3-3.3,8.14,8.14,0,0,0,.53-2.74c0-1.2.07-1.59.07-4.66s0-3.45-.07-4.65a8,8,0,0,0-.53-2.74,5.38,5.38,0,0,0-1.3-2,5.69,5.69,0,0,0-2-1.3,8.17,8.17,0,0,0-2.74-.52c-1.2-.06-1.59-.07-4.66-.07"/><path class="cls-1" d="M23.69,17.88a5.8,5.8,0,1,0,5.8,5.8,5.8,5.8,0,0,0-5.8-5.8m0,9.57a3.77,3.77,0,1,1,3.77-3.77,3.76,3.76,0,0,1-3.77,3.77"/><path class="cls-1" d="M31.08,17.65a1.36,1.36,0,1,1-1.36-1.35,1.36,1.36,0,0,1,1.36,1.35"/></svg>