<svg id="Layer_1" data-name="Layer 1" xmlns="http://www.w3.org/2000/svg" viewBox="0 0 47.3 47.34"><defs><style>.cls-1{fill:#fff;}</style></defs><path class="cls-1" d="M23.67,47.13A23.45,23.45,0,1,1,47.12,23.68,23.48,23.48,0,0,1,23.67,47.13Zm0-46.46a23,23,0,1,0,23,23A23,23,0,0,0,23.67.67Z"/><rect class="cls-1" x="13.75" y="19.08" width="4.26" height="13.77"/><path class="cls-1" d="M15.86,17.28a2.55,2.55,0,1,0-2.52-2.55A2.54,2.54,0,0,0,15.86,17.28Z"/><path class="cls-1" d="M24.83,25.62c0-1.93.89-3.09,2.6-3.09s2.32,1.11,2.32,3.09v7.23H34V24.13c0-3.69-2.09-5.47-5-5.47a4.8,4.8,0,0,0-4.15,2.27V19.08H20.74V32.85h4.09Z"/></svg>