<svg xmlns="http://www.w3.org/2000/svg" xmlns:xlink="http://www.w3.org/1999/xlink" viewBox="0 0 500 500"><defs><style>.cls-1{fill:url(#linear-gradient);}.cls-2{fill:none;stroke-linecap:round;stroke-linejoin:round;stroke-width:2px;}.cls-2,.cls-3,.cls-4{stroke:#fff;}.cls-3{fill:#a7258e;}.cls-3,.cls-4{stroke-miterlimit:10;stroke-width:0.5px;}.cls-4,.cls-5{fill:#fff;}.cls-6{fill:#071844;}</style><linearGradient id="linear-gradient" x1="118.63" y1="241.89" x2="381.59" y2="241.89" gradientUnits="userSpaceOnUse"><stop offset="0" stop-color="#db2f3e"/><stop offset="1" stop-color="#00002c"/></linearGradient></defs><g id="vector"><path class="cls-1" d="M118.63,131.89v220h263v-220Zm131,185.52A66.46,66.46,0,1,1,316.13,251,66.46,66.46,0,0,1,249.67,317.41Z"/><circle class="cls-2" cx="250.11" cy="250.6" r="67.27" transform="translate(-103.94 250.25) rotate(-45)"/><path class="cls-3" d="M209.68,217h0Z"/><path class="cls-4" d="M307.3,218H192.92a1,1,0,0,1,0-2H307.3a1,1,0,0,1,0,2Z"/><path class="cls-5" d="M317.4,251.6H182.83a1,1,0,0,1,0-2H317.4a1,1,0,0,1,0,2Z"/><path class="cls-5" d="M250.11,318.86a1,1,0,0,1-1-1V183.34a1,1,0,0,1,2,0V317.85A1,1,0,0,1,250.11,318.86Z"/><path class="cls-2" d="M297.67,249.37c-.19-14.84-3.91-30.5-11.91-43.3a52.06,52.06,0,0,0-17.43-17.61,35.66,35.66,0,0,0-19.44-5.11,36.62,36.62,0,0,0-19,6.39,54.55,54.55,0,0,0-16.64,18.44c-7.52,13.08-10.84,28.78-10.65,43.65s3.92,30.49,11.91,43.29a52,52,0,0,0,17.43,17.61,35.58,35.58,0,0,0,19.44,5.11,36.62,36.62,0,0,0,19-6.39A54.5,54.5,0,0,0,287,293C294.54,279.94,297.86,264.23,297.67,249.37Z"/><path class="cls-2" d="M202.55,249.37c.2-14.84,3.92-30.5,11.91-43.3a52.06,52.06,0,0,1,17.43-17.61,35.66,35.66,0,0,1,19.44-5.11,36.62,36.62,0,0,1,19,6.39A54.69,54.69,0,0,1,287,208.18c7.51,13.08,10.83,28.78,10.64,43.65s-3.91,30.49-11.91,43.29a52,52,0,0,1-17.43,17.61,35.58,35.58,0,0,1-19.44,5.11,36.62,36.62,0,0,1-19-6.39A54.37,54.37,0,0,1,213.2,293C205.68,279.94,202.36,264.23,202.55,249.37Z"/><path class="cls-5" d="M307.3,285.23H192.92a1,1,0,1,1,0-2H307.3a1,1,0,0,1,0,2Z"/><rect class="cls-6" x="118.63" y="131.89" width="262.96" height="24.23" transform="translate(500.22 288) rotate(180)"/><circle class="cls-5" cx="343.28" cy="144.42" r="4.58"/><circle class="cls-5" cx="355.73" cy="144.42" r="4.58"/><circle class="cls-5" cx="368.17" cy="144.42" r="4.58"/></g></svg>