<?xml version="1.0" encoding="utf-8"?>
<!-- Generator: Adobe Illustrator 27.8.1, SVG Export Plug-In . SVG Version: 6.00 Build 0)  -->
<svg version="1.1" id="Layer_1" xmlns="http://www.w3.org/2000/svg" xmlns:xlink="http://www.w3.org/1999/xlink" x="0px" y="0px"
	 viewBox="0 0 120 120" style="enable-background:new 0 0 120 120;" xml:space="preserve">
<style type="text/css">
	.st0{fill:#FFFFFF;}
</style>
<path class="st0" d="M60.4,12c-1.3,0.2-2.5,0.8-3.3,1.9c-1.7,2.2-1.3,5.3,0.9,7l15.2,11.6H21.2c-3.5,0-6.2,2.8-6.2,6.2
	c0,3.4,2.8,6.2,6.2,6.2h20L7.8,71.6c-3.2,2.6-3.8,7.3-1.2,10.5C8.1,84,10.3,85,12.5,85c1.6,0,3.3-0.5,4.7-1.6L35,69.1
	C35.3,89,53.1,105,75,105c22.1,0,40-16.2,40-36.2c0-10.8-5.2-20.4-13.5-27.1c-0.1-0.1-0.1-0.2-0.2-0.2L64.1,13
	C63,12.1,61.6,11.8,60.4,12z M75.1,45.2c13.8,0,24.9,9.5,24.9,21.2c0,11.7-11.2,21.2-24.9,21.2c-13.8,0-24.9-9.5-24.9-21.2
	C50.2,54.7,61.4,45.2,75.1,45.2z M75.1,50c-9.7,0-17.5,6.6-17.5,14.7c0,8.1,7.8,14.7,17.5,14.7c9.7,0,17.5-6.6,17.5-14.7
	C92.6,56.6,84.8,50,75.1,50z"/>
</svg>
