<?xml version="1.0" encoding="UTF-8"?>
<svg id="vector" xmlns="http://www.w3.org/2000/svg" viewBox="0 0 300 300">
  <defs>
    <style>
      .cls-1 {
        fill: #91a5af;
      }

      .cls-2 {
        fill: #cbd5dc;
      }

      .cls-3 {
        fill: #91c83e;
      }

      .cls-4 {
        fill: #273136;
      }
    </style>
  </defs>
  <rect class="cls-2" x="45.11" y="43.46" width="207.42" height="207.42" rx="2.68" ry="2.68"/>
  <rect class="cls-4" x="60.3" y="81.44" width="177.04" height="153.67" rx="1.7" ry="1.7"/>
  <circle class="cls-1" cx="69.21" cy="63.48" r="8.91"/>
  <circle class="cls-1" cx="91.71" cy="63.48" r="8.91"/>
  <g>
    <path class="cls-3" d="m83.25,166.84v-13.64c0-.45.25-.87.65-1.08l36.32-19.28c.81-.43,1.8.16,1.8,1.08v13.82c0,.47-.27.9-.69,1.1l-23,11.06v.23l23,11.06c.42.2.69.63.69,1.1v13.82c0,.92-.98,1.51-1.8,1.08l-36.32-19.28c-.4-.21-.65-.63-.65-1.08Z"/>
    <path class="cls-3" d="m128.81,200.55l23.19-85.2c.14-.53.63-.9,1.18-.9h8.9c.81,0,1.39.77,1.18,1.54l-23.19,85.2c-.14.53-.63.9-1.18.9h-8.9c-.81,0-1.39-.77-1.18-1.54Z"/>
    <path class="cls-3" d="m171.71,186.11v-13.82c0-.47.27-.9.69-1.1l23-11.06v-.23l-23-11.06c-.42-.2-.69-.63-.69-1.1v-13.82c0-.92.98-1.51,1.8-1.08l36.32,19.28c.4.21.65.63.65,1.08v13.64c0,.45-.25.87-.65,1.08l-36.32,19.28c-.81.43-1.8-.16-1.8-1.08Z"/>
  </g>
</svg>