<?xml version="1.0" encoding="utf-8"?>
<!-- Generator: Adobe Illustrator 27.8.1, SVG Export Plug-In . SVG Version: 6.00 Build 0)  -->
<svg version="1.1" id="Layer_1" xmlns="http://www.w3.org/2000/svg" xmlns:xlink="http://www.w3.org/1999/xlink" x="0px" y="0px"
	 viewBox="0 0 150 150" style="enable-background:new 0 0 150 150;" xml:space="preserve">
<style type="text/css">
	.st0{fill:#FFFFFF;}
</style>
<path class="st0" d="M75,6v42H54c-11.6,0-21-9.4-21-21S42.4,6,54,6H75z M75,54v42H54c-11.6,0-21-9.4-21-21s9.4-21,21-21H75z M75,102
	v21c0,11.6-9.4,21-21,21s-21-9.4-21-21s9.4-21,21-21H75z M123,27c0,11.6-9.4,21-21,21H81V6h21C113.6,6,123,15.4,123,27z M102,54
	c-11.6,0-21,9.4-21,21s9.4,21,21,21s21-9.4,21-21S113.6,54,102,54z"/>
</svg>
