<?xml version="1.0" encoding="utf-8"?>
<!-- Generator: Adobe Illustrator 27.8.1, SVG Export Plug-In . SVG Version: 6.00 Build 0)  -->
<svg version="1.1" id="Layer_1" xmlns="http://www.w3.org/2000/svg" xmlns:xlink="http://www.w3.org/1999/xlink" x="0px" y="0px"
	 viewBox="0 0 150 150" style="enable-background:new 0 0 150 150;" xml:space="preserve">
<style type="text/css">
	.st0{fill:#FFFFFF;}
</style>
<path class="st0" d="M135.8,7c-0.6-0.6-1.4-1-2.2-1H16.4c-0.8,0-1.7,0.4-2.2,1c-0.6,0.6-0.9,1.5-0.8,2.3L24,127.5
	c0.1,1.2,1,2.3,2.2,2.6l48,13.7c0.3,0.1,0.5,0.1,0.8,0.1s0.6,0,0.8-0.1l48.1-13.7c1.2-0.4,2.1-1.4,2.2-2.6L136.6,9.3
	C136.7,8.4,136.4,7.6,135.8,7z M110.5,47.8H54.1L55.5,63h53.7l-4,45.1L75,117.3l-0.3-0.1l-29.8-9l-1.6-18.4h14.6l0.6,7.1l16.7,3.5
	l16.4-3.5l1.7-19.3H42.1l-4-44.4h73.7L110.5,47.8z"/>
</svg>
