<?xml version="1.0" encoding="utf-8"?>
<!-- Generator: Adobe Illustrator 27.8.1, SVG Export Plug-In . SVG Version: 6.00 Build 0)  -->
<svg version="1.1" id="Layer_1" xmlns="http://www.w3.org/2000/svg" xmlns:xlink="http://www.w3.org/1999/xlink" x="0px" y="0px"
	 viewBox="0 0 150 150" style="enable-background:new 0 0 150 150;" xml:space="preserve">
<style type="text/css">
	.st0{fill:none;}
	.st1{fill:#FFFFFF;}
</style>
<polygon class="st0" points="81.4,76.6 58.5,115.6 104.4,115.6 "/>
<path class="st0" d="M44.6,114.5l29.5-50.2L59.6,39.6l-44.7,76h29.3C44.3,115.2,44.4,114.9,44.6,114.5
	C44.6,114.5,44.6,114.5,44.6,114.5z"/>
<path class="st1" d="M44.6,123.7c-1.4-2.5-1.5-5.4-0.4-8H14.9l44.7-76l14.5,24.7L81.4,52L67.8,28.8c-1.7-2.9-4.8-4.7-8.2-4.7
	c0,0,0,0,0,0c-3.4,0-6.4,1.7-8.2,4.7l-50,85c-1.7,2.9-1.7,6.6-0.1,9.5s4.8,4.8,8.2,4.8h42C48.7,127.8,46,126.2,44.6,123.7z M6.8,117
	L6.8,117L6.8,117z"/>
<path class="st1" d="M148.9,114.5l-44.3-75.2c-1.7-2.8-4.6-4.5-7.9-4.5c-3.3,0-6.2,1.7-7.9,4.5L81.4,52l7.3,12.3l8.1-13.7l37.6,65.1
	h-15.6c0.8,2.5,0.5,5.4-0.9,7.7c-1.7,2.9-5.1,4.8-8.5,4.8l0,0c0,0,0,0,0,0h31.2c3.3,0,6.7-1.6,8.3-4.5
	C150.6,120.8,150.6,117.3,148.9,114.5z"/>
<g>
	<path class="st1" d="M118.8,115.6c-0.2-0.7-0.6-1.2-0.9-1.8L88.7,64.3L81.4,52l-7.3,12.3l-29.5,50.2v0c-0.2,0.4-0.3,0.7-0.5,1.1
		c-1.1,2.6-1,5.6,0.4,8c1.5,2.6,4.1,4.2,7,4.5h58c3.4,0,6.6-1.8,8.2-4.8C119.2,121,119.6,118.1,118.8,115.6z M81.4,76.6l23,39H58.5
		L81.4,76.6z"/>
</g>
</svg>
