<?xml version="1.0" encoding="utf-8"?>
<!-- Generator: Adobe Illustrator 27.8.1, SVG Export Plug-In . SVG Version: 6.00 Build 0)  -->
<svg version="1.1" id="Layer_1" xmlns="http://www.w3.org/2000/svg" xmlns:xlink="http://www.w3.org/1999/xlink" x="0px" y="0px"
	 viewBox="0 0 150 150" style="enable-background:new 0 0 150 150;" xml:space="preserve">
<style type="text/css">
	.st0{fill:#FFFFFF;}
</style>
<path class="st0" d="M42,15c-14.9,0-27,12.1-27,27v66c0,14.9,12.1,27,27,27h66c14.9,0,27-12.1,27-27V42c0-14.9-12.1-27-27-27H42z
	 M47.9,33.2c4.5-0.1,8.1,1.5,8.1,6.9c0,12.2-11.3,30.2-11.3,30.2l5.7,3.8c0,0,16-16.5,13.2-35.3C68.7,40.8,80.1,53,80,61.8
	c-5.7,6.5-14.5,13-23.2,17.2L56,79.6c0,0,1.5,2.8,2.7,7c1.1,3.8,1.9,9.2,1,14.2c-17-28.3-39.6-20.7-39.6-20.7
	c-0.9-0.9-2.8-4.2-2.8-8.9c0-4.8,1.9-8,4.7-8s12.2,2.4,13.2,3.3c0.9-4.7,4.7-19.3-3.8-27.8C34.7,36.5,42.1,33.4,47.9,33.2z
	 M82.6,67.9c1.1,0.7,1.8,1.7,1.8,2.8c0,7.5,5.7,10.8,9.4,10.8s5-1.5,9.4-3.3c4.7-1.9-2.8,8.5-5.6,11.3c7.5,7.5,26.4-8.5,33.9-17
	c0,16.9-25.4,30.5-26.4,33.3c-0.5,1.6-2.5,8.4-5.7,12.5c-0.1-1-0.3-2.4-0.9-1.1c-0.9,1.9-2.8,0-3.8-2.8s2.8-4.7,3.8,0
	c1.9-2.8,0.9-8.5-2.8-8.5c-4.7,0-2.8,6.6-2.8,6.6s-1.8-0.9-3.8-1.9c4.8,6.7,5.1,9,3.8,9.4l-1.3,0.3c-0.5-0.4-1-0.8-1.5-1.4
	c-8.5-9.4-17-12.6-24.5-14.4c0.9-2.6,1.1-6,1.1-9.2c1.1,3.6,10.2,7.4,12.1,3C82.4,90,89,91,91.8,91c-9.4-4.7-13.2,2.8-15.1,3.8
	s-4.7-1.9-6.6-3.8c-2.4-2.4-0.9-3.8,0.9-5.7c-5.2,0-7.6-1.1-8.6-2.4C69.9,78.9,77.2,73.5,82.6,67.9z M73,87.3
	c-0.5,0-0.9,0.2-1.3,0.5c-0.7,0.7-0.7,1.9,0,2.6l1.9,1.9c0.4,0.4,0.8,0.5,1.3,0.5s0.9-0.2,1.3-0.5c0.7-0.7,0.7-1.8,0-2.6l-1.9-1.9
	C73.9,87.4,73.5,87.3,73,87.3z"/>
</svg>
