<?xml version="1.0" encoding="utf-8"?>
<!-- Generator: Adobe Illustrator 27.8.1, SVG Export Plug-In . SVG Version: 6.00 Build 0)  -->
<svg version="1.1" id="Layer_1" xmlns="http://www.w3.org/2000/svg" xmlns:xlink="http://www.w3.org/1999/xlink" x="0px" y="0px"
	 viewBox="0 0 96 96" style="enable-background:new 0 0 96 96;" xml:space="preserve">
<style type="text/css">
	.st0{fill:#FFFFFF;}
</style>
<path class="st0" d="M72,52c-7.4,0-14-5.2-23-12.4c-6.1-4.8-20-6.5-22.2-4.8l-5.6-5.7C29.4,21,34.3,16,44,16
	c12.1,0,20.9,6.8,27.9,12.2c2.2,1.7,4.3,3.3,6.1,4.4c1.4,0.8,4.3,1.7,6.7,1c1.6-0.5,2.8-1.6,3.7-3.4l7.3,3.2C91.5,45,82.6,52,72,52z
	 M35.9,26.5c6.8,0.9,14,3.7,18.1,6.8C62.5,40.2,67.6,44,72,44c3,0,5.7-0.8,8.2-2.4c-2.4-0.4-4.6-1.2-6.2-2.2
	c-2.2-1.3-4.5-3.1-6.9-4.9C60.6,29.6,53.3,24,44,24C40.9,24,38.6,24.7,35.9,26.5z M52,80c-7.4,0-14-5.2-23-12.4
	c-6.1-4.8-20-6.5-22.2-4.8l-5.6-5.7C9.4,49,14.3,44,24,44c12.1,0,20.9,6.8,27.9,12.2c2.2,1.7,4.3,3.3,6.1,4.4c1.4,0.8,4.3,1.7,6.7,1
	c1.6-0.5,2.8-1.6,3.7-3.4l7.3,3.2C71.5,73,62.6,80,52,80z M15.9,54.5c6.8,0.9,14,3.7,18.1,6.8C42.5,68.2,47.6,72,52,72
	c3,0,5.7-0.8,8.2-2.4c-2.4-0.4-4.6-1.2-6.2-2.2c-2.2-1.3-4.5-3.1-6.9-4.9C40.6,57.6,33.3,52,24,52C20.9,52,18.6,52.7,15.9,54.5z"/>
</svg>
