<svg xmlns="http://www.w3.org/2000/svg" xmlns:xlink="http://www.w3.org/1999/xlink" viewBox="0 0 908.27 400"><defs><style>.cls-1{isolation:isolate;}.cls-2{fill:#fff;}.cls-3{fill:url(#linear-gradient);}.cls-103,.cls-110,.cls-22,.cls-23,.cls-29,.cls-30,.cls-33,.cls-34,.cls-4,.cls-71,.cls-74,.cls-75,.cls-79,.cls-80,.cls-81,.cls-85,.cls-96{mix-blend-mode:color-dodge;}.cls-104,.cls-23,.cls-4,.cls-74{opacity:0.5;}.cls-4{fill:url(#radial-gradient);}.cls-105,.cls-5,.cls-6,.cls-83,.cls-84,.cls-97{opacity:0.2;}.cls-5{fill:url(#linear-gradient-2);}.cls-7{opacity:0;}.cls-8{opacity:0.09;}.cls-9{opacity:0.18;}.cls-10{opacity:0.27;}.cls-11{opacity:0.36;}.cls-12{opacity:0.45;}.cls-13{opacity:0.55;}.cls-14{opacity:0.64;}.cls-15{opacity:0.73;}.cls-16{opacity:0.82;}.cls-17{opacity:0.91;}.cls-18{fill:url(#linear-gradient-3);}.cls-19{fill:url(#linear-gradient-4);}.cls-100,.cls-20,.cls-26,.cls-65,.cls-67,.cls-86,.cls-97,.cls-98{mix-blend-mode:multiply;}.cls-20{opacity:0.82;fill:url(#linear-gradient-5);}.cls-102,.cls-104,.cls-105,.cls-106,.cls-111,.cls-21,.cls-28,.cls-31,.cls-32,.cls-35,.cls-40,.cls-44,.cls-48,.cls-52,.cls-56,.cls-60,.cls-99{mix-blend-mode:screen;}.cls-21,.cls-28{opacity:0.6;}.cls-21{fill:url(#radial-gradient-2);}.cls-22{fill:url(#radial-gradient-3);}.cls-23{fill:url(#radial-gradient-4);}.cls-24{fill:url(#linear-gradient-6);}.cls-25{fill:url(#linear-gradient-7);}.cls-26{fill:#bcbec0;}.cls-27{fill:url(#linear-gradient-8);}.cls-28{fill:url(#radial-gradient-5);}.cls-29{fill:url(#radial-gradient-6);}.cls-30{fill:url(#radial-gradient-7);}.cls-31{fill:url(#radial-gradient-8);}.cls-32{fill:url(#radial-gradient-9);}.cls-33{fill:url(#radial-gradient-10);}.cls-34{fill:url(#radial-gradient-11);}.cls-35{fill:url(#linear-gradient-9);}.cls-36{opacity:0.9;}.cls-37{fill:url(#linear-gradient-10);}.cls-38{fill:url(#linear-gradient-11);}.cls-39{fill:url(#linear-gradient-12);}.cls-40{fill:url(#linear-gradient-13);}.cls-41{fill:url(#linear-gradient-14);}.cls-42{fill:url(#linear-gradient-15);}.cls-43{fill:url(#linear-gradient-16);}.cls-44{fill:url(#linear-gradient-17);}.cls-45{fill:url(#linear-gradient-18);}.cls-46{fill:url(#linear-gradient-19);}.cls-47{fill:url(#linear-gradient-20);}.cls-48{fill:url(#linear-gradient-21);}.cls-49{fill:url(#linear-gradient-22);}.cls-50{fill:url(#linear-gradient-23);}.cls-51{fill:url(#linear-gradient-24);}.cls-52{fill:url(#linear-gradient-25);}.cls-53{fill:url(#linear-gradient-26);}.cls-54{fill:url(#linear-gradient-27);}.cls-55{fill:url(#linear-gradient-28);}.cls-56{fill:url(#linear-gradient-29);}.cls-57{fill:url(#linear-gradient-30);}.cls-58{fill:url(#linear-gradient-31);}.cls-59{fill:url(#linear-gradient-32);}.cls-60{fill:url(#linear-gradient-33);}.cls-61{fill:url(#linear-gradient-34);}.cls-62{fill:url(#linear-gradient-35);}.cls-63{fill:url(#linear-gradient-36);}.cls-64{fill:url(#linear-gradient-37);}.cls-65{fill:url(#linear-gradient-38);}.cls-66{fill:url(#linear-gradient-39);}.cls-67{fill:url(#linear-gradient-40);}.cls-68{fill:url(#linear-gradient-41);}.cls-69{fill:url(#linear-gradient-42);}.cls-70{fill:url(#linear-gradient-43);}.cls-71{fill:url(#radial-gradient-12);}.cls-72{fill:#1f0d3d;}.cls-73{fill:url(#linear-gradient-44);}.cls-74{fill:url(#radial-gradient-13);}.cls-75{fill:url(#radial-gradient-14);}.cls-76{fill:#25054d;}.cls-77{fill:url(#linear-gradient-45);}.cls-78{fill:url(#linear-gradient-46);}.cls-79{fill:url(#radial-gradient-15);}.cls-80{fill:url(#radial-gradient-16);}.cls-81{fill:url(#radial-gradient-17);}.cls-82{fill:url(#linear-gradient-47);}.cls-83{fill:url(#linear-gradient-48);}.cls-84{fill:url(#linear-gradient-49);}.cls-85{fill:url(#radial-gradient-18);}.cls-86{fill:#e6e7e8;}.cls-87{fill:url(#linear-gradient-50);}.cls-88{fill:url(#linear-gradient-51);}.cls-89{fill:url(#linear-gradient-52);}.cls-90{fill:url(#radial-gradient-19);}.cls-91{fill:url(#linear-gradient-53);}.cls-92{fill:url(#linear-gradient-54);}.cls-93{fill:url(#linear-gradient-55);}.cls-94{fill:url(#linear-gradient-56);}.cls-95{fill:url(#linear-gradient-57);}.cls-96{fill:url(#radial-gradient-20);}.cls-97{fill:url(#radial-gradient-21);}.cls-98{opacity:0.3;fill:url(#radial-gradient-22);}.cls-99{fill:url(#radial-gradient-23);}.cls-100{fill:#939598;}.cls-101{fill:url(#linear-gradient-58);}.cls-102{fill:#58595b;}.cls-103{fill:url(#radial-gradient-24);}.cls-104{fill:url(#radial-gradient-25);}.cls-105{fill:url(#radial-gradient-26);}.cls-106{fill:url(#linear-gradient-59);}.cls-107{fill:url(#linear-gradient-60);}.cls-108{fill:url(#linear-gradient-61);}.cls-109{fill:url(#linear-gradient-62);}.cls-110{fill:url(#radial-gradient-27);}.cls-111{fill:url(#radial-gradient-28);}</style><linearGradient id="linear-gradient" x1="898.66" y1="176.92" x2="305.07" y2="336.37" gradientUnits="userSpaceOnUse"><stop offset="0" stop-color="#0e0033"/><stop offset="0.29" stop-color="#1c0b56"/><stop offset="0.37" stop-color="#240c55"/><stop offset="0.48" stop-color="#391152"/><stop offset="0.62" stop-color="#5d174e"/><stop offset="0.78" stop-color="#8d2048"/><stop offset="0.96" stop-color="#cb2c40"/><stop offset="1" stop-color="#db2f3e"/></linearGradient><radialGradient id="radial-gradient" cx="610.3" cy="128.73" r="190.47" gradientTransform="translate(64.82 60.5) scale(0.96 0.98)" gradientUnits="userSpaceOnUse"><stop offset="0" stop-color="#fa45c1"/><stop offset="0.21" stop-color="#cb389d"/><stop offset="0.67" stop-color="#571843"/><stop offset="1"/></radialGradient><linearGradient id="linear-gradient-2" x1="606.98" y1="316.07" x2="750.77" y2="316.07" gradientUnits="userSpaceOnUse"><stop offset="0.06" stop-color="#200041"/><stop offset="0.26" stop-color="#210243"/><stop offset="0.36" stop-color="#25084b"/><stop offset="0.43" stop-color="#2c1358"/><stop offset="0.47" stop-color="#311b61"/><stop offset="0.48" stop-color="#351f65"/><stop offset="0.5" stop-color="#422c73"/><stop offset="0.51" stop-color="#584188"/><stop offset="0.52" stop-color="#765fa7"/><stop offset="0.53" stop-color="#8770b8"/><stop offset="0.54" stop-color="#7e67ae"/><stop offset="0.56" stop-color="#5c468d"/><stop offset="0.59" stop-color="#442e75"/><stop offset="0.61" stop-color="#362066"/><stop offset="0.63" stop-color="#311b61"/><stop offset="0.67" stop-color="#2a1155"/><stop offset="0.75" stop-color="#230446"/><stop offset="0.81" stop-color="#200041"/><stop offset="1" stop-color="#200041"/></linearGradient><linearGradient id="linear-gradient-3" x1="606.98" y1="294.15" x2="750.77" y2="294.15" xlink:href="#linear-gradient-2"/><linearGradient id="linear-gradient-4" x1="645.45" y1="303.39" x2="710.64" y2="267.33" gradientUnits="userSpaceOnUse"><stop offset="0" stop-color="#311b61"/><stop offset="0.2" stop-color="#290f52"/><stop offset="0.49" stop-color="#200041"/><stop offset="1" stop-color="#0f001f"/></linearGradient><linearGradient id="linear-gradient-5" x1="680.02" y1="286.35" x2="692.82" y2="264.89" gradientUnits="userSpaceOnUse"><stop offset="0" stop-color="#fff"/><stop offset="1"/></linearGradient><radialGradient id="radial-gradient-2" cx="680.45" cy="315.5" r="51.16" gradientUnits="userSpaceOnUse"><stop offset="0" stop-color="#af8afc"/><stop offset="1" stop-color="#10054d"/></radialGradient><radialGradient id="radial-gradient-3" cx="1244.05" cy="340.63" r="35.94" gradientTransform="matrix(0.57, 0, 0, 0.66, -19.07, 105.32)" gradientUnits="userSpaceOnUse"><stop offset="0" stop-color="#972a74"/><stop offset="0.04" stop-color="#8a266a"/><stop offset="0.19" stop-color="#601b4a"/><stop offset="0.35" stop-color="#3d112f"/><stop offset="0.51" stop-color="#230a1b"/><stop offset="0.67" stop-color="#0f040c"/><stop offset="0.83" stop-color="#040103"/><stop offset="1"/></radialGradient><radialGradient id="radial-gradient-4" cx="-671.5" cy="-4160.57" r="81.65" gradientTransform="matrix(0, 1.08, -0.44, 0, -1152.89, 1048.74)" gradientUnits="userSpaceOnUse"><stop offset="0" stop-color="#4f18ad"/><stop offset="0.29" stop-color="#3a127f"/><stop offset="0.94" stop-color="#05010a"/><stop offset="1"/></radialGradient><linearGradient id="linear-gradient-6" x1="784.02" y1="328.57" x2="563.97" y2="24.07" xlink:href="#linear-gradient-4"/><linearGradient id="linear-gradient-7" x1="593.73" y1="54.4" x2="780.95" y2="335.92" gradientUnits="userSpaceOnUse"><stop offset="0.02" stop-color="#0e0033"/><stop offset="0.07" stop-color="#150645"/><stop offset="0.12" stop-color="#1a0a52"/><stop offset="0.17" stop-color="#1c0b56"/><stop offset="0.24" stop-color="#2e0e54"/><stop offset="0.51" stop-color="#771c4b"/><stop offset="0.74" stop-color="#ad2644"/><stop offset="0.91" stop-color="#ce2d40"/><stop offset="1" stop-color="#db2f3e"/></linearGradient><linearGradient id="linear-gradient-8" x1="830.78" y1="335.18" x2="657.57" y2="58.43" xlink:href="#linear-gradient-2"/><radialGradient id="radial-gradient-5" cx="781.64" cy="177.57" r="29.48" xlink:href="#radial-gradient-2"/><radialGradient id="radial-gradient-6" cx="1353.19" cy="158.15" r="35.94" gradientTransform="matrix(0.52, 0, 0, 0.66, 81.47, 55.65)" xlink:href="#radial-gradient-3"/><radialGradient id="radial-gradient-7" cx="781.82" cy="-23.78" r="100.44" gradientTransform="matrix(0.64, 0, 0, 0.66, 103.61, 119.85)" xlink:href="#radial-gradient-3"/><radialGradient id="radial-gradient-8" cx="757.63" cy="114.41" r="14.7" gradientTransform="translate(671.41 -646.94) rotate(74.95)" gradientUnits="userSpaceOnUse"><stop offset="0.09" stop-color="#c211a1"/><stop offset="0.09" stop-color="#b9109b"/><stop offset="0.13" stop-color="#5b0663"/><stop offset="0.15" stop-color="#510558"/><stop offset="0.21" stop-color="#38043d"/><stop offset="0.29" stop-color="#230226"/><stop offset="0.37" stop-color="#130115"/><stop offset="0.48" stop-color="#080109"/><stop offset="0.62" stop-color="#020002"/><stop offset="1"/></radialGradient><radialGradient id="radial-gradient-9" cx="685.13" cy="350.84" r="14.7" gradientTransform="translate(868.06 -396.85) rotate(76.63)" xlink:href="#radial-gradient-8"/><radialGradient id="radial-gradient-10" cx="732" cy="146.63" r="117.94" gradientTransform="matrix(1, 0, 0, 1, 0, 0)" xlink:href="#radial-gradient"/><radialGradient id="radial-gradient-11" cx="683.26" cy="326.42" r="48.53" gradientTransform="matrix(1, 0, 0, 1, 0, 0)" xlink:href="#radial-gradient"/><linearGradient id="linear-gradient-9" x1="578.31" y1="217.56" x2="607.5" y2="197.86" gradientUnits="userSpaceOnUse"><stop offset="0" stop-color="#fdd65b"/><stop offset="0.01" stop-color="#f7d159"/><stop offset="0.13" stop-color="#bea144"/><stop offset="0.25" stop-color="#8b7632"/><stop offset="0.37" stop-color="#605223"/><stop offset="0.49" stop-color="#3e3416"/><stop offset="0.62" stop-color="#231d0c"/><stop offset="0.74" stop-color="#0f0d05"/><stop offset="0.87" stop-color="#040301"/><stop offset="1"/></linearGradient><linearGradient id="linear-gradient-10" x1="589.04" y1="221.15" x2="619.33" y2="212.08" gradientUnits="userSpaceOnUse"><stop offset="0.04" stop-color="#c7c0f0"/><stop offset="0.15" stop-color="#b8b2e2"/><stop offset="0.38" stop-color="#8f8fbe"/><stop offset="0.69" stop-color="#4e5684"/><stop offset="1" stop-color="#071844"/></linearGradient><linearGradient id="linear-gradient-11" x1="542.9" y1="224.92" x2="612.29" y2="209.37" xlink:href="#linear-gradient-10"/><linearGradient id="linear-gradient-12" x1="591.46" y1="184.5" x2="580.59" y2="205.2" xlink:href="#linear-gradient-10"/><linearGradient id="linear-gradient-13" x1="578.31" y1="189.08" x2="607.5" y2="169.37" xlink:href="#linear-gradient-10"/><linearGradient id="linear-gradient-14" x1="589.04" y1="192.66" x2="619.33" y2="183.59" xlink:href="#linear-gradient-10"/><linearGradient id="linear-gradient-15" x1="542.9" y1="196.44" x2="612.29" y2="180.88" xlink:href="#linear-gradient-10"/><linearGradient id="linear-gradient-16" x1="591.46" y1="156.02" x2="580.59" y2="176.72" xlink:href="#linear-gradient-10"/><linearGradient id="linear-gradient-17" x1="578.31" y1="160.33" x2="607.5" y2="140.62" xlink:href="#linear-gradient-10"/><linearGradient id="linear-gradient-18" x1="589.04" y1="163.91" x2="619.33" y2="154.84" xlink:href="#linear-gradient-10"/><linearGradient id="linear-gradient-19" x1="542.9" y1="167.69" x2="612.29" y2="152.13" xlink:href="#linear-gradient-10"/><linearGradient id="linear-gradient-20" x1="591.46" y1="127.27" x2="580.59" y2="147.97" xlink:href="#linear-gradient-10"/><linearGradient id="linear-gradient-21" x1="734.13" y1="269.93" x2="776.2" y2="269.93" xlink:href="#linear-gradient-10"/><linearGradient id="linear-gradient-22" x1="757.93" y1="278.86" x2="766.69" y2="285.7" gradientUnits="userSpaceOnUse"><stop offset="0.04" stop-color="#c7c0f0"/><stop offset="0.13" stop-color="#b8b2e2"/><stop offset="0.32" stop-color="#8f8fbe"/><stop offset="0.58" stop-color="#4e5684"/><stop offset="0.84" stop-color="#071844"/></linearGradient><linearGradient id="linear-gradient-23" x1="734.13" y1="276.23" x2="754.08" y2="276.23" xlink:href="#linear-gradient-10"/><linearGradient id="linear-gradient-24" x1="734.13" y1="262.66" x2="763.12" y2="262.66" xlink:href="#linear-gradient-10"/><linearGradient id="linear-gradient-25" x1="745.56" y1="237.23" x2="774.75" y2="217.52" xlink:href="#linear-gradient-10"/><linearGradient id="linear-gradient-26" x1="756.29" y1="240.81" x2="786.58" y2="231.74" xlink:href="#linear-gradient-10"/><linearGradient id="linear-gradient-27" x1="710.15" y1="244.59" x2="779.54" y2="229.03" xlink:href="#linear-gradient-10"/><linearGradient id="linear-gradient-28" x1="758.71" y1="204.17" x2="747.84" y2="224.87" xlink:href="#linear-gradient-10"/><linearGradient id="linear-gradient-29" x1="745.56" y1="208" x2="774.75" y2="188.3" xlink:href="#linear-gradient-10"/><linearGradient id="linear-gradient-30" x1="756.29" y1="211.59" x2="786.58" y2="202.52" xlink:href="#linear-gradient-10"/><linearGradient id="linear-gradient-31" x1="710.15" y1="215.36" x2="779.54" y2="199.81" xlink:href="#linear-gradient-10"/><linearGradient id="linear-gradient-32" x1="758.71" y1="174.94" x2="747.84" y2="195.64" xlink:href="#linear-gradient-10"/><linearGradient id="linear-gradient-33" x1="745.56" y1="178.08" x2="774.75" y2="158.37" gradientUnits="userSpaceOnUse"><stop offset="0" stop-color="#c211a1"/><stop offset="0.01" stop-color="#bd119d"/><stop offset="0.15" stop-color="#8b0c73"/><stop offset="0.29" stop-color="#600850"/><stop offset="0.42" stop-color="#3e0533"/><stop offset="0.56" stop-color="#23031d"/><stop offset="0.7" stop-color="#0f010d"/><stop offset="0.85" stop-color="#040003"/><stop offset="1"/></linearGradient><linearGradient id="linear-gradient-34" x1="756.29" y1="181.66" x2="786.58" y2="172.59" gradientUnits="userSpaceOnUse"><stop offset="0.04" stop-color="#ca1d43"/><stop offset="0.15" stop-color="#bb1b42"/><stop offset="0.38" stop-color="#92143e"/><stop offset="0.7" stop-color="#510a39"/><stop offset="1" stop-color="#0e0033"/></linearGradient><linearGradient id="linear-gradient-35" x1="710.15" y1="185.44" x2="779.54" y2="169.88" gradientUnits="userSpaceOnUse"><stop offset="0.29" stop-color="#ca1d43"/><stop offset="0.33" stop-color="#b81a41"/><stop offset="0.58" stop-color="#3f0737"/><stop offset="0.69" stop-color="#0e0033"/></linearGradient><linearGradient id="linear-gradient-36" x1="752.88" y1="147.71" x2="747.05" y2="170.35" gradientUnits="userSpaceOnUse"><stop offset="0.28" stop-color="#ca1d43"/><stop offset="0.37" stop-color="#bb1b42"/><stop offset="0.54" stop-color="#92143e"/><stop offset="0.78" stop-color="#510a39"/><stop offset="1" stop-color="#0e0033"/></linearGradient><linearGradient id="linear-gradient-37" x1="-3099.74" y1="1872.11" x2="-3096.63" y2="1846.41" gradientTransform="matrix(0.87, 0.5, -1, 0.58, 5125.34, 811.56)" gradientUnits="userSpaceOnUse"><stop offset="0.03" stop-color="#d4d1d8"/><stop offset="1" stop-color="#eeebf2"/></linearGradient><linearGradient id="linear-gradient-38" x1="-3099.81" y1="1872.23" x2="-3097.05" y2="1849.39" xlink:href="#linear-gradient-37"/><linearGradient id="linear-gradient-39" x1="-3106.55" y1="1880.88" x2="-3100.04" y2="1857.58" xlink:href="#linear-gradient-37"/><linearGradient id="linear-gradient-40" x1="-3107.02" y1="1880.76" x2="-3100.95" y2="1859.05" xlink:href="#linear-gradient-37"/><linearGradient id="linear-gradient-41" x1="-3117.28" y1="1890.73" x2="-3099.89" y2="1861.14" xlink:href="#linear-gradient-37"/><linearGradient id="linear-gradient-42" x1="1757.96" y1="304.35" x2="1920.82" y2="304.35" gradientTransform="translate(-1274.21)" xlink:href="#linear-gradient-2"/><linearGradient id="linear-gradient-43" x1="523.07" y1="320.53" x2="632.26" y2="241.21" xlink:href="#linear-gradient-4"/><radialGradient id="radial-gradient-12" cx="1814.42" cy="321.25" r="61.47" gradientTransform="matrix(-1, 0, 0, 1, 2375.35, 0)" xlink:href="#linear-gradient-5"/><linearGradient id="linear-gradient-44" x1="473.7" y1="297.66" x2="614.94" y2="297.66" gradientUnits="userSpaceOnUse"><stop offset="0.02" stop-color="#0e0033"/><stop offset="0.29" stop-color="#1c0b56"/><stop offset="1" stop-color="#db2f3e"/></linearGradient><radialGradient id="radial-gradient-13" cx="-798.07" cy="-4054.33" r="65.92" gradientTransform="matrix(0, 1.08, -0.44, 0, -1250.83, 1186.2)" xlink:href="#radial-gradient-4"/><radialGradient id="radial-gradient-14" cx="1042.8" cy="296.07" r="25.29" gradientTransform="matrix(0.53, -0.22, 0.25, 0.61, -51.98, 390.9)" xlink:href="#radial-gradient-3"/><linearGradient id="linear-gradient-45" x1="586.72" y1="317" x2="610.92" y2="346.41" xlink:href="#linear-gradient-4"/><linearGradient id="linear-gradient-46" x1="589.04" y1="319.83" x2="625.61" y2="355.28" xlink:href="#linear-gradient-4"/><radialGradient id="radial-gradient-15" cx="3796.3" cy="327.73" r="7.87" gradientTransform="matrix(-1, 0, 0, 1, 4390.19, 0)" xlink:href="#linear-gradient-5"/><radialGradient id="radial-gradient-16" cx="3782.57" cy="317.41" r="3.63" gradientTransform="matrix(-1, 0, 0, 1, 4390.19, 0)" xlink:href="#linear-gradient-5"/><radialGradient id="radial-gradient-17" cx="3810.13" cy="333.41" r="3.63" gradientTransform="matrix(-1, 0, 0, 1, 4390.19, 0)" xlink:href="#linear-gradient-5"/><linearGradient id="linear-gradient-47" x1="3798.29" y1="330.55" x2="3794.41" y2="318.15" gradientTransform="matrix(-1, 0, 0, 1, 4390.19, 0)" xlink:href="#linear-gradient-4"/><linearGradient id="linear-gradient-48" x1="468.73" y1="327.29" x2="636.98" y2="327.29" xlink:href="#linear-gradient-2"/><linearGradient id="linear-gradient-49" x1="468.73" y1="317.06" x2="636.98" y2="317.06" xlink:href="#linear-gradient-2"/><radialGradient id="radial-gradient-18" cx="567.75" cy="147.15" r="78.87" gradientTransform="matrix(0.64, 0, 0, 0.66, 157.02, 163.38)" xlink:href="#radial-gradient-3"/><linearGradient id="linear-gradient-50" x1="662.43" y1="181.6" x2="651.18" y2="141.85" gradientTransform="translate(173.01 -309.39) rotate(30.31)" gradientUnits="userSpaceOnUse"><stop offset="0.04" stop-color="#fff"/><stop offset="0.33" stop-color="#f1f0fb"/><stop offset="0.9" stop-color="#cec7f2"/><stop offset="1" stop-color="#c7c0f0"/></linearGradient><linearGradient id="linear-gradient-51" x1="682.03" y1="252.92" x2="653.53" y2="167.17" gradientUnits="userSpaceOnUse"><stop offset="0.04" stop-color="#c7c0f0"/><stop offset="0.33" stop-color="#d5cff4"/><stop offset="0.9" stop-color="#f8f8fd"/><stop offset="1" stop-color="#fff"/></linearGradient><linearGradient id="linear-gradient-52" x1="675.24" y1="173.93" x2="719.24" y2="173.93" gradientUnits="userSpaceOnUse"><stop offset="0" stop-color="#9f79c8"/><stop offset="0.14" stop-color="#a580cb"/><stop offset="0.33" stop-color="#b492d3"/><stop offset="0.55" stop-color="#cdb0e1"/><stop offset="0.58" stop-color="#d1b4e3"/><stop offset="0.76" stop-color="#dbc4e9"/><stop offset="1" stop-color="#ebdef3"/></linearGradient><radialGradient id="radial-gradient-19" cx="726.4" cy="3523.12" r="3.2" gradientTransform="translate(3304.59 -2028.44) rotate(61.68)" gradientUnits="userSpaceOnUse"><stop offset="0.1" stop-color="#8493ba"/><stop offset="0.21" stop-color="#606c90"/><stop offset="0.33" stop-color="#444d6e"/><stop offset="0.43" stop-color="#303756"/><stop offset="0.53" stop-color="#232a47"/><stop offset="0.62" stop-color="#1f2542"/><stop offset="0.71" stop-color="#242a49"/><stop offset="0.83" stop-color="#34395b"/><stop offset="0.98" stop-color="#4d5179"/><stop offset="0.98" stop-color="#4d517a"/></radialGradient><linearGradient id="linear-gradient-53" x1="720.95" y1="3514.67" x2="732.62" y2="3514.67" gradientTransform="translate(3304.59 -2028.44) rotate(61.68)" gradientUnits="userSpaceOnUse"><stop offset="0" stop-color="#7d62b8"/><stop offset="0.13" stop-color="#9039b1"/><stop offset="0.25" stop-color="#9f19ab"/><stop offset="0.29" stop-color="#89169c"/><stop offset="0.36" stop-color="#5e1080"/><stop offset="0.43" stop-color="#3c0b6a"/><stop offset="0.5" stop-color="#24085a"/><stop offset="0.56" stop-color="#150650"/><stop offset="0.62" stop-color="#10054d"/><stop offset="0.67" stop-color="#150754"/><stop offset="0.75" stop-color="#230e66"/><stop offset="0.84" stop-color="#391985"/><stop offset="0.93" stop-color="#5526ab"/><stop offset="0.96" stop-color="#4d1ba4"/><stop offset="1" stop-color="#4916a1"/></linearGradient><linearGradient id="linear-gradient-54" x1="720.49" y1="3493.45" x2="732.7" y2="3493.45" xlink:href="#linear-gradient-53"/><linearGradient id="linear-gradient-55" x1="1271.14" y1="2203.84" x2="1293" y2="2205.33" gradientTransform="translate(2795.82 -1023.83) rotate(90)" gradientUnits="userSpaceOnUse"><stop offset="0" stop-color="#d6dae6"/><stop offset="0.01" stop-color="#d4d8e6"/><stop offset="0.28" stop-color="#b4b8e3"/><stop offset="0.4" stop-color="#9a9fc8"/><stop offset="0.53" stop-color="#838ab0"/><stop offset="0.65" stop-color="#757da1"/><stop offset="0.76" stop-color="#70789c"/><stop offset="0.85" stop-color="#777ea2"/><stop offset="0.99" stop-color="#898eb3"/><stop offset="1" stop-color="#8b90b5"/></linearGradient><linearGradient id="linear-gradient-56" x1="720.54" y1="3450.24" x2="732.34" y2="3450.24" gradientTransform="translate(3304.59 -2028.44) rotate(61.68)" gradientUnits="userSpaceOnUse"><stop offset="0.01" stop-color="#c1a1d5"/><stop offset="0.05" stop-color="#c8abda"/><stop offset="0.11" stop-color="#dac6e6"/><stop offset="0.2" stop-color="#f7f2f9"/><stop offset="0.22" stop-color="#fff"/><stop offset="0.25" stop-color="#f9f5fb"/><stop offset="0.3" stop-color="#e9dbf2"/><stop offset="0.36" stop-color="#d1b4e3"/><stop offset="0.43" stop-color="#b395d6"/><stop offset="0.49" stop-color="#9c7dcb"/><stop offset="0.56" stop-color="#8e6ec5"/><stop offset="0.61" stop-color="#8969c3"/><stop offset="0.76" stop-color="#9471c6"/><stop offset="1" stop-color="#b086cc"/></linearGradient><linearGradient id="linear-gradient-57" x1="1249.37" y1="2159.18" x2="1267.07" y2="2160.38" gradientTransform="translate(2795.82 -1023.83) rotate(90)" xlink:href="#linear-gradient-56"/><radialGradient id="radial-gradient-20" cx="633.29" cy="234.17" r="3.72" gradientUnits="userSpaceOnUse"><stop offset="0" stop-color="#b4299a"/><stop offset="0.12" stop-color="#8a2076"/><stop offset="0.26" stop-color="#601652"/><stop offset="0.4" stop-color="#3e0e35"/><stop offset="0.55" stop-color="#23081e"/><stop offset="0.69" stop-color="#0f030d"/><stop offset="0.84" stop-color="#040103"/><stop offset="1"/></radialGradient><radialGradient id="radial-gradient-21" cx="422.3" cy="1890.35" r="21.08" gradientTransform="matrix(0.74, 0.68, -0.26, 0.28, 726.07, -535.57)" gradientUnits="userSpaceOnUse"><stop offset="0"/><stop offset="1" stop-color="#fff"/></radialGradient><radialGradient id="radial-gradient-22" cx="422.5" cy="1894.23" r="9.4" xlink:href="#radial-gradient-21"/><radialGradient id="radial-gradient-23" cx="1080.41" cy="472.1" r="12.83" gradientTransform="matrix(1.44, -0.76, 0.1, 0.18, -992.22, 977.46)" gradientUnits="userSpaceOnUse"><stop offset="0" stop-color="#fff"/><stop offset="0.13" stop-color="#ff63ce"/><stop offset="1"/></radialGradient><linearGradient id="linear-gradient-58" x1="566.76" y1="265.41" x2="572.57" y2="275.63" gradientTransform="translate(197.3 -239.05) rotate(28.56)" xlink:href="#linear-gradient-53"/><radialGradient id="radial-gradient-24" cx="570.43" cy="287.55" r="30.35" xlink:href="#radial-gradient-20"/><radialGradient id="radial-gradient-25" cx="-3459.38" cy="3293.3" r="7.68" gradientTransform="matrix(0.15, 0.19, -0.78, 0.62, 3662.84, -1101.98)" gradientUnits="userSpaceOnUse"><stop offset="0" stop-color="#742a97"/><stop offset="0.04" stop-color="#6a268a"/><stop offset="0.19" stop-color="#4a1b60"/><stop offset="0.35" stop-color="#2f113d"/><stop offset="0.51" stop-color="#1b0a23"/><stop offset="0.67" stop-color="#0c040f"/><stop offset="0.83" stop-color="#030104"/><stop offset="1"/></radialGradient><radialGradient id="radial-gradient-26" cx="-5108.8" cy="3902.57" r="7.68" gradientTransform="matrix(0.04, 0.14, -0.82, 0.25, 3975.95, 32.73)" xlink:href="#radial-gradient-25"/><linearGradient id="linear-gradient-59" x1="609.96" y1="112.59" x2="640.19" y2="77.32" gradientUnits="userSpaceOnUse"><stop offset="0" stop-color="#b086cc"/><stop offset="0.04" stop-color="#a37cbd"/><stop offset="0.17" stop-color="#785b8b"/><stop offset="0.3" stop-color="#533f60"/><stop offset="0.44" stop-color="#35283e"/><stop offset="0.57" stop-color="#1e1723"/><stop offset="0.71" stop-color="#0d0a0f"/><stop offset="0.85" stop-color="#030204"/><stop offset="1"/></linearGradient><linearGradient id="linear-gradient-60" x1="650.19" y1="129.12" x2="682.53" y2="113.46" xlink:href="#linear-gradient-52"/><linearGradient id="linear-gradient-61" x1="565.56" y1="133.98" x2="648.19" y2="78.42" xlink:href="#linear-gradient-52"/><linearGradient id="linear-gradient-62" x1="632.51" y1="59.86" x2="612.24" y2="89.46" xlink:href="#linear-gradient-52"/><radialGradient id="radial-gradient-27" cx="508.68" cy="253.3" r="47.61" gradientTransform="matrix(1, 0, 0, 1, 0, 0)" xlink:href="#radial-gradient"/><radialGradient id="radial-gradient-28" cx="514.96" cy="245.74" r="14.7" gradientTransform="translate(620.02 -315.1) rotate(75.1)" xlink:href="#radial-gradient-8"/></defs><g class="cls-1"><g id="back1"><rect class="cls-2" y="0.09" width="908.27" height="399.57"/><polygon class="cls-3" points="717.24 0 230.41 400 908.27 400 908.27 0 717.24 0"/></g><g id="Layer_1" data-name="Layer 1"><ellipse class="cls-4" cx="650.28" cy="186.45" rx="182.71" ry="186.36"/><path class="cls-5" d="M737.84,291.62c0,1.93-1.41,4-4.16,5.55l-39.8,38c-5,2.9-12.65,3.22-17,.7l-72.41-42.05c-2.11-1.22-3.06-2.88-2.92-4.59a2.16,2.16,0,0,0,0,.3V295c0,1.57,1,3.07,3,4.19l72.41,42.05c4.36,2.52,12,2.2,17-.7l39.8-38c2.79-1.61,4.21-3.69,4.16-5.64C737.84,296.57,737.89,293,737.84,291.62Z"/><g class="cls-6"><path class="cls-7" d="M684.25,340.54A20.82,20.82,0,0,1,673.83,338l-72.41-42c-3.81-2.2-6-5.67-6-9.53,0-4.23,2.63-8.18,7.21-10.82l63.55-24.44A25.61,25.61,0,0,1,678.85,248a21,21,0,0,1,10.43,2.51L737.94,279c3.8,2.2,6,5.67,6,9.53,0,4.23-2.62,8.18-7.2,10.82l-39.8,38A25.78,25.78,0,0,1,684.25,340.54Z"/><path class="cls-8" d="M602.92,276.1l63.54-24.45a25.26,25.26,0,0,1,12.61-3.13,23.42,23.42,0,0,1,5.49.71,20.35,20.35,0,0,1,4.83,2l47,27.52s1.39.81,1.42.84A10.1,10.1,0,0,1,743,289c-.21,3.84-3.1,8.12-7.27,10.52l-39.08,37.3A25.05,25.05,0,0,1,684.28,340a20.37,20.37,0,0,1-10.18-2.43l-72.41-42.06c-3.65-2.11-5.72-5.42-5.7-9.09C596,282.39,598.52,278.64,602.92,276.1Z"/><path class="cls-9" d="M603.19,276.58l63.55-24.45a24.65,24.65,0,0,1,12.55-3,21.16,21.16,0,0,1,10.21,2.79l46.71,27.37c.09.05,1.35.8,1.41.86a9.24,9.24,0,0,1,4.44,9.41c-.38,3.44-3.59,8.06-7.33,10.23l-38.37,36.61a24.54,24.54,0,0,1-12.05,3.07,19.85,19.85,0,0,1-9.93-2.36L602,295c-3.5-2-5.46-5.17-5.43-8.65C596.58,282.57,599,279,603.19,276.58Z"/><path class="cls-10" d="M603.47,277.06,667,252.61a24,24,0,0,1,12.5-3,22.84,22.84,0,0,1,5.39.87,26.72,26.72,0,0,1,4.71,2.06l46.46,27.22c.13.07,1.29.77,1.39.86,3.56,2.3,4.29,5.69,3.67,9.36-.51,3-4.07,8-7.4,9.92l-37.64,35.93a24,24,0,0,1-11.75,3,19.34,19.34,0,0,1-9.68-2.29l-72.41-42.06c-3.36-1.93-5.2-4.92-5.15-8.21C597.15,282.75,599.44,279.38,603.47,277.06Z"/><path class="cls-11" d="M603.74,277.53l63.55-24.44a23.56,23.56,0,0,1,12.43-2.87,23.22,23.22,0,0,1,5.35,1,32.27,32.27,0,0,1,4.65,2.11l46.2,27.07c.18.1,1.25.75,1.38.87,3.48,2.33,4.52,5.91,2.9,9.3,0,2.7-4.55,8-7.46,9.63L695.81,335.4a23.41,23.41,0,0,1-11.44,2.93,18.89,18.89,0,0,1-9.44-2.22l-72.41-42.05c-3.2-1.85-4.94-4.68-4.87-7.78C597.73,282.93,599.91,279.75,603.74,277.53Z"/><path class="cls-12" d="M604,278l63.55-24.44a23,23,0,0,1,12.37-2.78,22,22,0,0,1,5.29,1,38.14,38.14,0,0,1,4.6,2.17l45.95,26.92a15.09,15.09,0,0,1,1.36.87c3.39,2.37,4.16,6,2.13,9.25,0,2.31-5,7.89-7.53,9.33l-36.2,34.56a23,23,0,0,1-11.14,2.84,18.26,18.26,0,0,1-9.19-2.14L602.8,293.58c-3.06-1.77-4.68-4.44-4.59-7.34C598.3,283.11,600.37,280.12,604,278Z"/><path class="cls-13" d="M604.3,278.49l63.54-24.44a21.23,21.23,0,0,1,17.56-1.57,47.78,47.78,0,0,1,4.54,2.22l45.69,26.77c.27.16,1.15.71,1.35.88,3.31,2.4,3.79,6,1.36,9.19,0,1.93-5.51,7.84-7.59,9l-35.49,33.87a22.5,22.5,0,0,1-10.84,2.77,17.83,17.83,0,0,1-8.94-2.07l-72.41-42c-2.9-1.68-4.41-4.19-4.31-6.9C598.87,283.3,600.83,280.49,604.3,278.49Z"/><path class="cls-14" d="M604.57,279l63.55-24.44a20.6,20.6,0,0,1,17.45-1.4c.63.21,3.95,2,4.48,2.27L735.48,282a13,13,0,0,1,1.34.88c3.23,2.44,3.43,6.09.59,9.14,0,1.54-6,7.77-7.66,8.73L695,334a21.88,21.88,0,0,1-10.53,2.7,17.18,17.18,0,0,1-8.69-2l-72.41-42.05c-2.75-1.59-4.16-3.94-4-6.46C599.44,283.48,601.29,280.87,604.57,279Z"/><path class="cls-15" d="M604.85,279.45,668.4,255a21.6,21.6,0,0,1,12.2-2.52,21.25,21.25,0,0,1,5.14,1.3c.47.17,4,2.1,4.42,2.33l45.18,26.47a11.42,11.42,0,0,1,1.33.9c3.14,2.47,3.05,6.14-.2,9.07,0,1.16-6.46,7.72-7.71,8.44l-34,32.5a21.34,21.34,0,0,1-10.23,2.63A16.77,16.77,0,0,1,676,334.2l-72.41-42.06c-2.61-1.5-3.9-3.69-3.76-6S601.75,281.24,604.85,279.45Z"/><path class="cls-16" d="M605.13,279.93l63.54-24.45a19.34,19.34,0,0,1,17.23-1c.32.12,4.1,2.23,4.37,2.38l44.92,26.33a9.53,9.53,0,0,1,1.32.9c3.06,2.5,2.69,6.21-1,9,0,.77-6.94,7.66-7.78,8.14L694.43,333a20.75,20.75,0,0,1-9.92,2.55,16.35,16.35,0,0,1-8.2-1.84L603.9,291.66c-2.45-1.41-3.63-3.44-3.47-5.58S602.21,281.61,605.13,279.93Z"/><path class="cls-17" d="M605.4,280.41,669,256a18.79,18.79,0,0,1,17.12-.88c.16.06,4.17,2.36,4.31,2.44l44.67,26.17a9.32,9.32,0,0,1,1.3.91c3,2.54,2.32,6.27-1.74,9,0,.39-7.43,7.61-7.84,7.85l-32.62,31.12a20.14,20.14,0,0,1-9.61,2.48,15.83,15.83,0,0,1-7.95-1.77l-72.41-42.05c-2.31-1.34-3.37-3.2-3.2-5.15S602.67,282,605.4,280.41Z"/><path d="M676.87,332.76l-72.41-42.05c-4.36-2.52-3.82-6.92,1.22-9.83l63.54-24.44c5-2.91,12.66-3.22,17-.71l48.66,28.52c4.36,2.51,3.82,6.91-1.22,9.82l-39.8,38C688.84,335,681.23,335.28,676.87,332.76Z"/></g><path class="cls-18" d="M676.87,332.66l-72.41-42.05c-2-1.13-2.92-2.62-3-4.19V281c0-1.91,1.45,1.4,4.17-.17l63.54-24.44c5-2.91,12.66-3.22,17-.71l48.66,28.51c1.46.85,2.51-2.72,2.89-1.59.13.38.05,5.38.05,5.78,0,1.95-1.37,4-4.16,5.64l-39.8,38C688.84,334.86,681.23,335.18,676.87,332.66Z"/><path class="cls-19" d="M676.87,327.29l-72.41-42.05c-4.36-2.52-3.82-6.92,1.22-9.83L669.22,251c5-2.91,12.66-3.22,17-.71l48.66,28.52c4.36,2.51,3.82,6.91-1.22,9.82l-39.8,38C688.84,329.49,681.23,329.81,676.87,327.29Z"/><path class="cls-20" d="M734.9,278.78l-48.66-28.52c-4.36-2.51-12-2.2-17,.71l-32,12.32a8.57,8.57,0,0,0,1,.68l72.41,42a12.23,12.23,0,0,0,3.47,1.29l19.6-18.71C738.72,285.69,739.26,281.29,734.9,278.78Z"/><path class="cls-21" d="M733.68,287.69l-39.8,38c-5,2.91-12.65,3.23-17,.71l-72.41-42.06a5.2,5.2,0,0,1-2.91-3.86c-.23,1.78.72,3.52,2.91,4.78l72.41,42.05c4.36,2.52,12,2.2,17-.71l39.8-38c3-1.7,4.34-3.91,4.13-6C737.59,284.41,736.19,286.24,733.68,287.69Z"/><ellipse class="cls-22" cx="687.58" cy="331.46" rx="20.42" ry="23.86" transform="translate(-74.38 286.23) rotate(-22.34)"/><ellipse class="cls-23" cx="669.35" cy="322.92" rx="35.76" ry="88.25" transform="translate(150.54 855.03) rotate(-71.48)"/><path class="cls-24" d="M769.94,327.37,592.11,224.62c-9.09-5.25-16.46-19.33-16.46-31.46v-136c0-12.12,7.37-17.7,16.46-12.45L769.94,147.47c9.09,5.25,16.46,19.33,16.46,31.45v136C786.4,327.05,779,332.62,769.94,327.37Z"/><path class="cls-25" d="M772.06,317.9,596.73,216.61c-7.31-4.65-11.84-13.94-11.84-23.45V56.26a2.92,2.92,0,0,1,4.4-2.51l.51.3L765.32,155.47c8.71,5,11.84,13.95,11.84,23.45V315.39a3.15,3.15,0,0,1-4.71,2.74Z"/><path class="cls-26" d="M765.32,155.47,589.8,54.05l-.51-.3a2.92,2.92,0,0,0-4.4,2.52V193.16c0,9.51,4.53,18.8,11.84,23.45L772.06,317.9l.39.23a3.15,3.15,0,0,0,4.71-2.74V178.92C777.16,169.42,774,160.49,765.32,155.47Zm10,159.92a1.3,1.3,0,0,1-1.31,1.3,1.25,1.25,0,0,1-.64-.17L597.66,215c-6.61-4.2-10.92-12.79-10.92-21.85V56.27a1.08,1.08,0,0,1,1.08-1.07,1,1,0,0,1,.53.15l176,101.72c9,5.21,10.92,14.76,10.92,21.85Z"/><path class="cls-27" d="M774.61,145,596.77,42.24c-3.59-2.08-6.92-2.46-9.63-1.42-.34.13-4.93,2.57-5.26,2.75l0,0c2.81-1.37,6.37-1.12,10.25,1.12L769.94,147.47c9.09,5.25,16.46,19.33,16.46,31.45v136c0,7.56-2.87,12.58-7.24,14a2.77,2.77,0,0,0,1.45-.49c.2-.12,5.19-2.93,5.39-3.07,3.12-2.19,5.07-6.69,5.07-12.92v-136C791.07,164.32,783.7,150.24,774.61,145Z"/><path class="cls-28" d="M770.73,147.07,592.9,44.32c-3.73-2.15-7.16-2.46-9.92-1.27a12.19,12.19,0,0,1,7.94,1.86L768.76,147.67c9.09,5.25,16.46,19.33,16.46,31.45v136c0,7.15-2.58,12-6.55,13.71,5.08-.81,8.52-6,8.52-14.31v-136C787.19,166.41,779.82,152.32,770.73,147.07Z"/><ellipse class="cls-29" cx="783" cy="160.58" rx="18.63" ry="23.86" transform="translate(-2.27 309.68) rotate(-22.34)"/><ellipse class="cls-30" cx="603.59" cy="104.05" rx="64.23" ry="66.67" transform="translate(5.75 237.24) rotate(-22.34)"/><circle class="cls-31" cx="757.63" cy="114.41" r="14.7" transform="translate(450.44 816.35) rotate(-74.95)"/><circle class="cls-32" cx="685.13" cy="350.84" r="14.7" transform="translate(185.39 936.29) rotate(-76.63)"/><path class="cls-33" d="M808.94,301.21h-1v-136c0-12-7.28-25.87-16.22-31L613.91,31.42l.49-.85L792.23,133.33c9.21,5.32,16.71,19.62,16.71,31.88Z"/><path class="cls-34" d="M682.73,351.36a15.5,15.5,0,0,1-7.63-1.75l-72.41-42.06.49-.84,72.41,42.05c4.2,2.43,11.57,2.12,16.47-.68l39.76-37.94.67.71-39.89,38A20.27,20.27,0,0,1,682.73,351.36Z"/><polygon class="cls-35" points="608.95 199.62 588.96 187.98 566.88 200.56 566.88 222.53 586.81 234.04 586.81 234.06 586.82 234.05 586.83 234.06 586.83 234.04 608.95 221.59 608.95 199.62"/><g class="cls-36"><polygon class="cls-37" points="586.81 212.26 586.81 234.06 595.87 228.83 595.87 206.86 586.81 212.26"/><polygon class="cls-38" points="586.83 212.26 586.83 234.06 566.88 222.53 566.88 200.56 586.83 212.26"/><polygon class="cls-39" points="566.88 200.56 586.83 212.26 595.87 206.86 575.87 195.22 566.88 200.56"/></g><polygon class="cls-40" points="608.95 171.14 588.96 159.5 566.88 172.08 566.88 194.04 586.81 205.56 586.81 205.57 586.82 205.56 586.83 205.57 586.83 205.56 608.95 193.1 608.95 171.14"/><g class="cls-36"><polygon class="cls-41" points="586.81 183.78 586.81 205.57 595.87 200.34 595.87 178.38 586.81 183.78"/><polygon class="cls-42" points="586.83 183.78 586.83 205.57 566.88 194.04 566.88 172.08 586.83 183.78"/><polygon class="cls-43" points="566.88 172.08 586.83 183.78 595.87 178.38 575.87 166.74 566.88 172.08"/></g><polygon class="cls-44" points="608.95 142.39 588.96 130.75 566.88 143.33 566.88 165.29 586.81 176.81 586.81 176.82 586.82 176.81 586.83 176.82 586.83 176.81 608.95 164.35 608.95 142.39"/><g class="cls-36"><polygon class="cls-45" points="586.81 155.03 586.81 176.82 595.87 171.59 595.87 149.63 586.81 155.03"/><polygon class="cls-46" points="586.83 155.03 586.83 176.82 566.88 165.29 566.88 143.33 586.83 155.03"/><polygon class="cls-47" points="566.88 143.33 586.83 155.03 595.87 149.63 575.87 137.99 566.88 143.33"/></g><polygon class="cls-2" points="582.36 170.07 571.19 163.63 571.19 150.81 582.36 157.26 582.36 170.07"/><path class="cls-2" d="M583.44,192.55c0,3.95-2.79,5.54-6.23,3.55A13.7,13.7,0,0,1,571,185.36c0-3.94,2.78-5.53,6.22-3.55A13.74,13.74,0,0,1,583.44,192.55Z"/><polygon class="cls-2" points="573.37 222.46 569.87 213.47 573.37 208.52 580.39 212.57 583.9 221.57 580.39 226.51 573.37 222.46"/><polygon class="cls-48" points="776.2 258.54 756.21 246.9 734.13 259.48 734.13 281.44 754.06 292.96 754.06 292.97 754.07 292.96 754.08 292.97 754.08 292.96 776.2 280.5 776.2 258.54"/><polygon class="cls-49" points="754.06 271.18 754.06 292.97 763.12 287.74 763.12 265.78 754.06 271.18"/><polygon class="cls-50" points="754.08 271.18 754.08 292.97 734.13 281.44 734.13 259.48 754.08 271.18"/><polygon class="cls-51" points="734.13 259.48 754.08 271.18 763.12 265.78 743.12 254.14 734.13 259.48"/><polygon class="cls-52" points="776.2 219.29 756.21 207.65 734.13 220.23 734.13 242.19 754.06 253.71 754.06 253.72 754.07 253.71 754.08 253.72 754.08 253.71 776.2 241.25 776.2 219.29"/><g class="cls-36"><polygon class="cls-53" points="754.06 231.93 754.06 253.72 763.12 248.49 763.12 226.53 754.06 231.93"/><polygon class="cls-54" points="754.08 231.93 754.08 253.72 734.13 242.19 734.13 220.23 754.08 231.93"/><polygon class="cls-55" points="734.13 220.23 754.08 231.93 763.12 226.53 743.12 214.89 734.13 220.23"/></g><polygon class="cls-56" points="776.2 190.06 756.21 178.42 734.13 191 734.13 212.97 754.06 224.48 754.06 224.5 754.07 224.49 754.08 224.5 754.08 224.48 776.2 212.03 776.2 190.06"/><g class="cls-36"><polygon class="cls-57" points="754.06 202.7 754.06 224.5 763.12 219.27 763.12 197.3 754.06 202.7"/><polygon class="cls-58" points="754.08 202.7 754.08 224.5 734.13 212.97 734.13 191 754.08 202.7"/><polygon class="cls-59" points="734.13 191 754.08 202.7 763.12 197.3 743.12 185.66 734.13 191"/></g><polygon class="cls-60" points="776.2 160.14 756.21 148.5 734.13 161.08 734.13 183.04 754.06 194.56 754.06 194.57 754.07 194.56 754.08 194.57 754.08 194.56 776.2 182.1 776.2 160.14"/><polygon class="cls-61" points="754.06 172.78 754.06 194.57 763.12 189.34 763.12 167.38 754.06 172.78"/><polygon class="cls-62" points="754.08 172.78 754.08 194.57 734.13 183.04 734.13 161.08 754.08 172.78"/><polygon class="cls-63" points="734.13 161.08 754.08 172.78 763.12 167.38 743.12 155.74 734.13 161.08"/><path class="cls-2" d="M748.3,201.05l-10.5,6-1.3,5.73,5.59,1.68,10.5-6Zm-10.44,9.48.55-2.43,3.07,5.3-2.38-.72Zm1-2.89,6.85-3.91,3.26,5.62-6.86,3.91Z"/><path class="cls-2" d="M746.8,184.93l2.09-4,2.86-1.63-4.63-8-2.86,1.63-4.55-.22a.16.16,0,0,0-.18.13l-2.5,8.5a.65.65,0,0,0,.14.51c.13.16.29.24.4.19l.18-.08-.16.11c-.1.07-.11.25,0,.43l.05.1a.59.59,0,0,0,.33.28l8.66,2.13A.16.16,0,0,0,746.8,184.93Zm-7.94-2.61,3-2.11c.42.47,1,.7,1.3.49s.45-1.08,0-1.85-1.17-1.2-1.62-.94-.42.76-.22,1.37L738,180.83l2.14-7.26,4.11.2,3.91,6.75-1.89,3.62Z"/><path class="cls-2" d="M749,239.81l-1.72-3a5.51,5.51,0,0,1,2.54.08,1.41,1.41,0,0,0,1-.11c1.11-.64,1-2.9-.46-4.74a3.22,3.22,0,0,0-2.58-1.5,1.27,1.27,0,0,0-1.08.93,6.1,6.1,0,0,1-1.24,2.23l-1.7-2.93-1.68.95.78,1.34L738,235.87a2.24,2.24,0,0,0-1,1.85l-.12,1.51a.4.4,0,0,1-.07.21l-.65.88a.76.76,0,0,0,.08.77c.16.28.41.49.65.46l1-.13a.49.49,0,0,1,.23,0l1.51.7a2.24,2.24,0,0,0,2.06.06l4.89-2.79.77,1.33Zm-7.84,1.55a1.78,1.78,0,0,1-1.63-.05l-1.51-.7a1,1,0,0,0-.53-.09l-.32,0,.26-.35a.88.88,0,0,0,.17-.5l.12-1.51a1.77,1.77,0,0,1,.78-1.46l4.88-2.78,2.67,4.61Z"/><path class="cls-2" d="M750.14,284.88l-2.87-4.95a1.39,1.39,0,0,0-1.11-.81l-.84-1.45c1.26-1.19,1.13-4-.38-6.61-1.67-2.86-4.36-4.42-6-3.47s-1.66,4,0,6.9c1.52,2.62,3.9,4.14,5.57,3.65l.84,1.45a1.38,1.38,0,0,0,.14,1.36l2.88,4.95c.36.62.94,1,1.3.76l.49-.28C750.5,286.17,750.5,285.5,750.14,284.88Zm-6.23-8.69c-1.09.62-2.87-.4-4-2.29s-1.1-3.92,0-4.54,2.87.4,4,2.28S745,275.57,743.91,276.19Z"/><g class="cls-6"><path class="cls-7" d="M564.85,385.37a12.9,12.9,0,0,1-6.48-1.57l-29.12-56.41a6.84,6.84,0,0,1-3.72-5.93c0-2.63,1.63-5.08,4.48-6.72l17.28-6.33a16,16,0,0,1,7.88-2,13,13,0,0,1,6.48,1.56l75.64,46.27a6.86,6.86,0,0,1,3.72,5.92c0,2.63-1.63,5.09-4.48,6.73l-63.8,16.47A15.91,15.91,0,0,1,564.85,385.37Z"/><path class="cls-8" d="M530.28,314.89l17.15-6.28a15.2,15.2,0,0,1,1.52-.73,16.06,16.06,0,0,1,6.29-1.27,13.38,13.38,0,0,1,5.36,1,9.65,9.65,0,0,1,1.06.55l75.05,45.9a7.61,7.61,0,0,1,3.89,5.54c0,.06,0,.11,0,.17.23,2.53-1.29,5-4.15,6.66l-63.17,16.31a17.2,17.2,0,0,1-7.8,2,12.2,12.2,0,0,1-6.85-1.38l-28.86-55.9a7.69,7.69,0,0,1-3.64-5.63,2.66,2.66,0,0,0,0-.28C525.9,319,527.42,316.54,530.28,314.89Z"/><path class="cls-9" d="M530.55,315.05l17-6.23c.4-.23,1.08-.53,1.51-.72a16.15,16.15,0,0,1,6.24-1.29,13,13,0,0,1,5.3,1,11.51,11.51,0,0,1,1,.54l74.46,45.55c1.89,1.09,3.83,3.43,4.06,5.33a.8.8,0,0,0,0,.15c.44,2.45-1,4.93-3.84,6.6l-62.52,16.14a18.64,18.64,0,0,1-7.72,2,11.85,11.85,0,0,1-7.23-1.2l-28.59-55.39a8.64,8.64,0,0,1-3.57-5.62c0-.1,0-.19,0-.28C526.27,319.19,527.67,316.71,530.55,315.05Z"/><path class="cls-10" d="M530.82,315.2,547.71,309c.35-.2,1.12-.53,1.5-.69a15.73,15.73,0,0,1,6.18-1.32,12.82,12.82,0,0,1,5.26,1c.27.12.78.4,1,.55l73.87,45.18c1.68,1,3.94,3.45,4.23,5.12a.83.83,0,0,0,0,.15c.67,2.35-.6,4.85-3.51,6.53l-61.88,16a20.56,20.56,0,0,1-7.65,1.95,11.59,11.59,0,0,1-7.6-1l-28.33-54.87c-1.64-1-3.19-4-3.49-5.63a1.29,1.29,0,0,0-.08-.26C526.64,319.37,527.93,316.87,530.82,315.2Z"/><path class="cls-11" d="M531.09,315.36l16.76-6.14c.3-.17,1.16-.52,1.5-.67a15.54,15.54,0,0,1,6.11-1.34,12.58,12.58,0,0,1,5.21,1c.24.11.8.42,1,.54L635,353.62c1.47.85,4.35,3.42,4.39,4.9a1.47,1.47,0,0,1,.06.14c.91,2.26-.25,4.78-3.18,6.47L575,381a23.12,23.12,0,0,1-7.57,1.93,11.45,11.45,0,0,1-8-.84l-28.06-54.36c-1.44-.83-3.35-4.18-3.42-5.63a1.86,1.86,0,0,1-.1-.25C527,319.54,528.18,317,531.09,315.36Z"/><path class="cls-12" d="M531.36,315.51,548,309.43c.26-.15,1.2-.53,1.49-.66a15.3,15.3,0,0,1,6.06-1.35,12.19,12.19,0,0,1,5.16,1c.2.1.82.44,1,.55l72.69,44.46c1.26.73,4.53,3.42,4.56,4.69l.08.14c1.13,2.16.08,4.7-2.86,6.4l-60.61,15.65a26.36,26.36,0,0,1-7.49,1.92,11.42,11.42,0,0,1-8.35-.65l-27.8-53.86c-1.23-.71-3.28-4.38-3.34-5.63a1.71,1.71,0,0,1-.13-.23C527.38,319.72,528.44,317.2,531.36,315.51Z"/><path class="cls-13" d="M531.64,315.67l16.48-6c.22-.12,1.26-.52,1.49-.63a14.91,14.91,0,0,1,6-1.38,12,12,0,0,1,5.12,1c.17.08.83.46,1,.55l72.1,44.1c1.05.6,4.71,3.42,4.73,4.48l.09.13c1.37,2.07.43,4.62-2.54,6.33l-60,15.49a31.09,31.09,0,0,1-7.42,1.9,11.4,11.4,0,0,1-8.72-.47l-27.53-53.35c-1-.59-3.22-4.59-3.27-5.62L529,322C527.74,319.9,528.69,317.37,531.64,315.67Z"/><path class="cls-14" d="M531.91,315.83l16.35-6c.18-.1,1.3-.53,1.49-.62a14.72,14.72,0,0,1,5.93-1.4,11.57,11.57,0,0,1,5.07,1l1,.55,71.51,43.74c.84.49,4.88,3.42,4.9,4.27l.1.12c1.6,2,.78,4.55-2.21,6.27L576.7,379.13a37.64,37.64,0,0,1-7.34,1.89c-2.9,1.15-6.73,1.07-9.1-.29L533,327.89c-.82-.47-3.15-4.79-3.19-5.62l-.18-.21C528.1,320.07,529,317.53,531.91,315.83Z"/><path class="cls-15" d="M532.18,316,548.4,310c.13-.07,1.34-.53,1.48-.59a14.51,14.51,0,0,1,5.88-1.43,11.34,11.34,0,0,1,5,1.05l1,.55L632.65,353c.63.36,5.06,3.41,5.07,4.05l.12.12c1.83,1.88,1.12,4.47-1.89,6.21l-58.68,15.15a49.63,49.63,0,0,1-7.27,1.86c-3,1.32-7,1.31-9.46-.1l-27-52.33c-.62-.35-3.1-5-3.12-5.62-.07-.07-.14-.13-.2-.2C528.46,320.25,529.2,317.7,532.18,316Z"/><path class="cls-16" d="M532.45,316.14l16.09-5.89c.09-.05,1.38-.53,1.47-.58a14.41,14.41,0,0,1,5.82-1.45,11.06,11.06,0,0,1,5,1c.07,0,.88.52.94.55l70.33,43c.42.25,5.23,3.42,5.24,3.84l.13.11c2.07,1.78,1.47,4.4-1.56,6.15l-58,15a70.08,70.08,0,0,1-7.19,1.85c-3,1.48-7.29,1.54-9.83.08L534.06,328a32,32,0,0,1-3-5.63l-.22-.19C528.82,320.44,529.46,317.86,532.45,316.14Z"/><path class="cls-17" d="M532.72,316.29l16-5.84,1.46-.55a14,14,0,0,1,5.76-1.47,10.79,10.79,0,0,1,4.93,1.05l.92.55,69.74,42.66c.21.12,5.41,3.41,5.41,3.63l.15.1c2.3,1.68,1.8,4.32-1.25,6.08l-57.4,14.82c-.2.11-6.86,1.83-7.11,1.83-3.08,1.64-7.59,1.77-10.21.26l-26.48-51.3a61.84,61.84,0,0,1-3-5.63l-.24-.17C529.19,320.62,529.71,318,532.72,316.29Z"/><path d="M561.35,379l-29.12-56.41c-2.71-1.57-2.37-4.3.76-6.11l17.29-6.33c3.13-1.81,7.86-2,10.58-.44L636.49,356c2.71,1.56,2.37,4.3-.76,6.11l-63.8,16.47C568.8,380.34,564.06,380.53,561.35,379Z"/></g><polygon class="cls-64" points="611.98 373.17 526.37 311.7 552.41 299.65 638.02 361.11 611.98 373.17"/><polygon class="cls-65" points="611.98 373.17 526.37 311.7 552.41 299.65 619.23 369.81 611.98 373.17"/><polygon class="cls-66" points="586.85 378.23 522.42 308.72 551.92 299.68 616.35 369.19 586.85 378.23"/><polygon class="cls-67" points="586.85 378.23 522.42 308.72 551.92 299.68 595.98 375.56 586.85 378.23"/><polygon class="cls-68" points="561.07 381.06 519.45 306.04 551.33 300.25 592.95 375.27 561.07 381.06"/><g class="cls-6"><path class="cls-7" d="M569.51,356.82a13.54,13.54,0,0,1-6.77-1.63L473.61,304a7.17,7.17,0,0,1-3.88-6.18c0-2.75,1.71-5.31,4.68-7l50.75-29.25a16.61,16.61,0,0,1,8.21-2.09,13.54,13.54,0,0,1,6.77,1.63l89.12,51.23a7.16,7.16,0,0,1,3.88,6.18c0,2.75-1.7,5.31-4.67,7l-50.75,29.25A16.61,16.61,0,0,1,569.51,356.82Z"/><path class="cls-8" d="M525.44,261.67a16.38,16.38,0,0,1,8.2-2,16.18,16.18,0,0,1,3.27.39,14.08,14.08,0,0,1,3.43,1.34l88.85,51.07a6.55,6.55,0,0,1,3.58,6.11,7.39,7.39,0,0,1-.37,1.8,10.07,10.07,0,0,1-4.47,4.94L577.8,354.18a15.34,15.34,0,0,1-2,1,16.86,16.86,0,0,1-6,1.15,13.18,13.18,0,0,1-6.68-1.58L473.9,303.5a6.5,6.5,0,0,1-3.57-6.12,8,8,0,0,1,.29-1.53,9.94,9.94,0,0,1,4.57-5.22Z"/><path class="cls-9" d="M525.72,261.83a16.06,16.06,0,0,1,8.18-2,13.84,13.84,0,0,1,6.64,1.84l88.57,50.91a6,6,0,0,1,3.28,6,8.21,8.21,0,0,1-.47,1.71,11.31,11.31,0,0,1-4.53,4.74l-49.51,28.54a19.71,19.71,0,0,1-2,1,17,17,0,0,1-6,1.18,12.92,12.92,0,0,1-6.6-1.53L474.18,303a5.93,5.93,0,0,1-3.25-6.06,8.25,8.25,0,0,1,.38-1.46c.54-1.71,2.72-3.89,4.67-5Z"/><path class="cls-10" d="M526,262a15.49,15.49,0,0,1,8.16-1.91,14.85,14.85,0,0,1,3.22.51,17.48,17.48,0,0,1,3.36,1.42L629,312.77a5.46,5.46,0,0,1,3,6,9.59,9.59,0,0,1-.57,1.63c-.56,1.41-2.94,3.59-4.6,4.54L578,353.09a21.25,21.25,0,0,1-2,1,16.85,16.85,0,0,1-5.87,1.22,12.64,12.64,0,0,1-6.53-1.48l-89.13-51.23a5.4,5.4,0,0,1-2.93-6,12.64,12.64,0,0,1,.47-1.39c.54-1.5,3-3.81,4.77-4.81Z"/><path class="cls-11" d="M526.29,262.16a14.66,14.66,0,0,1,11.34-1.28,21.23,21.23,0,0,1,3.32,1.46l88,50.59c2.43,1.41,3.32,3.63,2.67,5.9a12,12,0,0,1-.66,1.55c-.54,1.22-3.22,3.51-4.67,4.34L578,352.54c-.41.24-1.48.79-1.94,1a16.56,16.56,0,0,1-5.78,1.26,12.48,12.48,0,0,1-6.45-1.42l-89.13-51.23c-2.45-1.42-3.31-3.67-2.61-5.95.14-.45.37-.87.56-1.32.52-1.29,3.35-3.74,4.86-4.61Z"/><path class="cls-12" d="M526.57,262.32a15,15,0,0,1,8.12-1.79,14.69,14.69,0,0,1,3.18.63,26,26,0,0,1,3.29,1.51l87.73,50.42c2.42,1.4,3.18,3.62,2.36,5.83a14.75,14.75,0,0,1-.76,1.47c-.5,1-3.49,3.43-4.73,4.15L578.12,352c-.35.2-1.52.82-1.91,1a16.27,16.27,0,0,1-5.69,1.3,12.11,12.11,0,0,1-6.36-1.37L475,301.67c-2.46-1.42-3.18-3.67-2.3-5.89a6,6,0,0,1,.65-1.25c.29-1.16,3.66-3.66,5-4.41Z"/><path class="cls-13" d="M526.85,262.48a14.59,14.59,0,0,1,8.11-1.73,15,15,0,0,1,3.15.69,32.44,32.44,0,0,1,3.25,1.55l87.45,50.27c2.42,1.39,3.06,3.6,2.06,5.75a6.41,6.41,0,0,1-.85,1.39c-.27.91-3.77,3.35-4.81,4l-47,27.09c-.29.17-1.55.85-1.88,1a16,16,0,0,1-5.6,1.33,11.85,11.85,0,0,1-6.28-1.32l-89.13-51.23c-2.45-1.42-3.06-3.66-2-5.83a6.25,6.25,0,0,1,.74-1.18c.24-1,4-3.58,5.06-4.21Z"/><path class="cls-14" d="M527.14,262.65a14.24,14.24,0,0,1,8.08-1.68,14.64,14.64,0,0,1,3.13.75c.45.14,2.84,1.38,3.22,1.59l87.16,50.11c2.41,1.39,2.95,3.59,1.77,5.68a6.05,6.05,0,0,1-1,1.3c-.21.74-4,3.28-4.87,3.76l-46.39,26.73c-.23.14-1.58.88-1.84,1a16,16,0,0,1-5.51,1.37,11.59,11.59,0,0,1-6.21-1.27l-89.13-51.23c-2.44-1.41-2.94-3.66-1.66-5.77a6.05,6.05,0,0,1,.83-1.11c.19-.78,4.29-3.51,5.15-4Z"/><path class="cls-15" d="M527.42,262.81a12.74,12.74,0,0,1,11.16-.81c.34.11,2.91,1.48,3.19,1.64l86.89,49.94c2.4,1.39,2.83,3.59,1.46,5.61a6.2,6.2,0,0,1-1,1.22c-.16.55-4.32,3.2-4.94,3.56l-45.77,26.38c-.17.1-1.62.9-1.81,1a15.77,15.77,0,0,1-5.42,1.41,11.33,11.33,0,0,1-6.13-1.22l-89.12-51.23c-2.45-1.41-2.83-3.67-1.35-5.71a6.3,6.3,0,0,1,.92-1c.14-.58,4.6-3.43,5.25-3.8Z"/><path class="cls-16" d="M527.7,263a12.46,12.46,0,0,1,11.12-.69c.23.08,3,1.57,3.15,1.68l86.61,49.78c2.4,1.38,2.72,3.59,1.16,5.55a6.86,6.86,0,0,1-1.15,1.13c-.11.37-4.59,3.12-5,3.36l-45.14,26c-.12.07-1.65.93-1.78,1a15.26,15.26,0,0,1-5.33,1.45,10.92,10.92,0,0,1-6-1.17l-89.13-51.23c-2.44-1.41-2.72-3.68-1-5.65a6.69,6.69,0,0,1,1-1c.09-.39,4.91-3.35,5.35-3.6Z"/><path class="cls-17" d="M528,263.13a12.06,12.06,0,0,1,11.07-.57c.12,0,3,1.67,3.12,1.72l86.33,49.62c2.38,1.38,2.61,3.6.85,5.48a7.35,7.35,0,0,1-1.24,1.05c-.06.18-4.87,3-5.08,3.16l-44.52,25.66-1.74,1a15.6,15.6,0,0,1-5.24,1.48,10.77,10.77,0,0,1-6-1.11l-89.13-51.23c-2.44-1.41-2.61-3.7-.71-5.6a7.26,7.26,0,0,1,1.1-.9c0-.2,5.23-3.27,5.44-3.4Z"/><path d="M565.85,350.15l-89.13-51.23c-2.82-1.64-2.47-4.49.8-6.37l50.75-29.26c3.26-1.88,8.21-2.09,11-.45l89.13,51.23c2.83,1.63,2.48,4.48-.79,6.37l-50.75,29.25C573.62,351.58,568.68,351.78,565.85,350.15Z"/></g><path class="cls-69" d="M578.23,349.56l50.2-28.93c2-1.15,3-2.69,3-4.31,0-.14,0-3.25,0-3.39-.17-1.87-1.6-.84-4.26-2.38l-87.92-50.69c-5.16-3-13-3.31-17.45-.72l-50.2,28.93c-2,1.15-3-.88-3,.73,0,.14,0,3.85,0,4,.16,1.88,1.6,3.82,4.25,5.35l87.92,50.7C566,351.82,573.76,352.14,578.23,349.56Z"/><path class="cls-70" d="M578.23,346.16l50.2-28.93c4.48-2.58,3.92-7.09-1.25-10.07l-87.92-50.7c-5.16-3-13-3.3-17.45-.72l-50.2,28.93c-4.47,2.58-3.91,7.09,1.25,10.07l87.92,50.7C566,348.42,573.76,348.74,578.23,346.16Z"/><path class="cls-71" d="M628.43,316.79l-50.2,28.93C573.76,348.3,566,348,560.78,345L472.86,294.3c-2.72-1.57-4.16-3.56-4.26-5.48-.11,2.05,1.33,4.23,4.26,5.92l87.92,50.7c5.17,3,13,3.3,17.45.72l50.2-28.93c2.12-1.22,3.11-2.88,3-4.6C631.36,314.19,630.37,315.67,628.43,316.79Z"/><path class="cls-72" d="M624.32,308.6l-87.56-50.49c-3.79-2.19-9.53-2.42-12.81-.53L474.8,285.9c-3.28,1.9-2.87,5.21.92,7.4l87.57,50.49c3.79,2.19,9.52,2.42,12.81.53L625.24,316C628.53,314.1,628.11,310.79,624.32,308.6Z"/><path class="cls-73" d="M614.94,304.1l-79.49-45.83a12.36,12.36,0,0,0-11.16,0L476,286.1c-3.09,1.78-3.11,4.67,0,6.45l79.47,45.82Z"/><path d="M609.23,331.4l-7.09,4.1h0a4.18,4.18,0,0,1,1.76-3.36l3.57-2.07c1-.56,1.76,0,1.76,1.33Z"/><ellipse class="cls-74" cx="524.87" cy="323.59" rx="28.87" ry="71.25" transform="translate(51.32 718.5) rotate(-71.48)"/><path class="cls-75" d="M583.89,342.08c3.52,8.58.43,18-6.91,21s-16.14-1.49-19.67-10.07-.43-18,6.91-21S580.36,333.51,583.89,342.08Z"/><path class="cls-76" d="M478,292.47a.24.24,0,0,1-.21-.12.25.25,0,0,1,.09-.34l2.36-1.39a.26.26,0,0,1,.35.09.25.25,0,0,1-.09.34l-2.37,1.39A.28.28,0,0,1,478,292.47Z"/><path class="cls-76" d="M484.81,296.37a.24.24,0,0,1-.21-.12.26.26,0,0,1,.09-.35l2.36-1.39a.26.26,0,0,1,.35.09.25.25,0,0,1-.09.34l-2.37,1.39A.2.2,0,0,1,484.81,296.37Z"/><path class="cls-76" d="M491.59,300.26a.24.24,0,0,1-.21-.12.25.25,0,0,1,.09-.34l2.36-1.39a.26.26,0,0,1,.35.09.25.25,0,0,1-.09.34l-2.37,1.39A.28.28,0,0,1,491.59,300.26Z"/><path class="cls-76" d="M498.37,304.16a.24.24,0,0,1-.21-.12.27.27,0,0,1,.08-.35l2.37-1.39a.26.26,0,0,1,.35.09.25.25,0,0,1-.09.34l-2.37,1.4A.31.31,0,0,1,498.37,304.16Z"/><path class="cls-76" d="M505.15,308.05a.25.25,0,0,1-.22-.12.25.25,0,0,1,.09-.34l2.37-1.39a.25.25,0,0,1,.34.09.25.25,0,0,1-.08.34L505.28,308A.31.31,0,0,1,505.15,308.05Z"/><path class="cls-76" d="M511.93,312a.25.25,0,0,1-.22-.12.26.26,0,0,1,.09-.35l2.37-1.39a.25.25,0,0,1,.34.09.27.27,0,0,1-.08.35l-2.37,1.39A.31.31,0,0,1,511.93,312Z"/><path class="cls-76" d="M518.71,315.85a.26.26,0,0,1-.22-.13.25.25,0,0,1,.09-.34L521,314a.25.25,0,1,1,.25.43l-2.36,1.39A.33.33,0,0,1,518.71,315.85Z"/><path class="cls-76" d="M525.49,319.74a.25.25,0,0,1-.22-.12.25.25,0,0,1,.09-.34l2.37-1.4a.25.25,0,0,1,.34.09.26.26,0,0,1-.09.35l-2.36,1.39A.31.31,0,0,1,525.49,319.74Z"/><path class="cls-76" d="M532.27,323.64a.26.26,0,0,1-.22-.13.25.25,0,0,1,.09-.34l2.37-1.39a.25.25,0,0,1,.25.43l-2.37,1.39A.19.19,0,0,1,532.27,323.64Z"/><path class="cls-76" d="M539.05,327.53a.25.25,0,0,1-.22-.12.25.25,0,0,1,.09-.34l2.37-1.39a.24.24,0,0,1,.34.08.26.26,0,0,1-.09.35l-2.37,1.39Z"/><path class="cls-76" d="M545.83,331.43a.26.26,0,0,1-.22-.13.25.25,0,0,1,.09-.34l2.37-1.39a.25.25,0,0,1,.25.43L546,331.39A.19.19,0,0,1,545.83,331.43Z"/><path class="cls-76" d="M552.61,335.32a.25.25,0,0,1-.22-.12.25.25,0,0,1,.09-.34l2.37-1.39a.25.25,0,0,1,.34.08.26.26,0,0,1-.09.35l-2.37,1.39Z"/><path d="M616.46,312.5h0a6.54,6.54,0,0,0-7-.26l-39.21,22.84a2.76,2.76,0,0,0-.18,4.65h0a7.2,7.2,0,0,0,7.68.29l38.52-22.44A3,3,0,0,0,616.46,312.5Z"/><path class="cls-77" d="M616.46,311.36h0a6.54,6.54,0,0,0-7-.26l-39.21,22.84a2.76,2.76,0,0,0-.18,4.65h0a7.18,7.18,0,0,0,7.68.28l38.52-22.43A3,3,0,0,0,616.46,311.36Z"/><path d="M604,324.3l-8-5.48a2.3,2.3,0,0,0-2.47-.09l-9.73,5.67a1,1,0,0,0-.06,1.6l8,5.48a2.3,2.3,0,0,0,2.46.09L604,325.9A.94.94,0,0,0,604,324.3Z"/><path class="cls-78" d="M604,323.68l-8-5.49a2.32,2.32,0,0,0-2.47-.08l-9.73,5.66a1,1,0,0,0-.06,1.61l8,5.48a2.3,2.3,0,0,0,2.46.09l9.74-5.67A.94.94,0,0,0,604,323.68Z"/><path class="cls-79" d="M583.75,324.82l8,5.48a2.28,2.28,0,0,0,2.46.09l9.74-5.66a1,1,0,0,0,.42-.54.93.93,0,0,1-.42,1.09L594.24,331a2.3,2.3,0,0,1-2.46-.09l-8-5.48a1,1,0,0,1-.37-1.07A.93.93,0,0,0,583.75,324.82Z"/><polygon class="cls-80" points="611.63 320.27 611.63 319.09 604.12 314.21 603.6 314.49 611.01 319.4 611.01 320.62 611.63 320.27"/><polygon points="611.28 320.55 611.28 319.37 603.77 314.49 603.25 314.76 610.66 319.68 610.66 320.89 611.28 320.55"/><polygon class="cls-81" points="584.07 336.26 584.07 335.09 576.56 330.21 576.04 330.48 583.45 335.4 583.45 336.61 584.07 336.26"/><polygon points="583.73 336.54 583.73 335.37 576.21 330.48 575.69 330.76 583.1 335.68 583.1 336.89 583.73 336.54"/><path class="cls-82" d="M598.54,323.75l-3.41-2.35a1.6,1.6,0,0,0-1.71-.07l-4.3,2.51a.78.78,0,0,0,0,1.32l3.4,2.35a1.6,1.6,0,0,0,1.72.06l4.3-2.5A.78.78,0,0,0,598.54,323.75Z"/><path class="cls-83" d="M631.44,318.18c-.09,1.55-1.08,3-3,4.14l-21.17,12.2,2.62,1.89,18.55-10.69c2-1.16,3-2.7,3-4.31C631.46,321.28,631.45,318.84,631.44,318.18Z"/><path class="cls-84" d="M535.66,336l-62.8-36.21c-3.17-1.83-4.6-4.24-4.2-6.42a1.57,1.57,0,0,0-.07.48c0,.14,0,3.85,0,4,.16,1.87,1.6,3.81,4.25,5.35l65,37.47Z"/><ellipse class="cls-85" cx="520.09" cy="261.04" rx="50.43" ry="52.35" transform="translate(-60.19 217.27) rotate(-22.34)"/><path class="cls-86" d="M659.14,177c6.18,3.57,11.18.71,11.18-6.38s-5-15.72-11.18-19.29S648,150.64,648,157.73,653,173.45,659.14,177Zm37.56-3.53c-10.21-5.89-17.47,37.88-28.85,31.31s-15.5-26.07-24.52-31.28c-6.25-3.6-13.39,22.11-18.45,26V200l95.56,55.16v-1.07C712.59,240.1,704.53,178,696.7,173.49Zm20.54,2.4v1.32l-18.63-11v-1.72l-3.83-2.22V164l-14.54-8.56v-1l-3.5-2v4l3.5,2v-1.84l13.9,8.19a5.61,5.61,0,0,0-1.77.25c-3.66,1.12-6.42,5.75-8.86,10.71l-1.65-1a.5.5,0,0,0-.5,0,.48.48,0,0,0-.25.43v4.4a.48.48,0,0,0,.25.43l3.83,2.21a.52.52,0,0,0,.25.07.59.59,0,0,0,.25-.07.5.5,0,0,0,.25-.43v-4.4a.5.5,0,0,0-.25-.43l-1.31-.75c2.24-4.57,5-9.24,8.28-10.26a4.89,4.89,0,0,1,2.12-.16v.88l3.83,2.21v-1.17c3,2.72,7.34,9.33,9.89,19.87l-1.14-.66a.5.5,0,0,0-.5,0,.48.48,0,0,0-.25.43v4.39a.5.5,0,0,0,.25.44l3.83,2.21a.51.51,0,0,0,.25.06.57.57,0,0,0,.25-.06.52.52,0,0,0,.25-.44v-4.39a.5.5,0,0,0-.25-.43l-1.5-.86c-2-8.7-5.41-15.57-8.66-19.47l16.21,9.54v1.54l3.5,2v-4Zm-32.3,1.82V181l-2.83-1.63v-3.24Zm25.5,12.17v3.24l-2.83-1.64v-3.23Z"/><ellipse class="cls-87" cx="657.64" cy="164.69" rx="9.1" ry="15.77" transform="translate(6.78 354.42) rotate(-30.31)"/><path class="cls-88" d="M623.38,200.48l95.56,55.16v-1.07c-7.85-14-15.91-76.06-23.74-80.58-10.21-5.89-17.47,37.88-28.85,31.31s-15.5-26.07-24.52-31.28c-6.25-3.6-13.39,22.11-18.45,26Z"/><path class="cls-89" d="M715.74,176.39v1.32l-18.63-11V165l-3.83-2.22v1.69l-14.54-8.56v-1l-3.5-2v4l3.5,2v-1.84l13.9,8.19a5.61,5.61,0,0,0-1.77.25c-3.66,1.12-6.42,5.75-8.86,10.71l-1.65-1a.5.5,0,0,0-.5,0,.48.48,0,0,0-.25.43v4.4a.48.48,0,0,0,.25.43l3.83,2.21a.52.52,0,0,0,.25.07.59.59,0,0,0,.25-.07.5.5,0,0,0,.25-.43v-4.4a.5.5,0,0,0-.25-.43l-1.31-.75c2.24-4.57,5-9.24,8.28-10.26a4.89,4.89,0,0,1,2.12-.16v.88l3.83,2.21v-1.17c3,2.72,7.34,9.33,9.89,19.87l-1.14-.66a.5.5,0,0,0-.5,0,.48.48,0,0,0-.25.43v4.39a.5.5,0,0,0,.25.44l3.83,2.21a.51.51,0,0,0,.25.06.57.57,0,0,0,.25-.06.52.52,0,0,0,.25-.44v-4.39a.5.5,0,0,0-.25-.43l-1.5-.86c-2-8.7-5.41-15.57-8.66-19.47l16.21,9.54v1.54l3.5,2v-4Zm-32.3,5.06-2.83-1.63v-3.24l2.83,1.63Zm25.5,12.17L706.11,192v-3.23l2.83,1.63Z"/><path class="cls-2" d="M526.45,294.69a13.79,13.79,0,0,1-6.78-1.63c-1.91-1.1-3-2.6-3-4.21s1-3.07,2.92-4.15a13.61,13.61,0,0,1,6.7-1.61,13.86,13.86,0,0,1,6.79,1.63c1.9,1.1,3,2.59,3,4.2s-1,3.07-2.91,4.16A13.62,13.62,0,0,1,526.45,294.69Zm-.12-10.6a12.63,12.63,0,0,0-6.2,1.47c-1.56.9-2.42,2.07-2.42,3.29s.87,2.43,2.46,3.34a13.87,13.87,0,0,0,12.49,0c1.56-.91,2.41-2.08,2.41-3.3s-.87-2.42-2.45-3.34A12.88,12.88,0,0,0,526.33,284.09Z"/><path class="cls-2" d="M537.69,317.07l-.88-.3,0-.31c-.18-1.23-1.91-3.71-3.59-6.1-2.45-3.5-5-7.12-4.54-9.16a1.75,1.75,0,0,1,.88-1.19c2.44-1.41,6-1.36,9.87-1.3,4.2.06,8.54.12,11.7-1.7a1.87,1.87,0,0,0,1-1.24c.49-2.17-2.3-6.2-4.53-9.43a.5.5,0,1,1,.82-.57c2.47,3.57,5.27,7.62,4.69,10.22a2.85,2.85,0,0,1-1.44,1.88c-3.4,2-7.88,1.9-12.21,1.84-3.68-.06-7.16-.11-9.36,1.16a.78.78,0,0,0-.4.55c-.36,1.6,2.27,5.35,4.38,8.37,1.74,2.48,3.26,4.66,3.68,6.14l43.34-25a.49.49,0,0,1,.68.18.51.51,0,0,1-.18.69Z"/><path class="cls-90" d="M549.24,284.3c-.78.42-3.23,1-3.66.25s1.35-2.67,2.13-3.09a1.61,1.61,0,1,1,1.53,2.84Z"/><path class="cls-91" d="M563.14,281.32c4.16-2.18-1.4-12.89-5.94-10.26s-9.55,9.44-9.55,9.44h0a2.26,2.26,0,0,0-.09,2.77,2.17,2.17,0,0,0,2.37,1.45h0S559,283.51,563.14,281.32Z"/><path class="cls-92" d="M594,264.29l-5.68-10.56L557.12,271h0l0,0c-1.7.91-1.8,4-.23,6.93s4.22,4.54,5.91,3.62l0,0h0Z"/><path class="cls-93" d="M594,264.3c-1.69.91-4.34-.71-5.91-3.62s-1.47-6,.23-6.94,4.34.71,5.91,3.63S595.72,263.38,594,264.3Z"/><path class="cls-94" d="M638.31,239.29l-4.6-8.55-45.43,23.1h0l0,0c-1.7.91-1.8,4-.23,6.93s4.22,4.54,5.92,3.63l0,0h0Z"/><path class="cls-95" d="M638.3,239.3c-1.38.74-3.53-.57-4.8-2.93s-1.19-4.88.19-5.62,3.52.57,4.79,2.93S639.67,238.56,638.3,239.3Z"/><path class="cls-96" d="M633.7,236.33c-1.27-2.37-1.19-4.88.19-5.62l.09,0a1.42,1.42,0,0,0-.45.16c-1.38.74-1.46,3.25-.19,5.61s3.32,3.61,4.7,3C636.68,239.71,634.84,238.44,633.7,236.33Z"/><path class="cls-97" d="M596,311.59,556.48,288a4.64,4.64,0,0,0-.47-.24,65.65,65.65,0,0,0-9.12-3.87h0c-.63-.21-1,0-.78.72a3.43,3.43,0,0,0,1.36,2h0s5.85,4.83,9.62,7.34a4.25,4.25,0,0,0,.64.46l0,0h0l39.67,23.8Z"/><path class="cls-98" d="M568.72,296.66,551,286.09l-.21-.11a28.59,28.59,0,0,0-4.09-1.73h0c-.29-.09-.15.87.26,1.23h0s2.63,2.17,4.32,3.29a2.64,2.64,0,0,0,.29.21h0l17.8,10.68Z"/><path class="cls-99" d="M631.09,234.62c.65,1.24-9.4,7.84-19.26,13s-18.39,8.37-19,7.12,6.81-6.45,16.67-11.63S630.43,233.37,631.09,234.62Z"/><rect class="cls-100" x="555.25" y="264.68" width="32.54" height="3.5" rx="1.25" transform="translate(-57.83 305.62) rotate(-28.56)"/><rect class="cls-101" x="558.77" y="266.81" width="19.06" height="2.59" rx="0.92" transform="translate(-59.03 304.28) rotate(-28.56)"/><path class="cls-102" d="M576.67,263.56a1.25,1.25,0,0,0-.49-.48,1.81,1.81,0,0,1,.18.21,1.3,1.3,0,0,1-.52,1.76l-14.46,7.87a1.3,1.3,0,0,1-1.28,0,1.28,1.28,0,0,0,1.59.3l14.46-7.87A1.29,1.29,0,0,0,576.67,263.56Z"/><path class="cls-103" d="M630.44,232.76l-73,38.7a4.47,4.47,0,0,0-.51.38c-4.37,2.84-9.33,8.66-9.33,8.66h0a2.26,2.26,0,0,0-.09,2.77,2.17,2.17,0,0,0,2.37,1.45h0s7.58-1,12.06-2.86a2.15,2.15,0,0,0,.78-.24l0,0h0L635,241.11Z"/><path class="cls-104" d="M560.1,273.74c3.69-2.91,2-5.33-2.08-2.05s-9.54,8.71-9.54,8.71h0c-.64.6-.94,1.07-.74,1.33s.53.16,1.46-.41h0S556.41,276.64,560.1,273.74Z"/><path class="cls-105" d="M561.8,281.13c3.86-1.15,3.5-2.88-.8-1.57s-10.42,3.71-10.42,3.71h0c-.7.26-1.11.49-1.05.68s.33.18,1.25,0h0S557.94,282.28,561.8,281.13Z"/><polygon class="cls-106" points="681.96 96.55 597.73 47.75 567.09 65.95 567.09 94.66 651.25 143.34 651.25 143.35 651.26 143.34 651.27 143.35 651.27 143.34 681.96 125.25 681.96 96.55"/><g class="cls-36"><polygon class="cls-107" points="651.25 114.8 651.25 143.35 659.52 138.57 659.52 109.87 651.25 114.8"/><polygon class="cls-108" points="651.27 114.8 651.27 143.35 567.09 94.66 567.09 65.95 651.27 114.8"/><polygon class="cls-109" points="567.09 65.95 651.27 114.8 659.52 109.87 575.3 61.07 567.09 65.95"/></g><path class="cls-110" d="M488.28,320.35l-26.9-15.51c-6.06-3.5-9.53-8.89-9.53-14.8,0-5.52,3-10.43,8.27-13.46l87.57-50.33.5.87-87.57,50.32c-4.94,2.85-7.77,7.45-7.77,12.6,0,5.54,3.29,10.62,9,13.93l26.9,15.51Z"/><circle class="cls-111" cx="514.96" cy="245.74" r="14.7" transform="translate(145.06 680.2) rotate(-75.1)"/></g></g></svg>